<svg xmlns="http://www.w3.org/2000/svg" width="124.625" height="26.044" viewBox="0 0 124.625 26.044">
  <g id="Grupo_13703" data-name="Grupo 13703" transform="translate(-4385.376 -6001.043)">
    <path id="Trazado_39714" data-name="Trazado 39714" d="M232.814,379.75c1.03,0,1.673-.578,1.673-1.326,0-1.116-1.127-1.522-2.1-2.155-1.31-.774-2-1.513-2-2.676a2.576,2.576,0,0,1,2.877-2.5,5.232,5.232,0,0,1,2.381.576l-.051,1.513a4.949,4.949,0,0,0-2.207-.749c-.9,0-1.406.442-1.406,1.084,0,.868,1.09,1.293,1.981,1.869,1.446.858,2.2,1.685,2.2,3,0,1.647-1.232,2.824-3.266,2.824a5.951,5.951,0,0,1-2.553-.562l-.147-1.86a4.946,4.946,0,0,0,2.62.964" transform="translate(4209.797 5637.926)" fill="#fff"/>
    <path id="Trazado_39715" data-name="Trazado 39715" d="M222.429,379.75c1.031,0,1.672-.578,1.672-1.326,0-1.116-1.126-1.522-2.1-2.155-1.311-.774-1.993-1.513-1.993-2.676a2.574,2.574,0,0,1,2.874-2.5,5.239,5.239,0,0,1,2.383.576l-.052,1.513a4.949,4.949,0,0,0-2.207-.749c-.9,0-1.406.442-1.406,1.084,0,.868,1.084,1.293,1.981,1.869,1.446.858,2.193,1.685,2.193,3,0,1.647-1.231,2.824-3.265,2.824a5.956,5.956,0,0,1-2.554-.562l-.147-1.86a4.964,4.964,0,0,0,2.62.964" transform="translate(4210.799 5637.926)" fill="#fff"/>
    <path id="Trazado_39716" data-name="Trazado 39716" d="M242.531,376.975c0,1.831.773,2.768,2.285,2.768,1.485,0,2.29-.952,2.29-2.809v-5.487h1.69v5.512c0,2.771-1.5,4.269-3.976,4.269-2.546,0-3.976-1.672-3.976-4.247v-5.54h1.687v5.529" transform="translate(4208.77 5637.892)" fill="#fff"/>
    <path id="Trazado_39717" data-name="Trazado 39717" d="M258.864,374.254c0-1.479-1.607-1.459-2.97-1.459v2.937c1.063,0,2.97.108,2.97-1.478m-4.6-2.811h2.195a4.818,4.818,0,0,1,2.958.654,2.488,2.488,0,0,1,1.11,2.021,2.723,2.723,0,0,1-2.073,2.637l3.063,4.156h-1.939l-2.879-3.931h-.8v3.931H254.26v-9.468" transform="translate(4207.476 5637.894)" fill="#fff"/>
    <path id="Trazado_39718" data-name="Trazado 39718" d="M296.123,380.917h-1.676v-8.024h-3.2v-1.446H299.3v1.446h-3.182v8.024" transform="translate(4203.908 5637.891)" fill="#fff"/>
    <path id="Trazado_39719" data-name="Trazado 39719" d="M209.595,377.1a16.836,16.836,0,0,1,1.588-3.343,17.1,17.1,0,0,1,1.6,3.343Zm1.644-6-.07-.038-.072.038a32.132,32.132,0,0,0-4.663,9.782h1.691c.155-.578.557-1.774.757-2.338h4.574c.2.566.6,1.761.756,2.338H215.9a32.3,32.3,0,0,0-4.665-9.778" transform="translate(4212.089 5637.928)" fill="#fff"/>
    <path id="Trazado_39720" data-name="Trazado 39720" d="M267.88,377.1a16.96,16.96,0,0,1,1.588-3.343,17.051,17.051,0,0,1,1.6,3.343Zm1.644-6-.071-.038-.07.038a32.083,32.083,0,0,0-4.664,9.782h1.691c.155-.578.556-1.774.759-2.338h4.571c.2.566.6,1.761.759,2.338h1.691a32.23,32.23,0,0,0-4.664-9.778" transform="translate(4206.467 5637.928)" fill="#fff"/>
    <path id="Trazado_39721" data-name="Trazado 39721" d="M280.367,374.993l6.213,6.21.08-.024.025-.078v-9.692h-1.6v5.859l-6.213-6.212-.08.023-.025.079v9.721h1.606v-5.888" transform="translate(4205.112 5637.929)" fill="#fff"/>
    <path id="Trazado_39722" data-name="Trazado 39722" d="M169.769,375.747c-.014.244-.02.489-.02.736a12.944,12.944,0,0,0,1.825,6.653,48.7,48.7,0,0,1,3.518-8.517,42.994,42.994,0,0,0-5.324,1.128" transform="translate(4215.627 5637.585)" fill="#d6d6d6"/>
    <path id="Trazado_39723" data-name="Trazado 39723" d="M172.277,367.92a49.908,49.908,0,0,1,7.048-.962,46.49,46.49,0,0,1,3.686-4.518l-.162-.173a13.01,13.01,0,0,0-10.571,5.65" transform="translate(4215.383 5638.776)" fill="#d6d6d6"/>
    <path id="Trazado_39724" data-name="Trazado 39724" d="M191.3,364.63a48.555,48.555,0,0,1-5.045,12.1q-1.006,1.743-2.1,3.343,1.084,1.593,2.225,3.029,1.6-.066,3.148-.221,1.008-1.5,1.949-3.133a51.715,51.715,0,0,0,4.427-9.844,13.067,13.067,0,0,0-4.608-5.276" transform="translate(4214.237 5638.549)" fill="#d6d6d6"/>
    <path id="Trazado_39725" data-name="Trazado 39725" d="M191.285,364.4a12.955,12.955,0,0,0-7.138-2.13h-.162a48.78,48.78,0,0,1,5.616,7.3,43.268,43.268,0,0,0,1.687-5.173" transform="translate(4214.254 5638.776)" fill="#c6c6c6"/>
    <path id="Trazado_39726" data-name="Trazado 39726" d="M196.88,370.467a49.507,49.507,0,0,1-2.692,6.59,47.161,47.161,0,0,1,2.068,5.451l.232-.054a13.049,13.049,0,0,0,.392-11.986" transform="translate(4213.27 5637.986)" fill="#c6c6c6"/>
    <path id="Trazado_39727" data-name="Trazado 39727" d="M181.1,377.649q-1.006-1.743-1.846-3.487-1.923.141-3.736.413c-.5.948-.96,1.9-1.382,2.837q.8,1.626,1.738,3.253a51.722,51.722,0,0,0,6.306,8.754c.335.025.675.039,1.016.039a12.948,12.948,0,0,0,5.864-1.391,48.512,48.512,0,0,1-7.959-10.42" transform="translate(4215.204 5637.629)" fill="#c6c6c6"/>
    <path id="Trazado_39728" data-name="Trazado 39728" d="M195.758,383.732a48.637,48.637,0,0,1-9.135,1.213,42.914,42.914,0,0,0,3.639,4.048,13.079,13.079,0,0,0,5.5-5.26" transform="translate(4214 5636.706)" fill="#d1d1d1"/>
    <path id="Trazado_39729" data-name="Trazado 39729" d="M177.593,384.728a46.946,46.946,0,0,1-5.756-.936c-.023.077-.047.153-.069.229a13.02,13.02,0,0,0,10.181,6.329,49.564,49.564,0,0,1-4.356-5.623" transform="translate(4215.432 5636.7)" fill="#d1d1d1"/>
    <path id="Trazado_39730" data-name="Trazado 39730" d="M182.773,367.326a51.763,51.763,0,0,0-10.737,1.084,12.976,12.976,0,0,0-2.264,6.634,48.482,48.482,0,0,1,13-1.683c1.342,0,2.658.05,3.942.143.558-1.155,1.063-2.3,1.511-3.442q-.859-1.355-1.766-2.615c-1.2-.08-2.435-.121-3.687-.121" transform="translate(4215.625 5638.289)" fill="#d1d1d1"/>
    <path id="Trazado_39731" data-name="Trazado 39731" d="M305.037,372.458v.777a1.954,1.954,0,0,0,.219.006.779.779,0,0,0,.435-.084.371.371,0,0,0,.111-.316q0-.386-.5-.386h-.131Zm.927,2.045-.591-1h-.336v1H304.7v-2.329h.6c.561,0,.839.214.839.646a.646.646,0,0,1-.452.633l.632,1.052Zm.994-1.142a1.581,1.581,0,1,0-.463,1.119,1.521,1.521,0,0,0,.462-1.118Zm-3.471,0a1.893,1.893,0,1,1,.555,1.335,1.818,1.818,0,0,1-.555-1.335" transform="translate(4202.728 5637.89)" fill="#fff"/>
  </g>
</svg>
