<svg xmlns="http://www.w3.org/2000/svg" width="124.625" height="26.044" xmlns:v="https://vecta.io/nano"><path d="M57.235 16.633c1.03 0 1.673-.578 1.673-1.326 0-1.116-1.127-1.522-2.1-2.155-1.31-.774-2-1.513-2-2.676.016-.725.338-1.41.886-1.886s1.271-.699 1.991-.614a5.23 5.23 0 0 1 2.381.576l-.051 1.513a4.95 4.95 0 0 0-2.207-.749c-.9 0-1.406.442-1.406 1.084 0 .868 1.09 1.293 1.981 1.869 1.446.858 2.2 1.685 2.2 3 0 1.647-1.232 2.824-3.266 2.824a5.95 5.95 0 0 1-2.553-.562l-.147-1.86a4.95 4.95 0 0 0 2.62.964m-9.385-.002c1.031 0 1.672-.578 1.672-1.326 0-1.116-1.126-1.522-2.1-2.155-1.311-.774-1.993-1.513-1.993-2.676.016-.725.337-1.41.884-1.886s1.27-.699 1.99-.614a5.24 5.24 0 0 1 2.383.576l-.052 1.513a4.95 4.95 0 0 0-2.207-.749c-.9 0-1.406.442-1.406 1.084 0 .868 1.084 1.293 1.981 1.869 1.446.858 2.193 1.685 2.193 3 0 1.647-1.231 2.824-3.265 2.824-.882.004-1.755-.188-2.554-.562l-.147-1.86c.763.565 1.672.9 2.62.964m18.074-2.811c0 1.831.773 2.768 2.285 2.768 1.485 0 2.29-.952 2.29-2.809V8.296h1.69v5.512c0 2.771-1.5 4.269-3.976 4.269-2.546 0-3.976-1.672-3.976-4.247V8.29h1.687v5.529m15.039-2.714c0-1.479-1.607-1.459-2.97-1.459v2.937c1.063 0 2.97.108 2.97-1.478m-4.6-2.811h2.195a4.82 4.82 0 0 1 2.958.654 2.49 2.49 0 0 1 1.11 2.021c-.003 1.251-.858 2.338-2.073 2.637l3.063 4.156h-1.939l-2.879-3.931h-.8v3.931H76.36V8.294m38.295 9.471h-1.676V9.741h-3.2V8.295h8.053v1.446h-3.182v8.024m-78.342-3.78a16.84 16.84 0 0 1 1.588-3.343 17.1 17.1 0 0 1 1.6 3.343zm1.644-6l-.07-.038-.072.038a32.13 32.13 0 0 0-4.663 9.782h1.691c.155-.578.557-1.774.757-2.338h4.574l.756 2.338h1.688a32.3 32.3 0 0 0-4.665-9.778m51.023 5.996a16.96 16.96 0 0 1 1.588-3.343 17.05 17.05 0 0 1 1.6 3.343zm1.644-6l-.071-.038-.07.038a32.09 32.09 0 0 0-4.664 9.782h1.691a40.31 40.31 0 0 1 .759-2.338h4.571l.759 2.338h1.691a32.23 32.23 0 0 0-4.664-9.778m9.486 3.89l6.213 6.21.08-.024.025-.078V8.295h-1.6v5.859l-6.213-6.212-.08.023-.025.079v9.721h1.606v-5.888" fill="#fff"/><path d="M.02 12.289l-.02.736a12.94 12.94 0 0 0 1.825 6.653 48.7 48.7 0 0 1 3.518-8.517c-1.797.263-3.575.64-5.324 1.128m2.265-6.636a49.91 49.91 0 0 1 7.048-.962A46.49 46.49 0 0 1 13.018.173L12.856 0A13.01 13.01 0 0 0 2.285 5.65m17.876-3.514c-1.127 4.243-2.824 8.313-5.045 12.1q-1.006 1.743-2.1 3.343 1.084 1.593 2.225 3.029 1.6-.066 3.148-.221 1.008-1.5 1.949-3.133c1.815-3.118 3.299-6.417 4.427-9.844-1.027-2.145-2.62-3.969-4.608-5.276" fill="#d6d6d6"/><path d="M20.163 2.133a12.96 12.96 0 0 0-7.138-2.13h-.162a48.78 48.78 0 0 1 5.616 7.3 43.27 43.27 0 0 0 1.687-5.173m4.608 5.28c-.738 2.258-1.638 4.461-2.692 6.59a47.16 47.16 0 0 1 2.068 5.451l.232-.054a13.05 13.05 0 0 0 .392-11.986m-13.846 6.824q-1.006-1.743-1.846-3.487-1.923.141-3.736.413l-1.382 2.837q.8 1.626 1.738 3.253a51.72 51.72 0 0 0 6.306 8.754l1.016.039a12.95 12.95 0 0 0 5.864-1.391 48.51 48.51 0 0 1-7.959-10.42" fill="#c6c6c6"/><path d="M24.382 19.395a48.57 48.57 0 0 1-9.135 1.213 42.96 42.96 0 0 0 3.639 4.048 13.08 13.08 0 0 0 5.5-5.26m-16.737.989c-1.936-.192-3.859-.505-5.756-.936l-.069.229a13.02 13.02 0 0 0 10.181 6.329c-1.585-1.768-3.041-3.647-4.356-5.623m5.373-15.812c-3.607-.014-7.206.35-10.737 1.084A12.98 12.98 0 0 0 .021 12.29a48.48 48.48 0 0 1 13-1.683c1.342 0 2.658.05 3.942.143.558-1.155 1.063-2.3 1.511-3.442q-.859-1.355-1.766-2.615a55.56 55.56 0 0 0-3.687-.121" fill="#d1d1d1"/><path d="M122.389 9.305v.777c.073.006.146.008.219.006a.78.78 0 0 0 .435-.084.37.37 0 0 0 .111-.316q0-.386-.5-.386h-.131zm.927 2.045l-.591-1h-.336v1h-.337V9.021h.6c.561 0 .839.214.839.646.007.288-.177.547-.452.633l.632 1.052zm.994-1.142a1.58 1.58 0 0 0-3.042-.603 1.58 1.58 0 0 0 2.579 1.722 1.52 1.52 0 0 0 .462-1.118zm-3.471 0c-.002-.903.635-1.682 1.52-1.86s1.774.295 2.12 1.129.056 1.797-.695 2.3-1.752.405-2.391-.234a1.82 1.82 0 0 1-.555-1.335" fill="#fff"/></svg>