<svg xmlns="http://www.w3.org/2000/svg" width="90.357" height="41.365" xmlns:v="https://vecta.io/nano"><path d="M35.378 31.552c-.818-2.246-2.266-4.209-4.171-5.653-1.551-1.399-3.298-2.564-5.186-3.459-.265-.127-.578-.102-.821.064s-.378.45-.355.743.201.552.466.679c0 0 2.7 1.061 3.206 3.133.334 1.594.341 3.239.018 4.835a5.2 5.2 0 0 0 .008 1.073c.029.329.104.652.223.96a2.44 2.44 0 0 0 .181.388c.863 1.606 2.81 2.285 4.485 1.565s2.521-2.601 1.949-4.331z" fill="#d3d3d3"/><path d="M26.298 28.723l-.043-.181-.006-.027a3.54 3.54 0 0 0-3.916-2.58c0 0-.062.008-.181.032l-.108.023-.1.023c-1.185.281-4.97 1.5-9.613 6.234a2.04 2.04 0 0 0-.08.081l-.021.021a2.56 2.56 0 0 0 1.708 4.3h0s4.848.367 8.072-1.208c3.144-1.536 4.9-3.953 4.289-6.725" fill="#e6e6e6"/><path d="M35.631 10.241c-.001-2.346-1.857-4.27-4.201-4.357s-4.337 1.697-4.511 4.036v.016l-.012.3v.1c-.12 3.512-1.3 4.507-1.3 4.507-4.326 6.543-11.161 8.216-17.669 12.4-6.023 3.871-7.43 7.563-7.606 8.09-.674 1.631-.3 3.507.948 4.754s3.125 1.619 4.755.944 2.692-2.267 2.692-4.031v-.237c-.233-5.212 5.89-8.844 8.526-10.576 2.654-1.745 7.235-3.7 11.852-7.089a20.25 20.25 0 0 0 5.939-6.665 4.34 4.34 0 0 0 .587-2.191" fill="#bfbfbf"/><path d="M6.916 7.748c.271.923 1.763 5.162 6.988 9.472 5.56 5.044 9.205 6.135 10.6 4.518.414-.478-.266-.988-.727-1.212h0s-4.518-1.777-5.372-5.25-.271-5.482-.031-8.1c.058-.599.053-1.202-.014-1.8a5.86 5.86 0 0 0-.366-1.611c-.081-.225-.182-.442-.3-.65A5.89 5.89 0 0 0 10.18.49a5.89 5.89 0 0 0-3.264 7.259z" fill="#d1d1d1"/><path d="M84.767 14.705h5.512v23.524h-5.512zm2.539-8.651c1.687 0 3.054 1.367 3.054 3.054s-1.367 3.054-3.054 3.054-3.054-1.367-3.054-3.054a3.06 3.06 0 0 1 .894-2.16 3.05 3.05 0 0 1 2.16-.894M59.971 29.176a8.97 8.97 0 0 0-3.649-7.246 8.15 8.15 0 0 0 2.183-8.925c-1.179-3.141-4.163-5.237-7.518-5.282v.014H38.196v30.539h12.937v-.018a9.09 9.09 0 0 0 8.838-9.082M43.762 12.927h3.133a20.75 20.75 0 0 1 3.358.108c.786.004 1.537.329 2.078.9a3.62 3.62 0 0 1 .7 2.313 3.33 3.33 0 0 1-3.042 3.512 10.56 10.56 0 0 1-2.656.164h-3.571zm9.508 18.749a3.5 3.5 0 0 1-2 1.265 6.6 6.6 0 0 1-2.422.217h-5.086v-7.972h4.407c2.514 0 2.8-.09 3.554.213a3.47 3.47 0 0 1 1.729 1.37 4.26 4.26 0 0 1 .6 2.33 3.95 3.95 0 0 1-.781 2.578zm20.308 1.673a6.64 6.64 0 0 1-6.455-6.635 6.64 6.64 0 0 1 6.455-6.634 6.3 6.3 0 0 1 4.6 2.145l3.963-3.963C80 15.977 77.04 14.634 73.91 14.529a12.18 12.18 0 1 0 0 24.361 11.97 11.97 0 0 0 8.009-3.614l-3.809-3.927a6.34 6.34 0 0 1-4.527 2" fill="#c2c2c2"/></svg>