<svg xmlns="http://www.w3.org/2000/svg" width="90.357" height="41.365" viewBox="0 0 90.357 41.365">
  <g id="Grupo_13693" data-name="Grupo 13693" transform="translate(-4232 -5673.719)">
    <path id="Trazado_39693" data-name="Trazado 39693" d="M38.03,33.939a12.436,12.436,0,0,0-4.171-5.653,21.465,21.465,0,0,0-5.186-3.459.823.823,0,1,0-.709,1.486s2.7,1.061,3.206,3.133a11.985,11.985,0,0,1,.018,4.835,5.2,5.2,0,0,0,.008,1.073,3.507,3.507,0,0,0,.223.96,2.438,2.438,0,0,0,.181.388,3.515,3.515,0,0,0,6.434-2.766Z" transform="translate(4229.348 5671.332)" fill="#d3d3d3"/>
    <path id="Trazado_39694" data-name="Trazado 39694" d="M27.53,31.488c-.013-.062-.027-.123-.043-.181l-.006-.027A3.541,3.541,0,0,0,23.565,28.7s-.062.008-.181.032l-.108.023-.1.023c-1.185.281-4.97,1.5-9.613,6.234-.027.026-.054.053-.08.081l-.021.021a2.558,2.558,0,0,0,1.708,4.3v0s4.848.367,8.072-1.208c3.144-1.536,4.9-3.953,4.289-6.725" transform="translate(4230.768 5670.954)" fill="#e6e6e6"/>
    <path id="Trazado_39695" data-name="Trazado 39695" d="M35.631,10.87a4.362,4.362,0,0,0-8.712-.321v.016c-.007.1-.012.2-.012.3v.1c-.12,3.512-1.3,4.507-1.3,4.507-4.326,6.543-11.161,8.216-17.669,12.4C1.915,31.743.508,35.435.332,35.962a4.363,4.363,0,1,0,8.395,1.666v-.237c-.233-5.212,5.89-8.844,8.526-10.576,2.654-1.745,7.235-3.7,11.852-7.089a20.252,20.252,0,0,0,5.939-6.665,4.338,4.338,0,0,0,.587-2.191" transform="translate(4232 5673.09)" fill="#bfbfbf"/>
    <path id="Trazado_39696" data-name="Trazado 39696" d="M7.622,7.748c.271.923,1.763,5.162,6.988,9.472,5.56,5.044,9.205,6.135,10.6,4.518.414-.478-.266-.988-.727-1.212v0s-4.518-1.777-5.372-5.25-.271-5.482-.031-8.1a8.666,8.666,0,0,0-.014-1.8A5.86,5.86,0,0,0,18.7,3.765a4.175,4.175,0,0,0-.3-.65A5.888,5.888,0,0,0,7.622,7.749Z" transform="translate(4231.294 5673.719)" fill="#d1d1d1"/>
    <rect id="Rectángulo_2040" data-name="Rectángulo 2040" width="5.512" height="23.524" transform="translate(4316.767 5688.424)" fill="#c2c2c2"/>
    <path id="Trazado_39697" data-name="Trazado 39697" d="M96.3,6.7a3.054,3.054,0,1,1-3.054,3.054A3.054,3.054,0,0,1,96.3,6.7" transform="translate(4223.006 5673.073)" fill="#c2c2c2"/>
    <path id="Trazado_39698" data-name="Trazado 39698" d="M64.049,30A8.969,8.969,0,0,0,60.4,22.754,8.147,8.147,0,0,0,55.065,8.547v.014H42.274V39.1H55.211v-.018A9.087,9.087,0,0,0,64.049,30M47.84,13.751h3.133a20.748,20.748,0,0,1,3.358.108,2.885,2.885,0,0,1,2.078.9,3.618,3.618,0,0,1,.7,2.313,3.33,3.33,0,0,1-3.042,3.512,10.56,10.56,0,0,1-2.656.164H47.84ZM57.348,32.5a3.5,3.5,0,0,1-2,1.265,6.6,6.6,0,0,1-2.422.217H47.84V26.01h4.407c2.514,0,2.8-.09,3.554.213a3.471,3.471,0,0,1,1.729,1.37,4.257,4.257,0,0,1,.6,2.33,3.953,3.953,0,0,1-.781,2.578Z" transform="translate(4227.922 5672.895)" fill="#c2c2c2"/>
    <path id="Trazado_39699" data-name="Trazado 39699" d="M80.168,34.9a6.637,6.637,0,0,1,0-13.269,6.3,6.3,0,0,1,4.6,2.145l3.963-3.963A11.826,11.826,0,0,0,80.5,16.08a12.181,12.181,0,1,0,0,24.361,11.968,11.968,0,0,0,8.009-3.614L84.7,32.9a6.338,6.338,0,0,1-4.527,2" transform="translate(4225.41 5672.168)" fill="#c2c2c2"/>
  </g>
</svg>
