<svg xmlns="http://www.w3.org/2000/svg" width="124.614" height="21.032" fill="silver" xmlns:v="https://vecta.io/nano"><path d="M111.075 4.681l-1.787-1.817-1.744 1.773 1.787 1.773zM35.296 9.467l-2.183-2.154-2 1.744-1.9-1.717-2.1 2.2.938 1.084v6.461l1.685 1.729 1.728-1.744-.879-.85v-5.342l1.113-1.055 1.044 1.055v6.2l1.671 1.685 1.817-1.8-.923-.865zm14.684 7.198l-1.992-.82V9.164l1.992.908zm-4.351-7.574v7.973l3.56 1.523 3.4-1.787V8.978L48.912 7.22zm19.616 7.575l-1.992-.82V9.164l1.992.908zm-4.22-12.307c.528.4.908-.278 1.509-.117l2.711 1.3v2.259l-1.157-.557-3.3 1.858v7.974l3.56 1.523 3.4-1.794V4.242l-3.386-1.466zm58.9 4.878l2.169 2.62-2.169 1.523zm2.4 7.531l-2.385-1.004-.014-1.392 4.6-3.4-3.135-3.623-3.737 1.844v7.971l3.5 1.45 3.458-2.388c-.674-.425-1.48.938-2.286.542m-50.518-7.53l2.169 2.62-2.169 1.523zm2.406 7.531l-2.376-1.005-.012-1.4 4.6-3.4-3.135-3.619-3.736 1.841v7.978l3.488 1.451 3.458-2.388c-.674-.425-1.48.938-2.286.542"/><path d="M110.886 9.003l-1.655-1.509-1.7 1.8.674.718v7.077l1.7 1.729 1.86-1.89-.878-.933zm4.601-6.051l-2.678 2.358v11.78l1.7 1.729 1.876-1.89-.894-.938zM102.05 9.44V2.894c0-.117-2.579 2.564-2.579 2.564v11.633l1.7 1.728 1.728-1.744-.835-.85v-5.347l.967-1.054.908 1.055v10.153l2.55-2.534V9.487l-2.124-2.2zm-7.795 6.61c-1.619.41-3.337.053-4.66-.967l3.7-2.755V3.684l.952.776zm.674-10.359c2.183.425 3.927-1.363 4.938-2.374.073-.161-.161-.132-.337.09-1.318 1.318-2.078-1.011-3.224-1.363-2.534-.82-4.4 2.066-6.388 3.135v9.1l-.747.733c-1.391-1.339-2.271-3.123-2.487-5.042-.6-3.9 3.106-6.579 6.242-8.175A9.4 9.4 0 0 0 84.912 6c-1.407 2.561-1.605 5.615-.542 8.337a7.91 7.91 0 0 0 9.724 4.263c1.804-.622 3.175-2.108 3.649-3.956-.981.117-1.773 1.231-2.813 1.2zm-51.751 4.762l1.758-1.3-3.7-1.758-3.772 1.764v7.68l3.414 1.582a1.09 1.09 0 0 0 1.055 0l2.818-2.122-.235-.071c-.393.333-.852.578-1.348.718l-2.974-1.377V9.18zm-20.097 6.666l-2.9-1.293V12.57l2.9 1.366zm2.345-8.307l-3.429-1.524-3.433 1.7.161.176c.571-.337 1.275-.615 1.612-.452l2.418 1.011a.83.83 0 0 1 .337.381v1.566l-1.636-.723-3.506 1.864v4.132l3.355 1.612 2.666-1.04 1.466 1.231 1.553-1.612-1.555-1.626v-6.7zM5.568 2.995c-1.011 1.1-2.784 1.728-3.722 2.974v6.916c0 1.04-.747.806-.674 1.421l4.088-2.682V4.431l5.3-3.809-.278-.117c-1.377.557-2.769-.6-4.351-.5a8.83 8.83 0 0 0-5.934 2.62c1.612-.733 4.161-.879 5.568.366m6.361 4.855V4.08c1.113.776 2.124 3.224 0 3.765m.41 7.912l-.41-.234V9.706c.452.014.733.542.718 1.084l.029 4.483a.5.5 0 0 1-.337.483m.5-7.15c1.186-.85 2.682-1.582 3.546-2.828.791-1.216-1.421-3.663-2.55-5.407l-.98-.248-6.666 4.776v8.136c0 .981-.528.7-.5 1.245l4.22-2.813V3.423l1.129-.835v12.584l-2.271-.586a8.73 8.73 0 0 0-7.84 3.238 9.94 9.94 0 0 1 9.377.792l5.831-4.117c.923-.879.381-2.476.41-3.6-.176-1.876-2.329-2.008-3.7-2.286"/></svg>