<svg xmlns="http://www.w3.org/2000/svg" width="124.614" height="21.032" viewBox="0 0 124.614 21.032">
  <g id="Grupo_13694" data-name="Grupo 13694" transform="translate(-4385.376 -5683.885)">
    <path id="Trazado_40580" data-name="Trazado 40580" d="M292.305,16.238l-1.787-1.817-1.744,1.773,1.787,1.773Z" transform="translate(4204.146 5672.328)" fill="silver"/>
    <path id="Trazado_40581" data-name="Trazado 40581" d="M207.939,21.5l-2.183-2.154-2,1.744-1.9-1.717-2.1,2.2.938,1.084v6.461l1.685,1.729,1.728-1.744-.879-.85V22.911l1.113-1.055,1.044,1.055v6.2l1.671,1.685,1.817-1.8-.923-.865Z" transform="translate(4212.733 5671.852)" fill="silver"/>
    <path id="Trazado_40582" data-name="Trazado 40582" d="M224.6,28.687l-1.992-.82V21.186l1.992.908Zm-4.351-7.574v7.973l3.56,1.523,3.4-1.787V21l-3.677-1.758Z" transform="translate(4210.756 5671.863)" fill="silver"/>
    <path id="Trazado_40583" data-name="Trazado 40583" d="M241.483,28.214l-1.992-.82V20.712l1.992.908Zm-4.22-12.307c.528.4.908-.278,1.509-.117l2.711,1.3v2.259l-1.157-.557-3.3,1.858v7.974l3.56,1.523,3.4-1.794V15.79L240.6,14.324Z" transform="translate(4209.138 5672.337)" fill="silver"/>
    <path id="Trazado_40584" data-name="Trazado 40584" d="M302.234,21.273l2.169,2.62-2.169,1.523Zm2.4,7.531L302.249,27.8l-.014-1.392,4.6-3.4L303.7,19.385l-3.737,1.844V29.2l3.5,1.45,3.458-2.388c-.674-.425-1.48.938-2.286.542" transform="translate(4203.067 5671.849)" fill="silver"/>
    <path id="Trazado_40585" data-name="Trazado 40585" d="M248.982,21.274l2.169,2.62-2.169,1.523Zm2.406,7.531L249.012,27.8,249,26.4l4.6-3.4-3.135-3.619-3.736,1.841V29.2l3.488,1.451,3.458-2.388c-.674-.425-1.48.938-2.286.542" transform="translate(4208.202 5671.849)" fill="silver"/>
    <path id="Trazado_40586" data-name="Trazado 40586" d="M292.114,21.055l-1.655-1.509-1.7,1.8.674.718v7.077l1.7,1.729,1.86-1.89-.878-.933Z" transform="translate(4204.148 5671.833)" fill="silver"/>
    <path id="Trazado_40587" data-name="Trazado 40587" d="M297.278,14.519,294.6,16.877v11.78l1.7,1.729,1.876-1.89-.894-.938Z" transform="translate(4203.585 5672.318)" fill="silver"/>
    <path id="Trazado_40588" data-name="Trazado 40588" d="M282.418,21V14.454c0-.117-2.579,2.564-2.579,2.564V28.651l1.7,1.728,1.728-1.744-.835-.85V22.438l.967-1.054.908,1.055V32.592l2.55-2.534V21.047l-2.124-2.2Z" transform="translate(4205.008 5672.325)" fill="silver"/>
    <path id="Trazado_40589" data-name="Trazado 40589" d="M272.939,27.493a5.445,5.445,0,0,1-4.66-.967l3.7-2.755V15.127l.952.776Zm.674-10.359c2.183.425,3.927-1.363,4.938-2.374.073-.161-.161-.132-.337.09-1.318,1.318-2.078-1.011-3.224-1.363-2.534-.82-4.4,2.066-6.388,3.135v9.1l-.747.733a8.283,8.283,0,0,1-2.487-5.042c-.6-3.9,3.106-6.579,6.242-8.175a9.4,9.4,0,0,0-8.014,4.205,9.863,9.863,0,0,0-.542,8.337,7.908,7.908,0,0,0,9.724,4.263,5.677,5.677,0,0,0,3.649-3.956c-.981.117-1.773,1.231-2.813,1.2Z" transform="translate(4206.692 5672.442)" fill="silver"/>
    <path id="Trazado_40590" data-name="Trazado 40590" d="M216.927,22.494l1.758-1.3-3.7-1.758L211.213,21.2v7.68l3.414,1.582a1.085,1.085,0,0,0,1.055,0L218.5,28.34l-.235-.071a3.584,3.584,0,0,1-1.348.718l-2.974-1.377V21.221Z" transform="translate(4211.627 5671.844)" fill="silver"/>
    <path id="Trazado_40591" data-name="Trazado 40591" d="M194.746,29.149l-2.9-1.293V24.6l2.9,1.366Zm2.345-8.307-3.429-1.524-3.433,1.7.161.176c.571-.337,1.275-.615,1.612-.452l2.418,1.011a.832.832,0,0,1,.337.381V23.7l-1.636-.723-3.506,1.864v4.132l3.355,1.612,2.666-1.04,1.466,1.231,1.553-1.612L197.1,27.538v-6.7Z" transform="translate(4213.711 5671.855)" fill="silver"/>
    <path id="Trazado_40592" data-name="Trazado 40592" d="M175.317,14.247c-1.011,1.1-2.784,1.728-3.722,2.974v6.916c0,1.04-.747.806-.674,1.421l4.088-2.682V15.683l5.3-3.809-.278-.117c-1.377.557-2.769-.6-4.351-.5a8.827,8.827,0,0,0-5.934,2.62c1.612-.733,4.161-.879,5.568.366" transform="translate(4215.627 5672.633)" fill="silver"/>
    <path id="Trazado_40593" data-name="Trazado 40593" d="M181.774,19.111V15.345c1.113.776,2.124,3.224,0,3.765m.41,7.912-.41-.234V20.971c.452.014.733.542.718,1.084,0,0,.029,4.1.029,4.483a.5.5,0,0,1-.337.483m.5-7.15c1.186-.85,2.682-1.582,3.546-2.828.791-1.216-1.421-3.663-2.55-5.407l-.98-.248-6.666,4.776V24.3c0,.981-.528.7-.5,1.245l4.22-2.813V14.688l1.129-.835V26.437l-2.271-.586a8.728,8.728,0,0,0-7.84,3.238,9.939,9.939,0,0,1,9.377.792l5.831-4.117c.923-.879.381-2.476.41-3.6-.176-1.876-2.329-2.008-3.7-2.286" transform="translate(4215.528 5672.62)" fill="silver"/>
  </g>
</svg>
