<svg xmlns="http://www.w3.org/2000/svg" width="90.354" height="54.24" xmlns:v="https://vecta.io/nano"><path d="M42.872.112a23.51 23.51 0 0 1 4.65 0 40.21 40.21 0 0 1 7.337.943A31.65 31.65 0 0 1 63.81 4.36c2.422 1.3 4.493 3.168 6.036 5.443a9.12 9.12 0 0 1 1.485 5.125 9.67 9.67 0 0 1-2.129 5.342 17.91 17.91 0 0 1-5.241 4.5c-2.691 1.504-5.586 2.609-8.595 3.278l-5.15.739-2.568.331q-.024 1.61 0 3.222c3.529.07 7.062-.023 10.59.045.121 1.084.031 2.194.045 3.289-3.544.023-7.093-.011-10.638.014-.016.535 0 1.066-.013 1.6q-2.434.019-4.874 0c-.016-.533 0-1.066-.013-1.6-3.546-.025-7.091.009-10.638-.014.013-1.1-.076-2.2.045-3.291 3.524-.072 7.06.038 10.588-.052.018-1.068.027-2.138-.005-3.2-2.537-.3-5.06-.723-7.6-1.064a28.8 28.8 0 0 1-7.219-2.523c-2.016-.961-3.875-2.223-5.512-3.743-.775-.82-1.469-1.714-2.071-2.669-1.297-2.085-1.643-4.625-.951-6.981a12.46 12.46 0 0 1 3.148-4.839 20.84 20.84 0 0 1 4.6-3.262 34.16 34.16 0 0 1 9.442-3.2 40.01 40.01 0 0 1 6.292-.728M24.372 7.898a13.99 13.99 0 0 0-2.72 3.267c-.808 1.363-1.11 2.967-.853 4.53a9.7 9.7 0 0 0 2.8 4.932c1.098 1.006 2.29 1.905 3.559 2.685 3.086 1.753 6.454 2.954 9.953 3.549.669.162 1.354.247 2.042.253-.261-.174-.532-.332-.813-.472a13.81 13.81 0 0 1-6.849-9.614 20.87 20.87 0 0 1-.143-3.594 13.15 13.15 0 0 1 3.334-7.881c.452-.542 1.019-.974 1.522-1.469.907-.758 1.894-1.414 2.944-1.957-.1 0-.3.013-.4.018-5.227.558-10.198 2.548-14.366 5.75m26.736-5.764c.43.311.949.466 1.388.764.883.551 1.701 1.199 2.44 1.932 2.216 2.109 3.637 4.917 4.023 7.951.09.964.118 1.933.083 2.9a13.4 13.4 0 0 1-2.454 6.759 13.61 13.61 0 0 1-2.711 2.9 17.7 17.7 0 0 1-2.889 1.864 33.81 33.81 0 0 0 10.436-2.953c1.783-.824 3.429-1.918 4.879-3.244a9.26 9.26 0 0 0 1.4-1.467 8.74 8.74 0 0 0 1.972-4.377 6.69 6.69 0 0 0-.542-3.152 11.73 11.73 0 0 0-2.042-3.072 13.97 13.97 0 0 0-2.21-1.912c-1.038-.75-2.14-1.407-3.293-1.965a31.5 31.5 0 0 0-8.638-2.743 9.22 9.22 0 0 0-1.843-.188M4.104 43.461a11.5 11.5 0 0 1 5.315-.452c1.01.099 1.988.402 2.877.891.016.819 0 1.637.005 2.456-1.174-.596-2.45-.965-3.761-1.088a5.9 5.9 0 0 0-4.1 1.014 2.92 2.92 0 0 0-.969 3.253 3.16 3.16 0 0 0 1.16 1.462c.862.584 1.869.917 2.909.963.589-.014 1.16-.2 1.746-.24 1.11-.243 2.198-.578 3.253-1 0 .777.04 1.558-.014 2.333a1.7 1.7 0 0 1-.584.316 12.7 12.7 0 0 1-3.4.838c-1.151.078-2.307.011-3.441-.2A6.6 6.6 0 0 1 .759 51.23a4.86 4.86 0 0 1-.34-4.576 6.37 6.37 0 0 1 3.686-3.19m15.387-.522c1.036-.102 2.082-.041 3.1.181a6.8 6.8 0 0 1 4.358 2.776 4.54 4.54 0 0 1 .781 2.591 4.87 4.87 0 0 1-1.733 3.766 7.59 7.59 0 0 1-4.541 1.955 12.71 12.71 0 0 1-3.195-.188c-2.129-.404-3.937-1.801-4.866-3.759a5.01 5.01 0 0 1 1.254-5.288c1.333-1.216 3.045-1.934 4.847-2.031m0 2.367c-1.343.131-2.493 1.017-2.962 2.282a3.45 3.45 0 0 0 .542 3c.882.912 2.106 1.413 3.374 1.381a5.08 5.08 0 0 0 2.974-1.025 3.4 3.4 0 0 0 1.039-2.212c.04-1.283-.68-2.468-1.836-3.025a5.42 5.42 0 0 0-3.132-.4m47.056-1.807a11.54 11.54 0 0 1 6.151-.361c.75.132 1.471.391 2.132.768l.005 2.456a9.43 9.43 0 0 0-5.553-1.03 4.48 4.48 0 0 0-2.8 1.458c-.787 1.005-.808 2.411-.052 3.439.604.749 1.44 1.277 2.376 1.5.628.206 1.295.262 1.948.164.632-.143 1.287-.181 1.917-.34.813-.24 1.578-.62 2.4-.826.027.777.022 1.556.009 2.335-1.179.594-2.454.973-3.766 1.12-.829.045-1.664.013-2.5.018a7.52 7.52 0 0 1-4.857-2.138 4.84 4.84 0 0 1-.426-6.334 6.87 6.87 0 0 1 3.012-2.23m15.36-.553a8.81 8.81 0 0 1 2.358.033c2.211.155 4.22 1.343 5.421 3.206a5.51 5.51 0 0 1 .665 2.537c-.084 1.254-.643 2.429-1.564 3.284-1.203 1.258-2.822 2.036-4.556 2.19-.669.031-1.337-.005-2 .013-.797-.011-1.587-.153-2.337-.421a7.94 7.94 0 0 1-2.568-1.545 4.72 4.72 0 0 1-1.626-3.755 5.3 5.3 0 0 1 2.812-4.444c1.037-.615 2.199-.991 3.4-1.1m.244 2.355c-1.167.127-2.212.781-2.837 1.775-.642 1.27-.391 2.809.622 3.808.859.702 1.935 1.085 3.045 1.084.992.002 1.962-.294 2.785-.849a3.21 3.21 0 0 0 .994-3.775 3.63 3.63 0 0 0-1.193-1.428 4.98 4.98 0 0 0-3.412-.618m-53.428-2.271c1.124-.023 2.25 0 3.376-.007 1.012-.034 2.024-.004 3.032.09 1.737.008 3.412.648 4.712 1.8a5.23 5.23 0 0 1 .249 7.156 7 7 0 0 1-3.764 1.861c-.983.16-1.981.212-2.976.155-1.543-.007-3.087.013-4.63-.007q-.022-5.524 0-11.047m3.153 2.123c.067 2.3-.056 4.594.031 6.887 1.298.115 2.605.023 3.874-.271a3.16 3.16 0 0 0 2.1-2.019 3.4 3.4 0 0 0-1.775-4.241c-1.373-.394-2.81-.516-4.23-.361m10.53-2.1c2.913-.08 5.83 0 8.745-.038.215.02.627-.06.611.271.03.609.027 1.219-.009 1.827-2.037.051-4.075-.005-6.113.027q-.027 1.111 0 2.221l5.75.014q.027.993 0 1.982c-1.912.056-3.826 0-5.739.022-.031.9-.02 1.807-.007 2.705l6.153.016a14.05 14.05 0 0 1 0 1.97q-4.706.027-9.411 0l-.009-9.811c-.015-.405-.004-.81.033-1.213m10.564.038c.219-.071.449-.097.678-.076.833.018 1.668-.011 2.5.016l.025 9.043c1.288-.047 2.579 0 3.869-.011.873.018 1.749-.069 2.62.031.023.66.022 1.321 0 1.982q-4.879.019-9.758 0l-.013-10.436a1.28 1.28 0 0 1 .076-.549z" fill="#bfbfbf"/></svg>