<svg xmlns="http://www.w3.org/2000/svg" width="90.354" height="54.24" viewBox="0 0 90.354 54.24">
  <path id="Trazado_39732" data-name="Trazado 39732" d="M42.874,434.5a23.512,23.512,0,0,1,4.65,0,40.211,40.211,0,0,1,7.337.943,31.651,31.651,0,0,1,8.951,3.305,17.026,17.026,0,0,1,6.036,5.443,9.119,9.119,0,0,1,1.485,5.125,9.669,9.669,0,0,1-2.129,5.342,17.911,17.911,0,0,1-5.241,4.5,31.737,31.737,0,0,1-8.595,3.278c-1.711.276-3.433.452-5.15.739-.855.116-1.706.28-2.568.331q-.024,1.61,0,3.222c3.529.07,7.062-.023,10.59.045.121,1.084.031,2.194.045,3.289-3.544.023-7.093-.011-10.638.014-.016.535,0,1.066-.013,1.6q-2.434.019-4.874,0c-.016-.533,0-1.066-.013-1.6-3.546-.025-7.091.009-10.638-.014.013-1.1-.076-2.2.045-3.291,3.524-.072,7.06.038,10.588-.052.018-1.068.027-2.138-.005-3.2-2.537-.3-5.06-.723-7.6-1.064a28.8,28.8,0,0,1-7.219-2.523,22.057,22.057,0,0,1-5.512-3.743,17.363,17.363,0,0,1-2.071-2.669,8.616,8.616,0,0,1-.951-6.981,12.46,12.46,0,0,1,3.148-4.839,20.838,20.838,0,0,1,4.6-3.262,34.16,34.16,0,0,1,9.442-3.2,40.009,40.009,0,0,1,6.292-.728m-18.492,7.776a13.988,13.988,0,0,0-2.72,3.267,6.744,6.744,0,0,0-.853,4.53,9.7,9.7,0,0,0,2.8,4.932A23.454,23.454,0,0,0,27.16,457.7a30.527,30.527,0,0,0,9.953,3.549,9.036,9.036,0,0,0,2.042.253,7.433,7.433,0,0,0-.813-.472,13.809,13.809,0,0,1-6.849-9.614,20.868,20.868,0,0,1-.143-3.594,13.151,13.151,0,0,1,3.334-7.881c.452-.542,1.019-.974,1.522-1.469a16.185,16.185,0,0,1,2.944-1.957c-.1,0-.3.013-.4.018a28.564,28.564,0,0,0-14.366,5.75m26.736-5.764c.43.311.949.466,1.388.764a13.985,13.985,0,0,1,2.44,1.932,13.294,13.294,0,0,1,4.023,7.951,22.466,22.466,0,0,1,.083,2.9,13.4,13.4,0,0,1-2.454,6.759,13.61,13.61,0,0,1-2.711,2.9A17.7,17.7,0,0,1,51,461.589a33.81,33.81,0,0,0,10.436-2.953,19.115,19.115,0,0,0,4.879-3.244,9.262,9.262,0,0,0,1.4-1.467,8.739,8.739,0,0,0,1.972-4.377,6.689,6.689,0,0,0-.542-3.152,11.728,11.728,0,0,0-2.042-3.072,13.968,13.968,0,0,0-2.21-1.912,21.916,21.916,0,0,0-3.293-1.965,31.5,31.5,0,0,0-8.638-2.743,9.22,9.22,0,0,0-1.843-.188M4.106,477.849a11.5,11.5,0,0,1,5.315-.452,7.475,7.475,0,0,1,2.877.891c.016.819,0,1.637.005,2.456a10.473,10.473,0,0,0-3.761-1.088,5.9,5.9,0,0,0-4.1,1.014,2.918,2.918,0,0,0-.969,3.253,3.161,3.161,0,0,0,1.16,1.462,5.634,5.634,0,0,0,2.909.963c.589-.014,1.16-.2,1.746-.24a20.667,20.667,0,0,0,3.253-1c0,.777.04,1.558-.014,2.333a1.7,1.7,0,0,1-.584.316,12.7,12.7,0,0,1-3.4.838,13.765,13.765,0,0,1-3.441-.2,6.6,6.6,0,0,1-4.341-2.777,4.862,4.862,0,0,1-.34-4.576,6.37,6.37,0,0,1,3.686-3.19m15.387-.522a9.954,9.954,0,0,1,3.1.181,6.8,6.8,0,0,1,4.358,2.776,4.54,4.54,0,0,1,.781,2.591A4.87,4.87,0,0,1,26,486.644a7.589,7.589,0,0,1-4.541,1.955,12.708,12.708,0,0,1-3.195-.188,6.786,6.786,0,0,1-4.866-3.759,5.011,5.011,0,0,1,1.254-5.288,7.817,7.817,0,0,1,4.847-2.031m0,2.367a3.524,3.524,0,0,0-2.962,2.282,3.449,3.449,0,0,0,.542,3,4.536,4.536,0,0,0,3.374,1.381,5.078,5.078,0,0,0,2.974-1.025,3.4,3.4,0,0,0,1.039-2.212,3.246,3.246,0,0,0-1.836-3.025,5.419,5.419,0,0,0-3.132-.4m47.056-1.807a11.541,11.541,0,0,1,6.151-.361,6.625,6.625,0,0,1,2.132.768c.014.813,0,1.637.005,2.456a9.429,9.429,0,0,0-5.553-1.03,4.482,4.482,0,0,0-2.8,1.458,2.844,2.844,0,0,0-.052,3.439,4.345,4.345,0,0,0,2.376,1.5,4.227,4.227,0,0,0,1.948.164c.632-.143,1.287-.181,1.917-.34.813-.24,1.578-.62,2.4-.826.027.777.022,1.556.009,2.335a11.117,11.117,0,0,1-3.766,1.12c-.829.045-1.664.013-2.5.018a7.518,7.518,0,0,1-4.857-2.138,4.84,4.84,0,0,1-.426-6.334,6.868,6.868,0,0,1,3.012-2.23m15.36-.553a8.808,8.808,0,0,1,2.358.033,7.034,7.034,0,0,1,5.421,3.206,5.509,5.509,0,0,1,.665,2.537A4.933,4.933,0,0,1,88.79,486.4a7.187,7.187,0,0,1-4.556,2.19c-.669.031-1.337-.005-2,.013a7.227,7.227,0,0,1-2.337-.421,7.938,7.938,0,0,1-2.568-1.545,4.722,4.722,0,0,1-1.626-3.755,5.3,5.3,0,0,1,2.812-4.444,8.094,8.094,0,0,1,3.4-1.1m.244,2.355a3.844,3.844,0,0,0-2.837,1.775,3.273,3.273,0,0,0,.622,3.808,4.807,4.807,0,0,0,3.045,1.084,4.965,4.965,0,0,0,2.785-.849,3.208,3.208,0,0,0,.994-3.775,3.628,3.628,0,0,0-1.193-1.428,4.978,4.978,0,0,0-3.412-.618m-53.428-2.271c1.124-.023,2.25,0,3.376-.007a23.915,23.915,0,0,1,3.032.09,7.154,7.154,0,0,1,4.712,1.8,5.23,5.23,0,0,1,.249,7.156,7,7,0,0,1-3.764,1.861,13.674,13.674,0,0,1-2.976.155c-1.543-.007-3.087.013-4.63-.007q-.022-5.524,0-11.047m3.153,2.123c.067,2.3-.056,4.594.031,6.887a12.333,12.333,0,0,0,3.874-.271,3.162,3.162,0,0,0,2.1-2.019,3.4,3.4,0,0,0-1.775-4.241,11.007,11.007,0,0,0-4.23-.361m10.53-2.1c2.913-.08,5.83,0,8.745-.038.215.02.627-.06.611.271a17.114,17.114,0,0,1-.009,1.827c-2.037.051-4.075-.005-6.113.027q-.027,1.111,0,2.221c1.916.027,3.833-.011,5.75.014q.027.993,0,1.982c-1.912.056-3.826,0-5.739.022-.031.9-.02,1.807-.007,2.705,2.049.025,4.1-.013,6.153.016a14.05,14.05,0,0,1,0,1.97q-4.706.027-9.411,0c-.02-3.269,0-6.54-.009-9.811a9.364,9.364,0,0,1,.033-1.213m10.564.038a1.706,1.706,0,0,1,.678-.076c.833.018,1.668-.011,2.5.016.033,3.012-.02,6.028.025,9.043,1.288-.047,2.579,0,3.869-.011.873.018,1.749-.069,2.62.031.023.66.022,1.321,0,1.982q-4.879.019-9.758,0c-.022-3.479.005-6.957-.013-10.436a1.279,1.279,0,0,1,.076-.549Z" transform="translate(-0.002 -434.388)" fill="#bfbfbf"/>
</svg>
