<svg xmlns="http://www.w3.org/2000/svg" width="62.646" height="52.512" viewBox="0 0 62.646 52.512">
  <g id="Grupo_13698" data-name="Grupo 13698" transform="translate(-4245.557 -5827.712)">
    <path id="Trazado_39709" data-name="Trazado 39709" d="M19.458,218.6a4.837,4.837,0,0,0,5.31,4.314h0L68.955,218.3a4.833,4.833,0,0,0,4.287-4.145l4.361-31.37a4.837,4.837,0,0,0-4.126-5.457l-.043-.005L20.46,170.473a4.837,4.837,0,0,0-5.43,5.292l4.427,42.842Z" transform="translate(4230.553 5657.28)" fill="#c5c5c5"/>
    <path id="Trazado_39710" data-name="Trazado 39710" d="M61.213,186.185a1.4,1.4,0,0,0-1.59.1l-2.637,2.3a.745.745,0,0,0,.071,1.228,11.09,11.09,0,0,1,4.073,8.935,12.271,12.271,0,0,1-4.289,9.117.789.789,0,0,0-.194,1.1.807.807,0,0,0,.157.166l2.62,2.259a1.42,1.42,0,0,0,1.595.112,15.438,15.438,0,0,0,6.143-12.735,15.241,15.241,0,0,0-5.951-12.585Z" transform="translate(4226.55 5655.78)" fill="#fff" fill-rule="evenodd"/>
    <path id="Trazado_39711" data-name="Trazado 39711" d="M35.007,200.439s-.735-.071-.735.525c0,3.364,2.495,5.761,6.415,5.761a8.264,8.264,0,0,0,5.908-2.026c.41-.31.848-.6,1.181-.233.232.249,3.318,3.113,3.318,3.113.388.361.281.8-.134,1.148s-5.027,3.953-10.331,3.953c-6.937,0-13.6-3.034-13.6-14.457,0-9.212,5.192-14.411,12.808-14.411,8.181,0,12.805,5.742,12.805,13.486v1.959a1.158,1.158,0,0,1-1.132,1.183H35.007Zm9.74-7.854a5.123,5.123,0,0,0-4.907-2.926,5.124,5.124,0,0,0-4.907,2.926,7.539,7.539,0,0,0-.679,3.032H45.426a7.539,7.539,0,0,0-.679-3.032" transform="translate(4229.393 5655.989)" fill="#fff" fill-rule="evenodd"/>
  </g>
</svg>
