<svg xmlns="http://www.w3.org/2000/svg" width="62.646" height="52.512" xmlns:v="https://vecta.io/nano"><path d="M4.454 48.168c.132 1.276.765 2.448 1.761 3.257s2.272 1.189 3.549 1.057h0l44.187-4.614c2.213-.23 3.982-1.941 4.287-4.145l4.361-31.37c.177-1.271-.159-2.56-.933-3.583s-1.923-1.697-3.193-1.874l-.043-.005L5.456.041C3.991-.148 2.52.343 1.462 1.374S-.125 3.863.026 5.333l4.427 42.842z" fill="#c5c5c5"/><path d="M42.206 14.253a1.4 1.4 0 0 0-1.59.1l-2.637 2.3c-.195.15-.303.387-.289.633s.149.468.36.595a11.09 11.09 0 0 1 4.073 8.935 12.27 12.27 0 0 1-4.289 9.117.79.79 0 0 0-.194 1.1c.044.062.097.118.157.166l2.62 2.259a1.42 1.42 0 0 0 1.595.112 15.44 15.44 0 0 0 6.143-12.735 15.24 15.24 0 0 0-5.951-12.585zM18.843 28.716s-.735-.071-.735.525c0 3.364 2.495 5.761 6.415 5.761a8.26 8.26 0 0 0 5.908-2.026c.41-.31.848-.6 1.181-.233.232.249 3.318 3.113 3.318 3.113.388.361.281.8-.134 1.148s-5.027 3.953-10.331 3.953c-6.937 0-13.6-3.034-13.6-14.457 0-9.212 5.192-14.411 12.808-14.411 8.181 0 12.805 5.742 12.805 13.486v1.959a1.16 1.16 0 0 1-1.132 1.183H18.843zm9.74-7.854a5.12 5.12 0 0 0-4.907-2.926c-2.078-.112-4.017 1.045-4.907 2.926a7.54 7.54 0 0 0-.679 3.032h11.172a7.54 7.54 0 0 0-.679-3.032" fill="#fff" fill-rule="evenodd"/></svg>