<svg xmlns="http://www.w3.org/2000/svg" width="62.645" height="60.371" viewBox="0 0 62.645 60.371">
  <g id="Grupo_13702" data-name="Grupo 13702" transform="translate(-4245.555 -5983.882)">
    <rect id="Rectángulo_2050" data-name="Rectángulo 2050" width="27.411" height="60.37" transform="translate(4245.555 5983.882)" fill="#c8c8c8"/>
    <rect id="Rectángulo_2051" data-name="Rectángulo 2051" width="34.172" height="60.37" transform="translate(4274.028 5983.882)" fill="#b5b5b5"/>
    <path id="Trazado_39761" data-name="Trazado 39761" d="M33.034,356.51v.978a1.19,1.19,0,0,0,0-.978" transform="translate(4228.814 5639.332)" fill="#fff"/>
    <path id="Trazado_39762" data-name="Trazado 39762" d="M35.133,350.463c.028-.009-.013-.137.114-.145a.339.339,0,0,1,.31.2c.025.125-.079.426.32.471a1.031,1.031,0,0,1-.009.126.629.629,0,0,1-.057.21.314.314,0,0,1,.071,0c.531.024.831-.017.982-.181a.846.846,0,0,0,.136-.192.938.938,0,0,0,.083-.732.231.231,0,0,0-.012-.041c-.011-.025-.023-.049-.033-.071a1.556,1.556,0,0,0-.813-.608.329.329,0,0,0-.079-.01s-.006,0-.006-.005.006-.005.017-.006h.083a1.235,1.235,0,0,1,.863.6.521.521,0,0,0,.19-.356.92.92,0,0,1,.061-.352.09.09,0,0,0-.13-.126.089.089,0,0,0-.024.051c-.07.146-.238.066-.168-.081a.09.09,0,0,0-.13-.125.087.087,0,0,0-.024.048c-.067.144-.229.064-.162-.078a.09.09,0,0,0-.006-.127.091.091,0,0,0-.128.006.1.1,0,0,0-.022.046c-.07.148-.237.065-.166-.081a.086.086,0,1,0-.155-.075.811.811,0,0,1-.141.223,1.723,1.723,0,0,1,.867.46,1.511,1.511,0,0,1,.1.117c.008.016.013.029.009.033s-.009,0-.01,0a.579.579,0,0,0-.1-.1,1.843,1.843,0,0,0-.922-.452c-.171.021-.121.211-.1.337a.424.424,0,0,0-.514.31.31.31,0,0,0-.008.04.539.539,0,0,0,.054.234.011.011,0,0,1,0,.014h0c-.011.006-.053-.027-.077-.09a.74.74,0,0,1-.037-.146c-.233.014-.452.138-.431.353a.4.4,0,0,0,.209.3m.827-.328c.06-.073.08.239.324.15-.174.211-.409-.005-.324-.149Zm-.019-.155c.09-.057.181-.244.321-.152a2.5,2.5,0,0,1,.206.159.622.622,0,0,1,.192.168c.043.085-.071.287-.2.107-.085-.134-.2-.377-.391-.282-.154.078-.258.188-.3.083-.01-.051.108-.05.169-.082Zm-.67.041c-.038.09-.166.09-.181.2C34.98,350.124,35.178,349.908,35.27,350.02Z" transform="translate(4228.631 5640.077)" fill="#fff"/>
    <path id="Trazado_39763" data-name="Trazado 39763" d="M41.2,361.464c-.163-.2-.594-.1-.594-.1a.638.638,0,0,0-.322-.843.691.691,0,0,0-.082-.03.554.554,0,0,0-.475.051h-.006l-.005,0a.465.465,0,0,0-.046.038.326.326,0,0,0-.09.229.331.331,0,0,0,.653.074.327.327,0,0,1,.123.156c.181.587-.477.8-.477.8a2.583,2.583,0,0,1-2.349-.314l.254-.138a.582.582,0,0,1,.231-.051.348.348,0,0,0,0,.043.287.287,0,0,0,.575,0,.273.273,0,0,0-.038-.143.235.235,0,0,0-.022-.031c-.171-.258-.76-.09-.76-.09a1.065,1.065,0,0,0,.021-.832c-.108-.181-.09-.244-.09-.244,0-.172-.042-.187-.042-.187a.214.214,0,0,0-.247-.056c-.238.051-.287-.045-.287-.045-.2-.138-.285-.054-.285-.054-.084.058.032.2.032.2-.209,0-.271.271-.271.271-.09.444.279.48.279.48.264.014.271-.2.271-.2.034-.205-.258-.216-.258-.216.051-.122.136-.119.136-.119.305-.075.452.271.452.271a.661.661,0,0,1-.072.752.078.078,0,0,1-.1.021,2.867,2.867,0,0,1-.421-.257l-.023-.014h-.1a.965.965,0,0,0-.319.069c.118.126.5.452.5.452-.289.225-.452.069-.452.069a.6.6,0,0,1-.084-.5l-.032.014c-.133.059-.271.112-.4.166.138.237.353.595.353.595-.333.122-.406-.324-.419-.568l-.2.074a.374.374,0,0,1,.017.095,1.327,1.327,0,0,0,.246.542.425.425,0,0,0-.383.1.408.408,0,0,0-.139.371.169.169,0,1,0,.175-.181c.075-.181.25-.036.25-.036.258.232-.146.492-.146.492-.287.192-.563-.175-.563-.175a2.17,2.17,0,0,0,.35-1.148c-.1.037-.208.07-.315.1a.728.728,0,0,1-.193.763c-.1-.067-.11-.327-.11-.327a3.013,3.013,0,0,0-.1-.317c-.09.025-.181.05-.271.072a4.161,4.161,0,0,1,.145.751c-.052.063-.216.079-.216.079-.238.022-.114-.111-.114-.111.117-.1.09-.173.09-.173-.07-.163-.33-.012-.33-.012-.346.192-.242.4-.242.4.042.125.393.247.393.247a.888.888,0,0,1-.6.075.245.245,0,0,0-.181-.209l-.023-.005a.223.223,0,0,0-.226.09.26.26,0,0,0-.04.075l-.213-.044c-.15-.023-.235-.452-.281-.821l-.181.022c.056.4.13.75.13.75a1.769,1.769,0,0,1-.387-.218.875.875,0,0,0-.669-.158.419.419,0,1,0,.493.425,3.08,3.08,0,0,1,.285.154,1.6,1.6,0,0,0,.824.279.3.3,0,0,0,.3.247.3.3,0,0,0,.266-.159,1.5,1.5,0,0,0,1.1-.388c.084-.111.1-.046.1-.046.3.426.865.166.865.166.11-.053.134.018.134.018a.218.218,0,0,0,.292.09c.227-.117.09-.258.09-.258-.076-.079.015-.075.015-.075.271.039.321-.116.321-.116.054-.122-.136-.226-.136-.226-.054-.068.049-.122.049-.122.159-.09.135-.181.135-.181.2,0,.181-.09.181-.09,0-.08-.247-.076-.247-.076-.2-.021-.154-.121-.154-.121a4,4,0,0,0,.735-.141,3.672,3.672,0,0,0,1.607.652.672.672,0,0,1-.02.244H38.8a.152.152,0,0,0,0,.3.235.235,0,0,0,.044-.006c.307-.083.332-.535.332-.535a1.9,1.9,0,0,0,1.473-.576c.09-.073.129-.051.148-.027a.251.251,0,0,0,.353.035.239.239,0,0,0,.046-.05.326.326,0,0,0,.044-.141v-.006a.253.253,0,0,0-.041-.163" transform="translate(4228.986 5639.027)" fill="#fff"/>
    <path id="Trazado_39764" data-name="Trazado 39764" d="M30.484,362.848a.2.2,0,0,0,.1-.137.381.381,0,0,0-.162-.35l-.313.006-.313-.006a.384.384,0,0,0-.162.35.2.2,0,0,0,.1.137s-.222.09-.225.247c0,0-.025.114.17.271a1.1,1.1,0,0,1,.181.281s.013.17.247.17.246-.17.246-.17a1.123,1.123,0,0,1,.181-.281c.2-.158.171-.271.171-.271,0-.153-.221-.247-.221-.247" transform="translate(4229.154 5638.768)" fill="#fff"/>
    <path id="Trazado_39765" data-name="Trazado 39765" d="M32.4,361.809l.114-.013-.074-.135Z" transform="translate(4228.875 5638.835)" fill="#fff"/>
    <path id="Trazado_39766" data-name="Trazado 39766" d="M28.112,361.819l.116.011-.044-.145Z" transform="translate(4229.289 5638.833)" fill="#fff"/>
    <path id="Trazado_39767" data-name="Trazado 39767" d="M27.607,361.479h-.018l-.023.181a.292.292,0,0,0,.08,0,.062.062,0,0,0,.037-.024.1.1,0,0,0,.018-.052.091.091,0,0,0-.014-.071.123.123,0,0,0-.08-.033" transform="translate(4229.341 5638.853)" fill="#fff"/>
    <path id="Trazado_39768" data-name="Trazado 39768" d="M29.443,361.63a.1.1,0,0,0-.09.044.413.413,0,0,0-.011.3.09.09,0,0,0,.084.052.109.109,0,0,0,.09-.04.287.287,0,0,0,.036-.154.3.3,0,0,0-.023-.152.1.1,0,0,0-.086-.054" transform="translate(4229.172 5638.838)" fill="#fff"/>
    <path id="Trazado_39769" data-name="Trazado 39769" d="M31.051,361.626a.1.1,0,0,0-.09.051.3.3,0,0,0-.023.148.31.31,0,0,0,.036.155.1.1,0,0,0,.09.046.106.106,0,0,0,.09-.049.261.261,0,0,0,.024-.155.313.313,0,0,0-.033-.151.1.1,0,0,0-.095-.046" transform="translate(4229.016 5638.838)" fill="#fff"/>
    <path id="Trazado_39770" data-name="Trazado 39770" d="M26.674,361.61l.114.02-.033-.149Z" transform="translate(4229.427 5638.853)" fill="#fff"/>
    <path id="Trazado_39771" data-name="Trazado 39771" d="M24.219,360.653l-.064.173.023.008c.035.013.06.014.077,0a.114.114,0,0,0,.04-.054.137.137,0,0,0,.008-.061.067.067,0,0,0-.023-.039.218.218,0,0,0-.061-.028" transform="translate(4229.67 5638.932)" fill="#fff"/>
    <path id="Trazado_39772" data-name="Trazado 39772" d="M24.821,360.86a.1.1,0,0,0-.1.019.28.28,0,0,0-.072.131.318.318,0,0,0-.02.159.1.1,0,0,0,.07.072.1.1,0,0,0,.1-.016.274.274,0,0,0,.075-.138.3.3,0,0,0,.018-.151.1.1,0,0,0-.07-.076" transform="translate(4229.625 5638.913)" fill="#fff"/>
    <path id="Trazado_39773" data-name="Trazado 39773" d="M25.429,361.041h-.018l-.047.173a.273.273,0,0,0,.08.014.093.093,0,0,0,.037-.017.13.13,0,0,0,.026-.052.081.081,0,0,0,0-.072.126.126,0,0,0-.074-.045" transform="translate(4229.554 5638.895)" fill="#fff"/>
    <path id="Trazado_39774" data-name="Trazado 39774" d="M35.03,361.048a.131.131,0,0,0-.083,0l-.017.006.048.172a.252.252,0,0,0,.075-.029.064.064,0,0,0,.023-.035.117.117,0,0,0,0-.056.091.091,0,0,0-.045-.058" transform="translate(4228.631 5638.895)" fill="#fff"/>
    <path id="Trazado_39775" data-name="Trazado 39775" d="M36.108,360.974l.107-.041-.1-.111Z" transform="translate(4228.517 5638.916)" fill="#fff"/>
    <path id="Trazado_39776" data-name="Trazado 39776" d="M35.285,360.321a.265.265,0,0,0-.162-.049.325.325,0,0,0-.11.019,16.711,16.711,0,0,1-11.07,0,.323.323,0,0,0-.109-.019.275.275,0,0,0-.161.049l-.679.534a1.2,1.2,0,0,1,.426.107,17.022,17.022,0,0,0,12.114,0,1.205,1.205,0,0,1,.426-.107Zm-6.459.994.141.006-.166.1h-.03Zm-4.518-.526a.118.118,0,0,1-.053.065.138.138,0,0,1-.082.016.507.507,0,0,1-.11-.029l-.033-.011-.04.1a.067.067,0,0,0,0,.046.061.061,0,0,0,.039.028h.01l-.014.035-.241-.09.013-.036H23.8a.063.063,0,0,0,.048.005.07.07,0,0,0,.024-.041l.1-.263a.071.071,0,0,0,.005-.045.066.066,0,0,0-.037-.027l-.013,0,.014-.035.181.061c.045.017.08.032.1.043a.162.162,0,0,1,.061.043.146.146,0,0,1,.031.061.127.127,0,0,1-.009.07Zm.548.29a.233.233,0,0,1-.119.142.256.256,0,0,1-.206.011.307.307,0,0,1-.129-.078.216.216,0,0,1-.06-.117.284.284,0,0,1,.01-.12.243.243,0,0,1,.19-.165.319.319,0,0,1,.134.013.26.26,0,0,1,.164.126.252.252,0,0,1,.016.19Zm.479.234a.323.323,0,0,0,.035.09.061.061,0,0,0,.034.023l-.01.037-.143-.039a.911.911,0,0,1-.041-.136.738.738,0,0,0-.021-.072.055.055,0,0,0-.017-.023.158.158,0,0,0-.048-.016l-.03.107a.083.083,0,0,0,0,.047.053.053,0,0,0,.041.023h.008l-.01.038-.245-.066.01-.038h.009a.064.064,0,0,0,.046,0,.06.06,0,0,0,.023-.04l.072-.271a.073.073,0,0,0,0-.048c0-.01-.018-.016-.041-.023H25l.009-.038.181.05.042.01c.041.012.069.019.09.027a.211.211,0,0,1,.05.034.114.114,0,0,1,.033.115.116.116,0,0,1-.122.09.475.475,0,0,1,.052.118Zm.774.311-.421-.09.007-.037H25.7a.069.069,0,0,0,.048,0,.075.075,0,0,0,.02-.043l.058-.271a.07.07,0,0,0,0-.047c-.006-.011-.02-.017-.043-.023H25.78l.008-.036.247.052-.008.036h-.057a.06.06,0,0,0-.02.041l-.056.264a.16.16,0,0,0,0,.042.029.029,0,0,0,.014.017.119.119,0,0,0,.05.019.123.123,0,0,0,.1-.012.161.161,0,0,0,.059-.073l.036.009Zm.52.09-.232-.042.009-.038a.068.068,0,0,0,.038,0,.021.021,0,0,0,.011-.013.056.056,0,0,0,0-.024v-.01l-.006-.036-.142-.028-.014.023a.141.141,0,0,0-.017.033.03.03,0,0,0,.008.024.075.075,0,0,0,.036.013l-.008.039-.154-.028.008-.039c.028.007.058-.014.086-.062l.208-.333.042.007.08.388a.145.145,0,0,0,.028.071.073.073,0,0,0,.033.016Zm.8.113-.147-.021a1.132,1.132,0,0,1-.058-.131.453.453,0,0,0-.03-.068.037.037,0,0,0-.021-.02.13.13,0,0,0-.049-.013l-.014.111a.077.077,0,0,0,0,.045c.005.011.021.017.044.022h.009l-.007.037-.252-.033v-.04h.01a.063.063,0,0,0,.048-.006.069.069,0,0,0,.018-.042l.035-.277a.077.077,0,0,0,0-.045c-.006-.011-.021-.017-.045-.02h-.008v-.039l.189.024.042.005a.613.613,0,0,1,.09.017.175.175,0,0,1,.052.027.115.115,0,0,1,.046.109.117.117,0,0,1-.11.1.417.417,0,0,1,.065.109.418.418,0,0,0,.05.09.055.055,0,0,0,.036.017Zm.52.051-.233-.023v-.038a.09.09,0,0,0,.038,0,.02.02,0,0,0,.011-.014.052.052,0,0,0,0-.023v-.011l-.01-.036-.144-.014-.014.021a.267.267,0,0,0-.012.035.026.026,0,0,0,.01.023.076.076,0,0,0,.037.01v.039l-.156-.014v-.039c.03,0,.058-.019.083-.068l.181-.351h.041l.11.381a.153.153,0,0,0,.032.07.077.077,0,0,0,.033.014Zm.509-.4-.3.379.109.008a.214.214,0,0,0,.068,0,.1.1,0,0,0,.041-.028.165.165,0,0,0,.033-.059h.039l-.018.141L28,361.884v-.03l.293-.381-.076-.006a.2.2,0,0,0-.1.009.128.128,0,0,0-.045.065h-.036l.016-.125.4.03Zm.563.4a.266.266,0,0,1-.2.062.3.3,0,0,1-.146-.041.213.213,0,0,1-.09-.1.274.274,0,0,1-.023-.117.251.251,0,0,1,.04-.124.2.2,0,0,1,.1-.086.3.3,0,0,1,.13-.026.274.274,0,0,1,.194.08.251.251,0,0,1-.014.349Zm.693-.366a.09.09,0,0,0-.034.008.056.056,0,0,0-.022.026.187.187,0,0,0,0,.045v.361h-.043l-.305-.346v.216c0,.035.005.058.019.068a.075.075,0,0,0,.048.014v.038h-.181v-.038a.08.08,0,0,0,.041-.01.052.052,0,0,0,.021-.027.132.132,0,0,0,0-.046v-.24c0-.05-.021-.073-.067-.073v-.041h.16l.258.29v-.173c0-.051-.022-.078-.064-.078v-.039H29.7Zm.788.348a.27.27,0,0,1-.189.08.3.3,0,0,1-.149-.03.2.2,0,0,1-.095-.09.3.3,0,0,1-.033-.117.242.242,0,0,1,.032-.125.208.208,0,0,1,.09-.09.275.275,0,0,1,.13-.035.263.263,0,0,1,.2.064.238.238,0,0,1,.077.174.228.228,0,0,1-.062.173Zm.4.037v-.039H30.9a.065.065,0,0,0,.046-.015.087.087,0,0,0,.006-.048l-.024-.278a.076.076,0,0,0-.014-.043.064.064,0,0,0-.046-.01h-.008v-.039l.252-.023v.039h-.01a.055.055,0,0,0-.045.016.1.1,0,0,0-.006.046l.023.271a.119.119,0,0,0,.007.04.024.024,0,0,0,.02.014.1.1,0,0,0,.052,0,.126.126,0,0,0,.09-.039.181.181,0,0,0,.033-.09h.038l.011.157Zm.723-.07v-.038a.063.063,0,0,0,.038-.012.017.017,0,0,0,.005-.015.077.077,0,0,0-.008-.02l-.006-.012-.018-.032-.145.015,0,.023a.159.159,0,0,0-.006.036.025.025,0,0,0,.014.023.067.067,0,0,0,.038,0l0,.037-.155.019-.005-.038c.03-.005.052-.032.065-.085l.1-.381h.04l.191.347a.19.19,0,0,0,.045.061.094.094,0,0,0,.035.006l0,.038Zm.813-.466a.169.169,0,0,0-.03-.049.065.065,0,0,0-.033-.021.1.1,0,0,0-.045,0l-.076.012.024.162.039-.006a.052.052,0,0,0,.035-.017.086.086,0,0,0,0-.048l.039-.006.025.16-.038.006a.076.076,0,0,0-.02-.047.046.046,0,0,0-.041-.005l-.036.005.02.126a.094.094,0,0,0,.019.043.058.058,0,0,0,.049,0h.009l.005.038-.251.042-.005-.039h.007a.051.051,0,0,0,.042-.019.077.077,0,0,0,0-.045l-.043-.278a.062.062,0,0,0-.019-.042.059.059,0,0,0-.046-.006h-.009l-.006-.037.391-.062.023.124Zm.548-.117.031.155a.418.418,0,0,1,.01.082.146.146,0,0,1-.019.067.133.133,0,0,1-.057.059.235.235,0,0,1-.09.038.258.258,0,0,1-.1,0,.146.146,0,0,1-.075-.032.164.164,0,0,1-.041-.052.253.253,0,0,1-.023-.071l-.037-.185a.063.063,0,0,0-.02-.042.084.084,0,0,0-.052,0l-.008-.038.246-.049.007.039h-.009a.044.044,0,0,0-.042.067l.034.181a.29.29,0,0,0,.023.077.1.1,0,0,0,.115.048.1.1,0,0,0,.068-.034.09.09,0,0,0,.029-.061.338.338,0,0,0-.006-.09l-.03-.155a.064.064,0,0,0-.067-.061.053.053,0,0,0-.017,0l-.008-.038.173-.033.008.038a.078.078,0,0,0-.032.014.049.049,0,0,0-.016.028.115.115,0,0,0,0,.05Zm.214.323-.009-.038H33.2c.023-.006.036-.013.042-.023a.07.07,0,0,0,0-.047l-.064-.271a.06.06,0,0,0-.023-.041.067.067,0,0,0-.046,0H33.1l-.008-.038.392-.09.035.117-.038.009a.2.2,0,0,0-.033-.045.073.073,0,0,0-.032-.017.119.119,0,0,0-.043,0l-.09.02.036.159.042-.01a.065.065,0,0,0,.039-.02.075.075,0,0,0,0-.049l.038-.009.037.156-.039.008v-.006a.074.074,0,0,0-.016-.033c-.008-.011-.023-.013-.048-.007l-.043.01.026.114a.154.154,0,0,0,.014.041.03.03,0,0,0,.023.012.177.177,0,0,0,.053,0,.235.235,0,0,0,.062-.026.133.133,0,0,0,.03-.05.232.232,0,0,0,.009-.066l.038-.01.033.153Zm.877-.222a1.09,1.09,0,0,1-.1-.1.731.731,0,0,0-.054-.051.075.075,0,0,0-.026-.012.233.233,0,0,0-.05.011l.031.108a.063.063,0,0,0,.022.04.06.06,0,0,0,.048,0h.007l.011.038-.247.068-.008-.038h.008c.023-.006.036-.014.041-.025a.067.067,0,0,0,0-.046l-.076-.271a.064.064,0,0,0-.023-.042.053.053,0,0,0-.047,0H33.6l-.011-.037.181-.051.042-.011a.763.763,0,0,1,.09-.021.153.153,0,0,1,.061,0,.113.113,0,0,1,.056.03.129.129,0,0,1,.03.052.118.118,0,0,1-.061.137.405.405,0,0,1,.1.076.436.436,0,0,0,.08.061.051.051,0,0,0,.04,0l.009.038Zm.222-.066-.009-.029.128-.464-.074.023a.223.223,0,0,0-.09.044.1.1,0,0,0-.017.079l-.037.014-.032-.124.379-.123.008.031-.128.464.1-.035a.2.2,0,0,0,.061-.027.094.094,0,0,0,.028-.042.182.182,0,0,0,.009-.066l.038-.012.037.136Zm.71-.244L34.991,361a.111.111,0,0,0,.035-.019.023.023,0,0,0,0-.019s-.005-.01-.013-.017l-.007-.009-.027-.027-.135.05v.026a.115.115,0,0,0,0,.035.027.027,0,0,0,.019.02.092.092,0,0,0,.038-.008l.014.036-.145.055-.014-.035c.027-.012.042-.045.042-.1l.006-.394.04-.014.271.289a.131.131,0,0,0,.06.049.082.082,0,0,0,.036,0l.014.036Z" transform="translate(4229.782 5638.969)" fill="#fff"/>
    <path id="Trazado_39777" data-name="Trazado 39777" d="M27.776,353.023a2.522,2.522,0,0,1-.265-.157l-.247.157Z" transform="translate(4229.37 5639.683)" fill="#fff"/>
    <path id="Trazado_39778" data-name="Trazado 39778" d="M29.134,352.909c-.045.02-.137.059-.211.1l-.031.013h2.136l-.03-.013c-.076-.04-.168-.079-.211-.1l-.027-.013a2.267,2.267,0,0,0-.278-.09H29.437a2.267,2.267,0,0,0-.278.09c-.006,0-.014,0-.024.013" transform="translate(4229.213 5639.689)" fill="#fff"/>
    <path id="Trazado_39779" data-name="Trazado 39779" d="M32.689,352.868l-.005,0a1.729,1.729,0,0,1-.22.151h.452c-.08-.055-.16-.108-.211-.147l-.015-.008" transform="translate(4228.869 5639.683)" fill="#fff"/>
    <path id="Trazado_39780" data-name="Trazado 39780" d="M27.216,357.473v-1.106a1.37,1.37,0,0,0,0,1.106" transform="translate(4229.386 5639.346)" fill="#fff"/>
    <path id="Trazado_39781" data-name="Trazado 39781" d="M29.856,355.468l-2.048-.657h1.6Z" transform="translate(4229.318 5639.496)" fill="#fff"/>
    <path id="Trazado_39782" data-name="Trazado 39782" d="M29.772,353.2H27.05v0a.1.1,0,0,0,.03.071c.039.046.076.093.11.143h2.519Z" transform="translate(4229.391 5639.651)" fill="#fff"/>
    <path id="Trazado_39783" data-name="Trazado 39783" d="M29.687,353.6H27.305c.038.065.079.137.117.218h2.2Z" transform="translate(4229.366 5639.612)" fill="#fff"/>
    <path id="Trazado_39784" data-name="Trazado 39784" d="M29.6,354H27.5c.029.072.053.145.075.22h1.949Z" transform="translate(4229.347 5639.574)" fill="#fff"/>
    <path id="Trazado_39785" data-name="Trazado 39785" d="M29.5,354.412H27.622a1.629,1.629,0,0,1,.033.22h1.775Z" transform="translate(4229.336 5639.534)" fill="#fff"/>
    <path id="Trazado_39786" data-name="Trazado 39786" d="M28.3,355.216h-.646a1.62,1.62,0,0,1-.045.219H28.6Z" transform="translate(4229.337 5639.457)" fill="#fff"/>
    <path id="Trazado_39787" data-name="Trazado 39787" d="M28.106,355.033l-.305-.22h-.13v.02a1.064,1.064,0,0,1,.005.2Z" transform="translate(4229.331 5639.496)" fill="#fff"/>
    <path id="Trazado_39788" data-name="Trazado 39788" d="M30.083,353.2l-.01-.032v2.142l2.047-.658h-1.6l-.042-.141h1.8a1.993,1.993,0,0,1,.039-.22H30.413l-.045-.146H32.36c.025-.077.052-.151.081-.22H30.3l-.044-.145h2.251c.04-.08.08-.153.119-.219h-2.44l-.045-.145h2.575a2.126,2.126,0,0,1,.145-.192.079.079,0,0,0,.016-.028Z" transform="translate(4229.099 5639.654)" fill="#fff"/>
    <path id="Trazado_39789" data-name="Trazado 39789" d="M30.617,356.831v1.64a1.227,1.227,0,0,1,.219-.114V357Z" transform="translate(4229.047 5639.301)" fill="#fff"/>
    <path id="Trazado_39790" data-name="Trazado 39790" d="M30.207,356.518v2.373l.081-.134.012-.019a.809.809,0,0,1,.126-.172v-1.881Z" transform="translate(4229.086 5639.331)" fill="#fff"/>
    <path id="Trazado_39791" data-name="Trazado 39791" d="M29.8,356.6v1.906a.829.829,0,0,1,.181.22l.009.017c.008.012.02.03.032.051v-2.361Z" transform="translate(4229.125 5639.339)" fill="#fff"/>
    <path id="Trazado_39792" data-name="Trazado 39792" d="M29.4,356.909v1.422a1.241,1.241,0,0,1,.219.1v-1.691Z" transform="translate(4229.164 5639.309)" fill="#fff"/>
    <path id="Trazado_39793" data-name="Trazado 39793" d="M31.021,358.335a1.783,1.783,0,0,1,.219-.05V357.3l-.219-.167Z" transform="translate(4229.008 5639.271)" fill="#fff"/>
    <path id="Trazado_39794" data-name="Trazado 39794" d="M29,358.27c.066.011.141.024.219.045V357.05l-.219.166Z" transform="translate(4229.203 5639.28)" fill="#fff"/>
    <path id="Trazado_39795" data-name="Trazado 39795" d="M29.815,355.536l-.748.271-.28-.2H27.548c-.023.07-.05.143-.082.22-.025.055-.051.11-.079.167v1.621a1.142,1.142,0,0,0,.217.2v-1.988h.146v2.078a1.471,1.471,0,0,0,.219.1v-2.175h.144v2.219a1.8,1.8,0,0,0,.22.039v-2.259h.146V358.1h.09c.018,0,.064,0,.126.005v-.927l-.127.1Zm-1.117.294h.145v.642l-.145.428Z" transform="translate(4229.358 5639.426)" fill="#fff"/>
    <path id="Trazado_39796" data-name="Trazado 39796" d="M32.435,355.83h0c-.033-.078-.061-.151-.083-.22H31.1l-.279.2-.542-.2-.2-.074,1.219,1.722v.853c.085-.007.148-.008.169-.008h.05v-2.271h.146v2.259a1.8,1.8,0,0,0,.219-.033v-2.231h.145v2.191a1.369,1.369,0,0,0,.22-.09v-2.1h.145v2.021a1.371,1.371,0,0,0,.2-.165l.016-.024v-1.5a3.27,3.27,0,0,1-.173-.33M31.292,357.2l-.145-.426v-.946h.145Z" transform="translate(4229.099 5639.426)" fill="#fff"/>
    <path id="Trazado_39797" data-name="Trazado 39797" d="M31.432,355.435h1.01a1.985,1.985,0,0,1-.042-.219h-.66Z" transform="translate(4228.968 5639.457)" fill="#fff"/>
    <path id="Trazado_39798" data-name="Trazado 39798" d="M32.3,354.813l-.305.22h.452a1.087,1.087,0,0,1,.009-.154v-.067Z" transform="translate(4228.914 5639.496)" fill="#fff"/>
    <path id="Trazado_39799" data-name="Trazado 39799" d="M32.882,349.676a1.009,1.009,0,0,0,.181-.009.855.855,0,0,0,.6-1.049l-.006-.021c0,.007-.007.005-.01-.008a.847.847,0,0,1-.057.146c-.042.09-.1.14-.112.134a.014.014,0,0,1,0-.02.817.817,0,0,0,.067-.723.779.779,0,0,0-.263-.361,1.34,1.34,0,0,0-1.406.009,1.288,1.288,0,0,0-.488-.3,1.319,1.319,0,0,1-.482.632.7.7,0,0,1-.2.106s-.048-.009-.006-.047a.988.988,0,0,0,.548-.848v-.006a1.2,1.2,0,0,0-.266-.723,1.4,1.4,0,0,0-1.638-.069.874.874,0,0,0-.213.422.493.493,0,0,1,.333-.312c.181-.056.528-.017.58.192-.308-.315-.867-.082-.944.452-.007.035-.026.038-.026.038-.017,0-.037,0-.029-.243a1.481,1.481,0,0,1,.12-.49,1.19,1.19,0,0,0-1.459.838,1.174,1.174,0,0,0-.038.4.709.709,0,0,0,.193.43c.025.029.006.041.006.041-.02.011-.107-.047-.157-.116a.992.992,0,0,1-.157-.337,2.031,2.031,0,0,0-.944-.135,1.239,1.239,0,0,0-.7.4,1.756,1.756,0,0,0-.156.248,1.174,1.174,0,0,0,.4,1.506,1.875,1.875,0,0,0,1.084.162.813.813,0,0,0,.311-.129l.04-.029.019-.014a.761.761,0,0,0,.244-.632.014.014,0,0,1,.013-.016c.017,0,.041.074.04.169a1.049,1.049,0,0,1-.07.344v.053a.255.255,0,0,0,.046.109.4.4,0,0,0,.411.052H28.3a.317.317,0,0,1-.281.124.509.509,0,0,1-.111-.012.765.765,0,0,0,.679.271s.015.005.015.011a.306.306,0,0,1-.169.043.977.977,0,0,1-.417-.09,1.189,1.189,0,0,0,.791.378c.012.048-.31.01-.4-.022.189.742.586.658.595.707a.233.233,0,0,0-.139.3.242.242,0,0,0,.022.043,2.2,2.2,0,0,1,1.682.008.2.2,0,0,0,.024-.193c-.065-.181-.632-.329-1.175-.173a.348.348,0,0,0-.07.038h-.007a.025.025,0,0,1,.007-.015.53.53,0,0,1,.071-.045,1.307,1.307,0,0,1,.986-.038.272.272,0,0,0,.352-.152.275.275,0,0,0,.009-.173.27.27,0,0,0,.3-.233.154.154,0,0,0,0-.028.685.685,0,0,1-.09.042.181.181,0,0,1-.124.024v-.009h.005c.025-.012.05-.023.071-.035a.829.829,0,0,0,.434-.643.254.254,0,0,1-.22.117c-.05,0-.079-.006-.079-.014s0-.01.009-.01a.233.233,0,0,0,.1-.043.861.861,0,0,0,.259-.343,1.694,1.694,0,0,1-.375-.694.337.337,0,0,0-.271-.23h-.057a.409.409,0,0,0-.048.009h-.009c.148-.124.312.01.409.065.015-.271.115-.345.123-.342a.007.007,0,0,1,0,.013,1.139,1.139,0,0,0,.48,1.271,1.5,1.5,0,0,0,1.58-.16,1.02,1.02,0,0,1-.256.041c-.1,0-.169-.02-.17-.038s.024-.02.029-.019m-6.393-.033c.252-.063.473-.2.408-.436a.181.181,0,0,0-.172-.13.348.348,0,0,0-.307.2.328.328,0,0,1,.379-.34.377.377,0,0,1,.3.248c.069.351-.251.5-.611.464Zm.895-.249c.106-.29.16-.73-.3-.844a.987.987,0,0,0-.845.327.765.765,0,0,1,.939-.47c-.1-.271-.452-.39-.862-.163a1.368,1.368,0,0,0-.239.181.722.722,0,0,1,.441-.432.78.78,0,0,1,.79.167.879.879,0,0,1,.075,1.233Zm2.349,1.508c-.209.007-.234-.143-.271-.3.09.074.22.173.211.005-.076-.068-.548-.19-.423-.395.078-.111.329.339.4.188.042-.3-.9-.4-.872-.658,0-.14.743.361.848.349-.01-.161-1.1-.6-1.432-1.2-.024-.042-.037-.081-.029-.09h.01a2.562,2.562,0,0,0,1.405.94c.221.07.333.8.149,1.16Zm.247.181c-.07-.021-.03-.146-.03-.2a3.2,3.2,0,0,0-.09-.874,5.191,5.191,0,0,0-.417-1.066,3.241,3.241,0,0,1,.582,1.265,1.562,1.562,0,0,1-.048.88Zm.341-1.863c.2.082-.1.483-.125.558.046-.022.207-.194.271-.142.1.086-.211.5-.294.527-.445-.576.122-.745.144-.94Zm-.053,1.693c-.061-.028-.064-.146-.055-.2.023-.147.193-.214.271-.293a.726.726,0,0,1-.219.5Zm-.055-.411c-.085-.15.143-.339.194-.487.272-.039-.076.448-.2.488Zm.25-3.957a.6.6,0,0,1,.473.446c.014.229-.114.3-.136.286-.007,0-.01-.018-.007-.026a.568.568,0,0,0-.08-.535.983.983,0,0,0-.252-.168ZM32.79,348.8h-.009s-.005-.005-.005-.009a1,1,0,0,1,.01-.1.741.741,0,0,0-.013-.264c-.1-.446-.472-.6-.736-.34a.777.777,0,0,1,.93-.339.632.632,0,0,1,.368.376.534.534,0,0,1-.008.452h-.01v-.01a.788.788,0,0,0-.069-.407.4.4,0,0,0-.211-.229,1.387,1.387,0,0,1,.141.239.432.432,0,0,1,.042.187.757.757,0,0,1-.181.51h-.011v-.01a.773.773,0,0,0,.024-.643.5.5,0,0,0-.029-.059.469.469,0,0,0-.4-.286.678.678,0,0,1,.224.282.6.6,0,0,1-.062.658Z" transform="translate(4229.529 5640.317)" fill="#fff"/>
    <path id="Trazado_39800" data-name="Trazado 39800" d="M38.284,354.693a13.014,13.014,0,0,0-.4-2.891c-.158-.542-.464-1.641-1.175-1.793a.506.506,0,0,0-.576.426.557.557,0,0,0-.005.095c0,.24.173.361.1.6a2.057,2.057,0,0,0-.222.5c-.042.173.111.243.061.427-.215-.032-.331.148-.649.083a1.039,1.039,0,0,1-.59.06s.008-.01.014-.008c.319-.009.609-.114.668-.255a.663.663,0,0,0-.133-.652,1.667,1.667,0,0,1-.911.157c-.524-.032-.655.067-.729.385a.22.22,0,0,1-.026-.151c.02-.173.194-.282.407-.3a.385.385,0,0,0,.05-.219.892.892,0,0,0-.259.009.867.867,0,0,0-.681.43.4.4,0,0,0-.018.13.57.57,0,0,0,.018.111c.008.027.02.053.026.08.08.172.277.271.7.288.007,0,.019.006.018.014a.366.366,0,0,1-.194.022.841.841,0,0,1-.564-.2l-.032.036a.8.8,0,0,1-.473.223.631.631,0,0,1-.475-.216c-.253-.34.074-.928.07-1.146-.015-.586-.813-.322-1.1-.169a2.872,2.872,0,0,0-.857.766,2.613,2.613,0,0,0-.338.508,1.842,1.842,0,0,0,.632.181h.013a.623.623,0,0,0,.081,0,.813.813,0,0,0,.513-.161.3.3,0,0,1,.185-.069.286.286,0,0,1,.2.083c.042.034.542.435.708.542a.188.188,0,0,1,.079.127.213.213,0,0,1-.062.176,2.864,2.864,0,0,0-.452.74,1.8,1.8,0,0,0-.066.181c-.061.214-.1.555.194.66,0,0,.33.086.3-.459,0,0,.052.35.309.338.108,0,.206-.113.188-.349a3,3,0,0,1,.023-.768.045.045,0,0,1,.007-.03.676.676,0,0,1,.023.141,2.874,2.874,0,0,0,.954,2.259,1.918,1.918,0,0,1-.741-.752.669.669,0,0,0-.305.8.72.72,0,0,0,.257.361.035.035,0,0,1,.012.023c0,.022-.057.062-.151-.033a.6.6,0,0,1-.043-.052,1.022,1.022,0,0,1-.085-.158c-.119-.1-.228-.216-.337-.327-.084-.169-.037-.675-.532-.676h-.046a.387.387,0,0,0-.085.012h-.018a1.872,1.872,0,0,1-.09-.767,2.757,2.757,0,0,1,.6-1.229.114.114,0,0,0,.036-.084.068.068,0,0,0-.027-.044c-.171-.114-.662-.508-.723-.553l0-.005a.181.181,0,0,0-.12-.052.177.177,0,0,0-.108.041.935.935,0,0,1-.589.19.754.754,0,0,1-.09-.005h-.008a2.036,2.036,0,0,1-.713-.214,2.167,2.167,0,0,0-1.876,0,2.036,2.036,0,0,1-.713.214c-.014,0-.048.005-.1.005a.942.942,0,0,1-.589-.188.184.184,0,0,0-.107-.04.179.179,0,0,0-.118.052l-.005.005c-.056.045-.548.438-.723.553a.067.067,0,0,0-.026.044.113.113,0,0,0,.034.084,2.742,2.742,0,0,1,.606,1.229,1.294,1.294,0,0,1,0,.277c-.041-.135-.08-.253-.111-.339a.551.551,0,0,0-.072-.186.757.757,0,0,0-.283-.251q-.138-.056-.271-.125a.967.967,0,0,1-.355-.354,1.122,1.122,0,0,0-.175-.573c.048-.022.248.122.264.476a2.054,2.054,0,0,0,.436-1c.181-.244.677-.148.866-.115a.447.447,0,0,1,.169.054c.052.039.066.123.139.154a.562.562,0,0,0,.263,0,.5.5,0,0,1,.07.126h.078a1.945,1.945,0,0,0,.669-.2L28,352a.327.327,0,0,0,.042-.016.631.631,0,0,0-.417-.194c-.185-.03-.288-.186-.464-.224a.727.727,0,0,0-.254-.014,4.6,4.6,0,0,1-1.037-.124c-.348-.024-.361.213-.486.409a1.17,1.17,0,0,1-.162.216c-.1.09-.208.1-.323.187l-.017-.012a1.322,1.322,0,0,0-.163-.452v-.007c-.009-.014-.016-.029-.025-.044a1.257,1.257,0,0,0-.828-.625.468.468,0,0,1-.146-.079.072.072,0,0,1-.025-.1.068.068,0,0,1,.025-.025c.12-.069.327-.045.464-.108.334-.156.218-.44.085-.464a3.03,3.03,0,0,1-.534-.146c-.08-.052-.13-.193-.262-.239a.574.574,0,0,0-.276-.016c-.081.012-.135.071-.2.061a.494.494,0,0,1,.379-.181c-.148-.04-.1-.279-.233-.333a.434.434,0,0,0-.24.066c-.009-.075-.052-.329-.192-.41-.112-.065-.153.036-.147.1s.173.129.2.389l-.09.06a.518.518,0,0,0-.181-.335c-.113-.066-.155.033-.148.1s.151.119.194.34c-.038.031-.076.063-.111.1-.227-.061-.276-.22-.332-.232s-.169.019-.115.138a.524.524,0,0,0,.325.216c-.024.026-.049.052-.07.079-.263-.052-.317-.229-.376-.24s-.167.018-.114.136c.07.152.329.22.395.234a.27.27,0,0,0-.054.181c-.2-.023-.563.086-.5.325.067.049.309-.148.529-.037a.8.8,0,0,0,.433.276.589.589,0,0,1,.131.288,2.4,2.4,0,0,0,.315.524c.126.192.256.39.386.556a.337.337,0,0,1,.024.164,5.084,5.084,0,0,1-.781.687c-.186.173-1.937,1.506-2.157,2.086a1.236,1.236,0,0,0-.069.473.353.353,0,0,1-.348-.039c-.116-.136.119-.267.062-.452a.153.153,0,0,0-.194-.07c-.13.046-.156.307-.09.464.018.045.09.1.035.136s-.107-.041-.107-.133a.152.152,0,0,0-.053.152c.033.128.189.13.24.164-.005.056-.09.082-.151.03-.1.142.012.2.035.2.1.019.218-.077.286-.085.03.073-.022.1-.132.126.175.211.332-.153.527-.109.061.013.61.528.516.92a.331.331,0,0,1-.038.09c-.123.151-.323.271-.463.41-.289.181.271,1.335.229,1.925-.036.231.2.188.332.564a.41.41,0,0,0-.351.143.233.233,0,0,0-.022.031.273.273,0,0,0-.038.143.288.288,0,1,0,.576,0,.174.174,0,0,0,0-.043.561.561,0,0,1,.233.051l.253.138a2.586,2.586,0,0,1-2.349.314s-.662-.211-.476-.8a.326.326,0,0,1,.122-.156.327.327,0,0,0,.323.257.33.33,0,0,0,.238-.559.257.257,0,0,0-.045-.038v0h-.005a.558.558,0,0,0-.477-.051.638.638,0,0,0-.434.791.688.688,0,0,0,.03.082s-.431-.1-.594.1a.244.244,0,0,0-.051.164v.006a.353.353,0,0,0,.044.141.257.257,0,0,0,.205.107.251.251,0,0,0,.2-.09c.017-.023.06-.046.149.027a1.9,1.9,0,0,0,1.473.576s.024.452.332.535a.381.381,0,0,0,.044.006.153.153,0,0,0,0-.3H20.45a.694.694,0,0,1-.017-.244,3.679,3.679,0,0,0,1.606-.652,4,4,0,0,0,.736.141s.042.1-.155.121c0,0-.253,0-.246.076,0,0-.016.09.181.09,0,0-.026.09.135.181,0,0,.1.054.048.122,0,0-.192.1-.135.226,0,0,.052.154.319.116,0,0,.09,0,.017.075,0,0-.134.142.09.258a.218.218,0,0,0,.292-.09s.024-.071.134-.018c0,0,.568.259.865-.166,0,0,.019-.065.1.046a1.5,1.5,0,0,0,1.1.381.3.3,0,0,0,.563-.09,1.61,1.61,0,0,0,.826-.279,3.057,3.057,0,0,1,.283-.154.419.419,0,1,0,.493-.425.875.875,0,0,0-.669.158,1.785,1.785,0,0,1-.389.218s.073-.353.131-.75l-.181-.022c-.044.372-.129.8-.279.821l-.213.044a.24.24,0,0,0-.04-.075.226.226,0,0,0-.228-.09l-.021.005a.243.243,0,0,0-.181.209.885.885,0,0,1-.6-.075s.351-.122.392-.247c0,0,.1-.2-.241-.4,0,0-.259-.152-.331.012,0,0-.024.072.09.173,0,0,.125.133-.115.111a.417.417,0,0,1-.217-.08,4.072,4.072,0,0,1,.146-.751l-.271-.072a3.231,3.231,0,0,0-.1.317s-.014.26-.11.327a.728.728,0,0,1-.193-.763c-.107-.033-.211-.068-.315-.1a2.164,2.164,0,0,0,.35,1.147s-.271.367-.564.175c0,0-.4-.26-.146-.492,0,0,.176-.146.252.036a.169.169,0,1,0,.175.179.413.413,0,0,0-.138-.371.425.425,0,0,0-.383-.1,1.326,1.326,0,0,0,.246-.542.338.338,0,0,1,.017-.095c-.066-.023-.131-.049-.2-.074-.016.244-.09.69-.421.568,0,0,.214-.361.354-.595-.135-.052-.271-.107-.4-.164l-.036-.015a.6.6,0,0,1-.085.5s-.166.155-.452-.069c0,0,.384-.323.5-.452a.961.961,0,0,0-.318-.069h-.1l-.021.014a2.833,2.833,0,0,1-.423.257.078.078,0,0,1-.1-.021.662.662,0,0,1-.07-.752s.141-.344.446-.271a.162.162,0,0,1,.137.119s-.293.011-.258.216c0,0,0,.214.271.2,0,0,.366-.036.279-.48,0,0-.062-.271-.271-.271,0,0,.117-.145.033-.2,0,0-.09-.084-.283.054,0,0-.051.1-.289.045a.214.214,0,0,0-.247.056s-.041.016-.041.187c0,0,.018.067-.09.244a.871.871,0,0,0-.07.314.533.533,0,0,0-.243-.113c-.12-.126-.13-.71-.256-.994-.028-.066.057-.361.059-.68A1.708,1.708,0,0,0,22.28,356.6a2.22,2.22,0,0,0-.068-1.117c0-.016.015-.016.023,0a1.476,1.476,0,0,1,.1.23,2.116,2.116,0,0,0,.92-.082l.033-.013a.434.434,0,0,1,.043-.017l.1-.049.036-.02a2.616,2.616,0,0,0,1.066-1.119.824.824,0,0,1-.441-.238c.227.019.4.114.626.115.334,0,.558-.181.926-.14,0,.02.05.174.286.271a1.667,1.667,0,0,0,.086.557.265.265,0,0,0,.032.069s-.276.213-.205.393c.02.047.039.1.056.138a.123.123,0,0,1-.041-.006c-.04-.018-.09.054-.15.15-.032.051-.181.353-.068.379a.435.435,0,0,0,.068.008,1.446,1.446,0,0,0,.2,1.1v.005a1.684,1.684,0,0,0,1.488.679h.016c.107,0,1.049.019,1.387.646.019.037.09.143.175.143s.157-.106.181-.141c.338-.633,1.28-.648,1.387-.648h.015a1.7,1.7,0,0,0,1.49-.679v-.005a1.286,1.286,0,0,0,.22-.581c.211-.116.2-.59.2-.675a.771.771,0,0,0,.445.382c-.042.225-.028.594.212.643.073.007.135-.1.116-.185.209.593.036.959.192,1,.2,0,.208-.351.227-.361a.6.6,0,0,1,.086.3c0,.181-.023.367.06.4.278.046.146-.764.361-.683-.052.361,0,.562.149.621-.005.163-.023.323-.09.323-.4.09-.762-.226-1.109-.131a.432.432,0,0,1-.036-.024A1.393,1.393,0,0,0,32,358.12c-.181-.165-.248.083-.3.054-.334-.189-.52.132-.606.146s-.22-.168-.374.21c-.07.167-.444.238-.473.247-.15.018-.181-.086-.181-.086a.943.943,0,0,0-.044-.108.245.245,0,0,0-.054-.074.182.182,0,0,0-.151-.05.209.209,0,0,0-.2.22.206.206,0,0,0,.043.117c.012.01.045-.038.09-.035a.153.153,0,0,1,.149.149c.011.17-.248.341-.248.341-.151.134-.339-.052-.339-.052a.412.412,0,0,0-.181-.09.165.165,0,0,1-.318,0,.427.427,0,0,0-.181.09s-.187.187-.338.052c0,0-.258-.17-.248-.341a.153.153,0,0,1,.149-.149c.049,0,.082.045.09.035a.219.219,0,0,0,.043-.128.212.212,0,0,0-.2-.211.182.182,0,0,0-.151.05.248.248,0,0,0-.055.074.565.565,0,0,0-.043.108.158.158,0,0,1-.181.086c-.031-.009-.4-.08-.472-.247-.155-.377-.3-.2-.376-.21s-.271-.336-.606-.146c-.052.029-.12-.22-.3-.054a1.45,1.45,0,0,0-.861.019c-.031-.061-.192-.09-.238-.109a1.323,1.323,0,0,1-.262-.145,1.823,1.823,0,0,0-.542-.046.653.653,0,0,1-.208-.076,2.04,2.04,0,0,1-.588-.481c-.021-.032-.076-.1-.085-.115a.868.868,0,0,1-.147-.28,1.965,1.965,0,0,1,.078-.8c.017-.126.022-.176.027-.251a1.553,1.553,0,0,1-.8-.034,1.977,1.977,0,0,1,.068.806.574.574,0,0,1,.211.329c.014.133-.048.271.03.379a2.211,2.211,0,0,0,.527.41q.417.327.866.611c.1.02.166-.055.256-.04a.23.23,0,0,1,.079.049.809.809,0,0,0,.148.124c-.218.136-.491.3-.691.4,0,0-.323.181-.172.181,0,0,.228-.007.246.042,0,0-.095.037-.241.1q.51.18,1.043.328a2.509,2.509,0,0,1,.8-.567.6.6,0,0,0,.542-.279c.041-.09.211.17.567-.026.033-.018.086.078.188.1.033.009-.145.035-.109.192.005.02-.289,0-.388.166a2.678,2.678,0,0,0-1.214.506c.106.025.21.051.317.073a1.008,1.008,0,0,1,.667-.22.594.594,0,0,1,.486.429q.323.045.649.079h-.006c.061-.026.361-.173.225-.351,0,0-.071-.09-.2.029,0,0-.08.071-.113-.042a.336.336,0,0,0-.042-.116s-.061-.09.057-.047a.593.593,0,0,0,.211.019.2.2,0,0,0,.191-.2.207.207,0,0,0-.192-.22s-.022,0-.023.016a.072.072,0,0,1,.027.057c0,.042-.033.084-.072.074-.124-.034-.09-.271.08-.281a.411.411,0,0,1,.271.156s.286.427.548.517c.018.006-.048.154.12.206.019,0,0,.133.166.12a.75.75,0,0,1,.079.148c.149,0,.3.006.452.006s.3,0,.452-.006a.7.7,0,0,1,.078-.148c.171.013.148-.116.168-.12.167-.052.1-.2.12-.206.262-.09.547-.517.547-.517a.413.413,0,0,1,.271-.156c.169.007.205.247.08.281-.039.009-.073-.033-.073-.074a.074.074,0,0,1,.029-.057c0-.012-.021-.016-.024-.016a.207.207,0,0,0-.192.22.2.2,0,0,0,.191.2.593.593,0,0,0,.211-.019c.117-.042.058.047.058.047a.328.328,0,0,0-.041.116c-.033.113-.114.042-.114.042-.125-.118-.2-.029-.2-.029-.135.181.164.324.225.351h-.007c.22-.023.435-.05.649-.079a.6.6,0,0,1,.487-.429,1.011,1.011,0,0,1,.669.22c.106-.023.211-.048.316-.073a2.67,2.67,0,0,0-1.214-.506c-.1-.164-.394-.146-.389-.166.038-.156-.141-.181-.109-.192.1-.027.156-.123.19-.1.356.2.527-.066.568.026.132.3.537.279.537.279a2.546,2.546,0,0,1,.8.567c.323-.09.641-.188.951-.3v-.011a.517.517,0,0,0-.019-.052.038.038,0,0,0-.007-.016.9.9,0,0,0-.045-.082,2.574,2.574,0,0,0-.241-.317l-.014-.014s.234-.361.381-.114c.012.031-.014.117-.161.117a1.952,1.952,0,0,1,.214.452c.072-.028.122-.044.15-.052a.144.144,0,0,0,.042-.009c-.09-.181-.228-.282-.189-.342.035-.014.163.05.235-.058a1.436,1.436,0,0,0,.053-.3.572.572,0,0,0,.232.055c.241-.006.331-.37.265-.489.036-.023.181-.139.191-.108.075.172.468.356.433-.032.063.188.109.4.329.385.157-.037.054-.308.111-.308.047.079.114.389.348.313a.181.181,0,0,0,.128-.181c.013-.3-.842-1.858-.917-2.53l-.041-.015c-.082-.042-.09-.181-.077-.271a.061.061,0,0,1,0-.018c-.1-.019-.263-.108-.289-.394,0-.255.111-.382.136-.382.009,0,.012.016.009.025-.066.2-.113.441.034.575a.282.282,0,0,0,.149.058.239.239,0,0,1,.117-.127c.008,0,.006.014.005.02a.4.4,0,0,0-.005.417.248.248,0,0,0,.156.069c.237-.085.361-.542.412-.68.157.033-.258.948.061,1.145.131-.011.206-.163.254-.3.1.271-.337.837-.02.965.2.049.262-.452.271-.385.056.759-.342,1.125-.09,1.243.214.1.289-.518.288-.44-.007.809-.414,1.035-.24,1.175.2.08.343-.408.341-.293-.019.723-.38.916-.219,1.145.186.264.534-.473.551-.334.021.169-.394,1.007-.156,1.066.2.049.271-.238.289-.3a15.352,15.352,0,0,0,.614-4.8m-6.194-3.818a.033.033,0,0,1-.036,0,.858.858,0,0,0-.7.041,1.676,1.676,0,0,0-.319.262,1.052,1.052,0,0,1,.752-.483c.293.006.324.155.3.18m1.052,1.348a.56.56,0,0,1-.317.294.639.639,0,0,1-.561-.192,1.806,1.806,0,0,0,.458.1.767.767,0,0,0,.409-.212c.011-.014.022,0,.011.016ZM21.419,359.78h0a1.419,1.419,0,0,1,.117.09.168.168,0,0,1,.028.033c-.02.045-.065.042-.123.018h-.013a.948.948,0,0,1-.134-.079c-.044.066.039.135.08.19a.065.065,0,0,1-.056.035.181.181,0,0,1-.09-.011h-.005c-.082-.039-.1-.159-.1-.225a.279.279,0,0,0-.141-.22c.163-.113.41.149.435.17Zm1.489-9.006c.244.09.265-.22.325-.147.085.142-.147.36-.324.147Zm.307-.252c-.1-.008-.173-.072-.263,0a.25.25,0,0,0-.108.224.09.09,0,0,1-.092.089.088.088,0,0,1-.055-.02c-.09-.2.237-.483.317-.509.185-.068.323.047.527.077.117.017.243,0,.339.007.219.019.161.181.124.2-.181.052-.286-.09-.44-.11-.112-.012-.234.052-.347.042Zm.834,1.29c-.264-.09-.567-.136-.68-.349a2.745,2.745,0,0,1,1,.171l.029.019a.927.927,0,0,1,.361.506,2.907,2.907,0,0,0-.713-.346Zm1.971,2.281c-.075.017-.09-.314-.489-.236a.592.592,0,0,1-.515-.021c.571-.319,1.047.005,1.006.259Zm5.879.851a.41.41,0,0,1,.081-.006h0a.3.3,0,0,1,.085.012.438.438,0,0,1,.1.211.7.7,0,0,0,.106.238c.054.052.033.158-.1.142h-.008a.373.373,0,0,1-.232-.458.3.3,0,0,0-.1,0,.237.237,0,0,0-.05.014l-.013,0a.134.134,0,0,0-.027.015l-.022.012c-.033.029-.046.079-.09.081a.255.255,0,0,1,.12-.2.418.418,0,0,1,.144-.063Zm-5.8.76a.328.328,0,0,0-.012.032q-.011.027-.024.054l-.013.023-.02.034-.014.021c-.012.015-.023.031-.034.044l-.012.01a.248.248,0,0,1-.032.03.06.06,0,0,1-.015.011.244.244,0,0,1-.046.028h0a.22.22,0,0,1-.049.016h-.014a.264.264,0,0,1-.06,0,.072.072,0,0,1-.01-.041c0-.061.063-.114.09-.181s.022-.1.056-.152c.063-.007.114.015.133-.042a.231.231,0,0,1,0-.326.294.294,0,0,1,.025-.022c.171-.175,0-.542.031-.588a.539.539,0,0,1,.1.319v.347a.174.174,0,0,1,0,.031.227.227,0,0,1-.006.065c-.006.022,0,.025-.006.04l-.008.042a.062.062,0,0,1-.006.033.167.167,0,0,0-.01.038c0,.013-.009.04-.015.06l-.011.033a.281.281,0,0,1-.013.039Zm5.526,1.255a1.5,1.5,0,0,1-1.331.616c-.084,0-.834.014-1.091.492l-.014.022c-.031.053-.125.2-.167.288a.048.048,0,0,1-.042.025.045.045,0,0,1-.042-.025c-.042-.084-.137-.235-.167-.288a.108.108,0,0,1-.014-.022c-.258-.477-1.007-.492-1.092-.492a1.494,1.494,0,0,1-1.332-.617,1.477,1.477,0,0,1-.023-1.466,1.983,1.983,0,0,0,.334-1.2,2.22,2.22,0,0,0-.511-1.345.189.189,0,0,1-.052-.146.153.153,0,0,1,.077-.113c.1-.071.326-.211.42-.271l.044-.028a.07.07,0,0,1,.033-.011c.028,0,.052.019.09.051a.836.836,0,0,0,.556.2,1.072,1.072,0,0,0,.162-.013,1.854,1.854,0,0,0,.41-.153c.079-.042.174-.084.22-.1l.021-.009a2.106,2.106,0,0,1,1.723,0l.023.009c.042.019.144.062.221.1a1.843,1.843,0,0,0,.411.153.968.968,0,0,0,.162.013.829.829,0,0,0,.554-.2c.043-.033.068-.051.1-.051a.065.065,0,0,1,.04.016l.044.027c.1.062.311.2.423.271a.144.144,0,0,1,.065.106.183.183,0,0,1-.052.146,2.226,2.226,0,0,0-.511,1.337,2,2,0,0,0,.335,1.212,1.494,1.494,0,0,1-.023,1.469Zm.663-.565h0c-.007.012-.015.021-.023.032l-.025.023-.026.014a.1.1,0,0,1-.027.007h-.046a.119.119,0,0,1-.025-.008.045.045,0,0,1-.015-.005l-.026-.015-.017-.009-.033-.026a.055.055,0,0,0-.014-.011s-.061-.1.033-.118a.266.266,0,0,0,.036.035l.01.006a.069.069,0,0,0,.023.013h.008a.032.032,0,0,0,.039-.013l0-.007.01-.019v-.01a.2.2,0,0,1,.009-.035c0-.013,0-.01,0-.014v-.052a.145.145,0,0,0,0-.028,1.629,1.629,0,0,1,.05-.467.048.048,0,0,1,.034-.023.036.036,0,0,1,.025.007l.008.007.009.013v.014a.054.054,0,0,1,0,.021.067.067,0,0,1,0,.019v.239a.547.547,0,0,0,.009.118.488.488,0,0,1-.036.3Zm1.73.337a.918.918,0,0,1-.783-.4,1.558,1.558,0,0,0,.335.233.792.792,0,0,0,.7-.09.033.033,0,0,1,.036,0c.025.029,0,.2-.289.258ZM25,358.178A.052.052,0,0,1,25,358.2l-.01.009a.041.041,0,0,1-.013.009.2.2,0,0,1-.083.015.9.9,0,0,1-.155-.016.081.081,0,0,0,.043.083.174.174,0,0,0,.04.023l.066.033c0,.053-.09.086-.13.086-.09,0-.155-.1-.185-.164a.176.176,0,0,0-.026-.019l-.022-.014a.773.773,0,0,0-.319-.066c.022-.212.6-.067.617-.063a.7.7,0,0,1,.185.047.03.03,0,0,1,0,.018Zm8.8.505h0a.182.182,0,0,0-.009.032,1.039,1.039,0,0,1-.348-.166.284.284,0,0,0-.221-.049c-.09.042-.136.138-.191.185a.406.406,0,0,1-.015-.054v-.069a.241.241,0,0,1,0-.036.023.023,0,0,1,.005-.017.171.171,0,0,1,.022-.042.125.125,0,0,1,.015-.023c0-.005.01-.008.015-.014a.1.1,0,0,1,.029-.019l.012-.007a.328.328,0,0,1,.181-.033.421.421,0,0,1,.246.095.611.611,0,0,0,.333.09.8.8,0,0,0-.072.131Zm2.137-6.4a.971.971,0,0,1-.322.158.441.441,0,0,1-.473-.144c.149-.048.277.054.481.03a1.377,1.377,0,0,0,.192-.036c.061-.02.1-.079.169-.079.023.03-.023.057-.046.078Zm1.911,5.494a4.154,4.154,0,0,1-.157.67c.427-3.867.192-4.824.121-4.81s-.131.477-.345.338.481-.988.206-1.458c-.063-.076-.121.107-.232.074-.284-.09.156-.829.074-.9-.062-.054-.276-.1-.284-.373,0-.123.083-.223-.018-.327-.08-.077-.064.072-.148.035-.133-.142-.011-.3-.077-.408-.037-.027-.128.09-.2.029s.043-.188-.052-.233a.325.325,0,0,0-.276.361c.019.107.145.181.136.3s-.136.228-.158.282c-.181.417.126.5.082.65-.019.07-.152.112-.237.078-.112-.046-.137-.419-.1-.573.042-.174.285-.388.284-.483s-.117-.229-.129-.373a.34.34,0,0,1,.276-.4.321.321,0,0,1,.1,0,.636.636,0,0,1,.328.26c.037.042.086.079.115.114a4.076,4.076,0,0,1,.589,1.348,13.474,13.474,0,0,1,.106,5.809Z" transform="translate(4230.261 5640.046)" fill="#fff"/>
    <path id="Trazado_39801" data-name="Trazado 39801" d="M53.824,350.723a4.015,4.015,0,0,1-1.751.431c-1.446,0-2.182-1-2.182-2.541a2.141,2.141,0,0,1,2.246-2.447,2.8,2.8,0,0,1,1.593.424l-.395.717A2.151,2.151,0,0,0,52.151,347c-.876,0-1.27.639-1.27,1.6,0,1.141.424,1.751,1.256,1.751a1.923,1.923,0,0,0,.818-.151v-.9h-.66l-.057-.7h1.586Z" transform="translate(4227.188 5640.33)" fill="#fff"/>
    <path id="Trazado_39802" data-name="Trazado 39802" d="M58.237,349.457c0,1.2-.6,1.837-1.651,1.837s-1.651-.633-1.651-1.837a1.659,1.659,0,1,1,3.3,0m-.962,0c0-.847-.251-1.141-.689-1.141s-.681.3-.681,1.141c0,.819.222,1.148.681,1.148s.685-.308.685-1.148Z" transform="translate(4226.702 5640.188)" fill="#fff"/>
    <path id="Trazado_39803" data-name="Trazado 39803" d="M60.237,347.92a1.242,1.242,0,0,1,.933-.43c.825,0,1.421.588,1.421,1.822,0,1.213-.717,1.837-1.536,1.837a1.155,1.155,0,0,1-1.019-.5l-.173.424h-.5v-4.952H60.3v1.227ZM60.3,350.1a.847.847,0,0,0,.639.361c.409,0,.71-.3.71-1.148s-.266-1.134-.7-1.134a.99.99,0,0,0-.653.28Z" transform="translate(4226.274 5640.333)" fill="#fff"/>
    <path id="Trazado_39804" data-name="Trazado 39804" d="M64,351.078v-2.842l-.409-.09v-.587H64.93v3.517Zm-.029-4.952h.947v.854h-.947Z" transform="translate(4225.867 5640.333)" fill="#fff"/>
    <path id="Trazado_39805" data-name="Trazado 39805" d="M66.807,349.718a.8.8,0,0,0,.716.872.769.769,0,0,0,.188,0,2.361,2.361,0,0,0,1.034-.295l.181.66a2.887,2.887,0,0,1-1.327.344,1.634,1.634,0,0,1-1.738-1.523,1.58,1.58,0,0,1,.009-.314c0-1.084.524-1.822,1.651-1.822,1.063,0,1.478.79,1.478,1.672v.409Zm.66-1.392c-.466,0-.66.424-.66.839h1.285c0-.454-.138-.84-.625-.84Z" transform="translate(4225.648 5640.188)" fill="#fff"/>
    <path id="Trazado_39806" data-name="Trazado 39806" d="M72.112,348.49a1.563,1.563,0,0,0-.438-.058,1.013,1.013,0,0,0-.632.237v2.555h-.933v-3.513h.653l.1.473h.022a.943.943,0,0,1,.839-.542,1.6,1.6,0,0,1,.409.051Z" transform="translate(4225.238 5640.187)" fill="#fff"/>
    <path id="Trazado_39807" data-name="Trazado 39807" d="M75.135,351.223v-2.088c0-.531-.2-.783-.632-.783a1.141,1.141,0,0,0-.617.215v2.656h-.941v-3.517h.646l.144.4a1.461,1.461,0,0,1,1.112-.473c.89,0,1.241.524,1.241,1.414v2.175Z" transform="translate(4224.964 5640.188)" fill="#fff"/>
    <path id="Trazado_39808" data-name="Trazado 39808" d="M80.418,349.457c0,1.2-.6,1.837-1.651,1.837s-1.651-.633-1.651-1.837a1.659,1.659,0,1,1,3.3,0m-.961,0c0-.847-.251-1.141-.689-1.141s-.682.3-.682,1.141c0,.819.222,1.148.682,1.148s.689-.308.689-1.148" transform="translate(4224.563 5640.188)" fill="#fff"/>
    <path id="Trazado_39809" data-name="Trazado 39809" d="M52.269,354.519a2.172,2.172,0,0,1-.09-.646V352.81h.933v4.951H52.36l-.108-.388a1.139,1.139,0,0,1-.933.459c-.8,0-1.436-.574-1.436-1.831,0-1.163.66-1.83,1.514-1.83a1.143,1.143,0,0,1,.872.346m-.09.531a1.248,1.248,0,0,0-.639-.173c-.445,0-.723.3-.723,1.12,0,.839.266,1.156.711,1.156a.925.925,0,0,0,.653-.3Z" transform="translate(4227.188 5639.688)" fill="#fff"/>
    <path id="Trazado_39810" data-name="Trazado 39810" d="M55.191,356.4a.8.8,0,0,0,.716.872.771.771,0,0,0,.188,0,2.348,2.348,0,0,0,1.034-.295l.181.661a2.888,2.888,0,0,1-1.327.344,1.633,1.633,0,0,1-1.728-1.837c0-1.084.524-1.822,1.651-1.822,1.063,0,1.478.789,1.478,1.672v.409Zm.66-1.392c-.466,0-.66.424-.66.839h1.285c0-.452-.136-.839-.624-.839Z" transform="translate(4226.768 5639.543)" fill="#fff"/>
    <path id="Trazado_39811" data-name="Trazado 39811" d="M62.227,357.838c-1.363,0-2.1-.9-2.1-2.519,0-1.507.723-2.469,2.1-2.469a3.036,3.036,0,0,1,1.651.409l-.361.761a2.028,2.028,0,0,0-1.192-.337c-.8,0-1.205.567-1.205,1.626,0,1.12.4,1.694,1.192,1.694a2.242,2.242,0,0,0,1.278-.445l.3.761a2.867,2.867,0,0,1-1.663.519" transform="translate(4226.2 5639.685)" fill="#fff"/>
    <path id="Trazado_39812" data-name="Trazado 39812" d="M64.994,357.761v-4.952h.94v1.3a1.539,1.539,0,0,1-.09.542,1.251,1.251,0,0,1,1.012-.481c1,0,1.285.524,1.285,1.414v2.178h-.955v-2.1c0-.5-.2-.775-.624-.775a1.088,1.088,0,0,0-.624.215v2.656Z" transform="translate(4225.731 5639.689)" fill="#fff"/>
    <path id="Trazado_39813" data-name="Trazado 39813" d="M69.59,357.761V354.92l-.409-.09v-.588h1.342v3.52Zm-.029-4.952h.948v.854h-.95Z" transform="translate(4225.327 5639.689)" fill="#fff"/>
    <path id="Trazado_39814" data-name="Trazado 39814" d="M71.62,356.83v-4.019h.925v3.968c0,.295.181.338.567.338v.661a2.921,2.921,0,0,1-.517.057c-.717,0-.976-.38-.976-1" transform="translate(4225.092 5639.688)" fill="#fff"/>
    <path id="Trazado_39815" data-name="Trazado 39815" d="M74.733,356.4a.8.8,0,0,0,.716.872.771.771,0,0,0,.188,0,2.356,2.356,0,0,0,1.033-.295l.181.661a2.888,2.888,0,0,1-1.327.344,1.634,1.634,0,0,1-1.738-1.523,1.58,1.58,0,0,1,.009-.314c0-1.084.524-1.822,1.651-1.822,1.063,0,1.478.789,1.478,1.672v.409Zm.66-1.392c-.466,0-.66.424-.66.839h1.285c0-.452-.136-.839-.623-.839Z" transform="translate(4224.883 5639.543)" fill="#fff"/>
    <path id="Trazado_39816" data-name="Trazado 39816" d="M53.115,405.573h-1.01l-.441-2.036-.552,2.036h-.96l-.568-2.7h.794l.32,2.152h.023l.568-2.152h.849l.508,2.152h.016l.4-2.152h.7Z" transform="translate(4227.217 5634.86)" fill="#fff"/>
    <path id="Trazado_39817" data-name="Trazado 39817" d="M57.829,405.573h-1.01l-.441-2.036-.552,2.036h-.962l-.568-2.7h.794l.32,2.152h.023L56,402.87h.851l.508,2.152h.017l.4-2.152h.7Z" transform="translate(4226.763 5634.86)" fill="#fff"/>
    <path id="Trazado_39818" data-name="Trazado 39818" d="M62.543,405.573H61.534l-.441-2.036-.552,2.036h-.96l-.568-2.7h.8l.32,2.152h.023l.568-2.152h.85l.508,2.152h.016l.4-2.152h.7Z" transform="translate(4226.308 5634.86)" fill="#fff"/>
    <rect id="Rectángulo_2052" data-name="Rectángulo 2052" width="0.728" height="0.778" transform="translate(4289.779 6039.657)" fill="#fff"/>
    <path id="Trazado_39819" data-name="Trazado 39819" d="M67.82,402.864l-.011.536a1.979,1.979,0,0,1-.508-.09.733.733,0,0,1,.271.425,1.022,1.022,0,0,1-1.11.927h-.005a1.614,1.614,0,0,1-.348-.05c-.083.028-.133.077-.133.148,0,.293,1.717-.05,1.717.966,0,.633-.607.982-1.286.982-.568,0-1.142-.248-1.142-.745,0-.348.276-.529.717-.6-.336-.039-.673-.144-.673-.458,0-.226.21-.392.513-.414a.828.828,0,0,1-.485-.761.993.993,0,0,1,1.056-.927l.059.005c.291,0,.9.044,1.367.051m-1.474,2.549a.4.4,0,0,0-.414.378v.02c0,.238.215.408.508.408.325,0,.542-.165.542-.447,0-.237-.211-.325-.635-.359Zm.585-1.689c0-.32-.271-.4-.48-.4s-.486.083-.486.4c0,.342.259.425.486.425s.481-.082.481-.425Z" transform="translate(4225.705 5634.866)" fill="#fff"/>
    <path id="Trazado_39820" data-name="Trazado 39820" d="M71.028,404.214c0,.922-.464,1.412-1.265,1.412s-1.265-.485-1.265-1.412a1.275,1.275,0,1,1,2.538-.245,1.232,1.232,0,0,1,0,.245Zm-.739,0c0-.651-.193-.877-.529-.877s-.524.232-.524.877.171.883.524.883.529-.24.529-.883" transform="translate(4225.394 5634.865)" fill="#fff"/>
    <path id="Trazado_39821" data-name="Trazado 39821" d="M72.564,403.029a.955.955,0,0,1,.717-.331c.632,0,1.092.452,1.092,1.4,0,.932-.552,1.412-1.181,1.412a.888.888,0,0,1-.783-.38l-.133.326H71.89v-3.809h.723v.943Zm.05,1.677a.652.652,0,0,0,.492.276c.314,0,.542-.231.542-.883s-.2-.872-.535-.872a.764.764,0,0,0-.5.215Z" transform="translate(4225.066 5634.978)" fill="#fff"/>
    <rect id="Rectángulo_2053" data-name="Rectángulo 2053" width="0.728" height="0.778" transform="translate(4299.898 6039.657)" fill="#fff"/>
    <path id="Trazado_39822" data-name="Trazado 39822" d="M78.721,405.388a2.085,2.085,0,0,1-.927.238c-.806,0-1.291-.458-1.291-1.407a1.241,1.241,0,0,1,1.063-1.4,1.224,1.224,0,0,1,.222-.01,1.821,1.821,0,0,1,.927.22l-.188.492a1.348,1.348,0,0,0-.679-.165c-.376,0-.613.254-.613.861s.226.861.618.861a1.584,1.584,0,0,0,.734-.2Z" transform="translate(4224.622 5634.866)" fill="#fff"/>
    <path id="Trazado_39823" data-name="Trazado 39823" d="M79.5,404.739v-3.091h.712V404.7c0,.226.137.259.436.259v.508a2.255,2.255,0,0,1-.4.043c-.552,0-.751-.291-.751-.771" transform="translate(4224.332 5634.978)" fill="#fff"/>
  </g>
</svg>
