<svg xmlns="http://www.w3.org/2000/svg" width="62.645" height="60.371" xmlns:v="https://vecta.io/nano"><path fill="#c8c8c8" d="M0 0h27.411v60.37H0z"/><path fill="#b5b5b5" d="M28.473 0h34.172v60.37H28.473z"/><g fill="#fff"><path d="M16.293 11.96v.978a1.19 1.19 0 0 0 0-.978m1.916-5.302c.028-.009-.013-.137.114-.145a.34.34 0 0 1 .31.2c.025.125-.079.426.32.471a1.03 1.03 0 0 1-.009.126.63.63 0 0 1-.057.21.28.28 0 0 1 .071 0c.531.024.831-.017.982-.181.054-.057.1-.122.136-.192a.94.94 0 0 0 .083-.732.23.23 0 0 0-.012-.041l-.033-.071c-.195-.288-.482-.502-.813-.608a.33.33 0 0 0-.079-.01l.094-.011a1.23 1.23 0 0 1 .863.6.52.52 0 0 0 .19-.356.92.92 0 0 1 .061-.352.09.09 0 1 0-.13-.126.09.09 0 0 0-.024.051c-.07.146-.238.066-.168-.081a.09.09 0 1 0-.13-.125c-.013.013-.021.03-.024.048-.067.144-.229.064-.162-.078a.09.09 0 0 0-.006-.127c-.037-.033-.094-.031-.128.006a.1.1 0 0 0-.022.046c-.07.148-.237.065-.166-.081.021-.043.003-.094-.04-.115s-.094-.003-.115.04a.81.81 0 0 1-.141.223c.327.066.629.226.867.46a1.51 1.51 0 0 1 .1.117c.008.016.013.029.009.033l-.11-.1a1.84 1.84 0 0 0-.922-.452c-.171.021-.121.211-.1.337-.109-.027-.225-.01-.321.048s-.166.152-.193.262a.31.31 0 0 0-.008.04.54.54 0 0 0 .054.234v.014c-.011.006-.053-.027-.077-.09a.74.74 0 0 1-.037-.146c-.233.014-.452.138-.431.353a.4.4 0 0 0 .209.3m.827-.328c.06-.073.08.239.324.15-.174.211-.409-.005-.324-.149zm-.019-.155c.09-.057.181-.244.321-.152a2.5 2.5 0 0 1 .206.159.62.62 0 0 1 .192.168c.043.085-.071.287-.2.107-.085-.134-.2-.377-.391-.282-.154.078-.258.188-.3.083-.01-.051.108-.05.169-.082zm-.67.041c-.038.09-.166.09-.181.2-.115-.096.083-.312.175-.2zm6.279 10.394c-.163-.2-.594-.1-.594-.1a.64.64 0 0 0-.322-.843.69.69 0 0 0-.082-.03.55.55 0 0 0-.475.051h-.006-.005l-.046.038c-.059.062-.091.144-.09.229a.33.33 0 0 0 .294.326.33.33 0 0 0 .359-.252.33.33 0 0 1 .123.156c.181.587-.477.8-.477.8a2.58 2.58 0 0 1-2.349-.314l.254-.138a.58.58 0 0 1 .231-.051.31.31 0 0 0 0 .043c0 .159.129.288.288.288s.288-.129.288-.288c.001-.05-.012-.1-.038-.143-.006-.011-.014-.021-.022-.031-.171-.258-.76-.09-.76-.09.12-.263.127-.563.021-.832-.108-.181-.09-.244-.09-.244 0-.172-.042-.187-.042-.187-.061-.071-.161-.093-.247-.056-.238.051-.287-.045-.287-.045-.2-.138-.285-.054-.285-.054-.084.058.032.2.032.2-.209 0-.271.271-.271.271-.09.444.279.48.279.48.264.014.271-.2.271-.2.034-.205-.258-.216-.258-.216.051-.122.136-.119.136-.119.305-.075.452.271.452.271a.66.66 0 0 1-.072.752c-.023.031-.066.04-.1.021a2.84 2.84 0 0 1-.421-.257l-.023-.014h-.1c-.109.005-.217.028-.319.069.118.126.5.452.5.452-.289.225-.452.069-.452.069a.6.6 0 0 1-.084-.5l-.032.014-.4.166.353.595c-.333.122-.406-.324-.419-.568l-.2.074c.01.031.015.063.017.095a1.33 1.33 0 0 0 .246.542c-.136-.032-.28.006-.383.1a.41.41 0 0 0-.139.371.17.17 0 0 0 .175.157c.091-.003.163-.078.163-.169s-.072-.166-.163-.169c.075-.181.25-.036.25-.036.258.232-.146.492-.146.492-.287.192-.563-.175-.563-.175a2.17 2.17 0 0 0 .35-1.148l-.315.1a.73.73 0 0 1-.193.763c-.1-.067-.11-.327-.11-.327-.027-.107-.061-.213-.1-.317l-.271.072a4.16 4.16 0 0 1 .145.751c-.052.063-.216.079-.216.079-.238.022-.114-.111-.114-.111.117-.1.09-.173.09-.173-.07-.163-.33-.012-.33-.012-.346.192-.242.4-.242.4.042.125.393.247.393.247a.89.89 0 0 1-.6.075c-.012-.1-.083-.183-.181-.209l-.023-.005c-.087-.017-.175.018-.226.09a.26.26 0 0 0-.04.075l-.213-.044c-.15-.023-.235-.452-.281-.821l-.181.022.13.75a1.77 1.77 0 0 1-.387-.218c-.192-.142-.434-.199-.669-.158a.42.42 0 0 0-.342.458.42.42 0 0 0 .433.373.42.42 0 0 0 .402-.406 3.08 3.08 0 0 1 .285.154 1.6 1.6 0 0 0 .824.279.3.3 0 0 0 .3.247.3.3 0 0 0 .266-.159 1.5 1.5 0 0 0 1.1-.388c.084-.111.1-.046.1-.046.3.426.865.166.865.166.11-.053.134.018.134.018.057.105.186.145.292.09.227-.117.09-.258.09-.258-.076-.079.015-.075.015-.075.271.039.321-.116.321-.116.054-.122-.136-.226-.136-.226-.054-.068.049-.122.049-.122.159-.09.135-.181.135-.181.2 0 .181-.09.181-.09 0-.08-.247-.076-.247-.076-.2-.021-.154-.121-.154-.121a4 4 0 0 0 .735-.141 3.67 3.67 0 0 0 1.607.652.67.67 0 0 1-.02.244h-.02c-.073.012-.127.076-.127.15s.054.138.127.15a.31.31 0 0 0 .044-.006c.307-.083.332-.535.332-.535a1.9 1.9 0 0 0 1.473-.576c.09-.073.129-.051.148-.027a.25.25 0 0 0 .353.035.24.24 0 0 0 .046-.05c.025-.043.04-.091.044-.141v-.006c.005-.057-.009-.115-.041-.163m-10.548 1.136a.2.2 0 0 0 .1-.137.38.38 0 0 0-.162-.35l-.313.006-.313-.006c-.113.079-.175.213-.162.35a.2.2 0 0 0 .1.137s-.222.09-.225.247c0 0-.025.114.17.271a1.1 1.1 0 0 1 .181.281s.013.17.247.17.246-.17.246-.17c.046-.102.107-.197.181-.281.2-.158.171-.271.171-.271 0-.153-.221-.247-.221-.247"/><path d="M15.72 16.762l.114-.013-.074-.135zm-3.874.008l.116.011-.044-.145zm-.453-.32h-.018l-.023.181c.027.004.053.004.08 0 .015-.003.028-.012.037-.024a.1.1 0 0 0 .018-.052c.005-.025 0-.05-.014-.071-.022-.02-.05-.032-.08-.033m1.667.135a.1.1 0 0 0-.09.044c-.041.095-.045.202-.011.3a.09.09 0 0 0 .084.052c.035.002.068-.013.09-.04.026-.047.039-.1.036-.154a.3.3 0 0 0-.023-.152.1.1 0 0 0-.086-.054m1.452 0a.1.1 0 0 0-.09.051.3.3 0 0 0-.023.148.31.31 0 0 0 .036.155.1.1 0 0 0 .09.046c.036 0 .07-.018.09-.049a.26.26 0 0 0 .024-.155c.002-.052-.01-.104-.033-.151a.1.1 0 0 0-.095-.046m-3.965 0l.114.02-.033-.149zm-2.212-.878l-.064.173.023.008c.035.013.06.014.077 0s.032-.032.04-.054a.13.13 0 0 0 .008-.061c-.003-.015-.011-.029-.023-.039-.019-.012-.039-.022-.061-.028m.557.189a.1.1 0 0 0-.1.019.28.28 0 0 0-.072.131.32.32 0 0 0-.02.159.1.1 0 0 0 .07.072.1.1 0 0 0 .1-.016c.038-.038.064-.086.075-.138a.3.3 0 0 0 .018-.151.1.1 0 0 0-.07-.076"/><path d="M9.428 16.054H9.41l-.047.173c.026.009.053.013.08.014.013-.003.026-.009.037-.017a.13.13 0 0 0 .026-.052c.011-.023.011-.049 0-.072a.13.13 0 0 0-.074-.045m8.674.006c-.027-.009-.056-.009-.083 0l-.017.006.048.172c.026-.006.052-.015.075-.029.011-.009.019-.021.023-.035s.005-.038 0-.056c-.006-.025-.023-.046-.045-.058m.963-.053l.107-.041-.1-.111z"/><path d="M19.512 15.408a.26.26 0 0 0-.162-.049c-.037 0-.075.006-.11.019a16.71 16.71 0 0 1-11.07 0c-.035-.013-.072-.019-.109-.019-.057-.001-.114.016-.161.049l-.679.534a1.2 1.2 0 0 1 .426.107 17.02 17.02 0 0 0 12.114 0 1.21 1.21 0 0 1 .426-.107zm-6.459.994l.141.006-.166.1h-.03zm-4.518-.526c-.009.027-.028.051-.053.065s-.054.019-.082.016a.51.51 0 0 1-.11-.029l-.033-.011-.04.1c-.005.015-.005.031 0 .046s.023.024.039.028h.01l-.014.035-.241-.09.013-.036h.003c.015.008.032.01.048.005a.07.07 0 0 0 .024-.041l.1-.263a.07.07 0 0 0 .005-.045c-.009-.013-.022-.023-.037-.027h-.013l.014-.035.181.061a.88.88 0 0 1 .1.043c.023.009.044.024.061.043s.026.038.031.061.001.048-.009.07zm.548.29a.23.23 0 0 1-.119.142.26.26 0 0 1-.206.011.31.31 0 0 1-.129-.078.2.2 0 0 1-.06-.117c-.007-.044-.002-.081.01-.12.028-.086.101-.15.19-.165a.32.32 0 0 1 .134.013.26.26 0 0 1 .164.126.25.25 0 0 1 .016.19zm.479.234c.007.032.019.062.035.09.008.011.02.019.034.023l-.01.037-.143-.039a.91.91 0 0 1-.041-.136.74.74 0 0 0-.021-.072c-.004-.009-.009-.017-.017-.023a.16.16 0 0 0-.048-.016l-.03.107c-.005.015-.005.032 0 .047s.024.022.041.023h.008l-.01.038-.245-.066.01-.038h.009c.015.006.031.006.046 0a.06.06 0 0 0 .023-.04l.072-.271c.005-.016.005-.032 0-.048 0-.01-.018-.016-.041-.023h-.007l.009-.038.181.05.042.01.09.027a.21.21 0 0 1 .05.034c.032.029.045.074.033.115-.013.056-.065.094-.122.09a.46.46 0 0 1 .052.118zm.774.311l-.421-.09.007-.037h.005c.015.006.033.006.048 0 .011-.012.018-.027.02-.043l.058-.271a.07.07 0 0 0 0-.047c-.006-.011-.02-.017-.043-.023h-.003l.008-.036.247.052-.008.036h-.057a.06.06 0 0 0-.02.041l-.056.264a.16.16 0 0 0 0 .042c.002.007.007.013.014.017.015.01.032.017.05.019.034.01.07.006.1-.012a.14.14 0 0 0 .059-.073l.036.009zm.52.09l-.232-.042.009-.038c.012.004.026.004.038 0 .013-.021.013-.029.011-.037v-.01l-.006-.036-.142-.028-.014.023c-.007.01-.013.021-.017.033a.03.03 0 0 0 .008.024c.011.007.023.012.036.013l-.008.039-.154-.028.008-.039c.028.007.058-.014.086-.062l.208-.333.042.007.08.388c.003.026.012.05.028.071.009.008.021.014.033.016zm.8.113l-.147-.021a1.13 1.13 0 0 1-.058-.131c-.008-.023-.018-.046-.03-.068-.004-.009-.012-.016-.021-.02a.13.13 0 0 0-.049-.013l-.014.111c-.004.015-.004.03 0 .045s.021.017.044.022h.009l-.007.037-.252-.033v-.04h.01c.016.004.033.002.048-.006s.017-.026.018-.042l.035-.277c.004-.015.004-.03 0-.045s-.021-.017-.045-.02h-.008v-.039l.189.024.042.005a.57.57 0 0 1 .09.017c.019.006.036.015.052.027.034.025.052.067.046.109-.008.055-.054.097-.11.1a.43.43 0 0 1 .065.109.42.42 0 0 0 .05.09c.009.01.022.016.036.017zm.52.051l-.233-.023v-.038a.09.09 0 0 0 .038 0c.013-.022.013-.029.011-.037v-.011l-.01-.036-.144-.014-.014.021c-.005.011-.009.023-.012.035s.003.018.01.023.024.01.037.01v.039l-.156-.014v-.039c.03 0 .058-.019.083-.068l.181-.351h.041l.11.381a.16.16 0 0 0 .032.07c.01.007.021.012.033.014zm.509-.4l-.3.379.109.008c.023.004.045.004.068 0a.1.1 0 0 0 .041-.028c.015-.017.026-.037.033-.059h.039l-.018.141-.43-.035v-.03l.293-.381-.076-.006a.2.2 0 0 0-.1.009.13.13 0 0 0-.045.065h-.036l.016-.125.4.03zm.563.4c-.055.047-.128.07-.2.062a.3.3 0 0 1-.146-.041c-.04-.023-.072-.058-.09-.1-.016-.037-.024-.077-.023-.117a.25.25 0 0 1 .04-.124.2.2 0 0 1 .1-.086.3.3 0 0 1 .13-.026c.073 0 .143.029.194.08a.25.25 0 0 1-.014.349zm.693-.366a.09.09 0 0 0-.034.008c-.01.006-.018.015-.022.026s-.002.03 0 .045v.361h-.043l-.305-.346v.216c0 .035.005.058.019.068s.031.015.048.014v.038h-.181v-.038a.08.08 0 0 0 .041-.01c.01-.006.017-.016.021-.027s.003-.031 0-.046v-.24c0-.05-.021-.073-.067-.073v-.041h.16l.258.29v-.173c0-.051-.022-.078-.064-.078v-.039h.155zm.788.348a.27.27 0 0 1-.189.08.3.3 0 0 1-.149-.03.2.2 0 0 1-.095-.09.3.3 0 0 1-.033-.117c-.001-.044.01-.087.032-.125s.051-.07.09-.09.084-.034.13-.035c.073-.007.145.016.2.064.049.045.077.108.077.174s-.018.127-.062.173zm.4.037v-.039h-.002c.017.001.033-.004.046-.015.006-.015.009-.032.006-.048l-.024-.278c0-.015-.005-.03-.014-.043s-.03-.013-.046-.01h-.008v-.039l.252-.023v.039h-.01c-.017-.002-.033.004-.045.016a.1.1 0 0 0-.006.046l.023.271c0 .014.002.027.007.04s.011.013.02.014a.1.1 0 0 0 .052 0c.034 0 .066-.014.09-.039s.03-.058.033-.09h.038l.011.157zm.723-.07v-.038c.014 0 .027-.004.038-.012.003-.022.001-.029-.003-.035l-.006-.012-.018-.032-.145.015v.023c-.003.012-.005.024-.006.036s.005.019.014.023.026.004.038 0v.037l-.155.019-.005-.038c.03-.005.052-.032.065-.085l.1-.381h.04l.191.347a.19.19 0 0 0 .045.061c.011.004.023.006.035.006v.038zm.813-.466c-.007-.018-.017-.034-.03-.049s-.02-.018-.033-.021a.1.1 0 0 0-.045 0l-.076.012.024.162.039-.006c.013-.001.026-.007.035-.017.005-.016.005-.032 0-.048l.039-.006.025.16-.038.006c-.001-.018-.008-.034-.02-.047s-.027-.01-.041-.005l-.036.005.02.126c.003.016.009.031.019.043a.06.06 0 0 0 .049 0h.009l.005.038-.251.042-.005-.039h.007c.016.001.032-.006.042-.019.004-.015.004-.03 0-.045l-.043-.278c-.001-.016-.008-.031-.019-.042s-.03-.01-.046-.006h-.009l-.006-.037.391-.062.023.124zm.548-.117l.031.155a.42.42 0 0 1 .01.082c-.001.024-.007.047-.019.067a.16.16 0 0 1-.057.059.23.23 0 0 1-.09.038.26.26 0 0 1-.1 0c-.028-.003-.054-.014-.075-.032s-.031-.032-.041-.052-.019-.046-.023-.071l-.037-.185c-.001-.016-.008-.031-.02-.042-.017-.006-.035-.006-.052 0l-.008-.038.246-.049.007.039h-.009c-.017-.002-.033.006-.042.02s-.009.032 0 .047l.034.181a.29.29 0 0 0 .023.077.1.1 0 0 0 .115.048.1.1 0 0 0 .068-.034.09.09 0 0 0 .029-.061.34.34 0 0 0-.006-.09l-.03-.155c-.001-.017-.008-.033-.021-.044s-.029-.017-.046-.017l-.025-.038.173-.033.008.038c-.012.002-.023.007-.032.014s-.014.017-.016.028-.004.034 0 .05zm.214.323l-.009-.038h.009c.023-.006.036-.013.042-.023a.07.07 0 0 0 0-.047l-.064-.271a.06.06 0 0 0-.023-.041c-.015-.005-.031-.005-.046 0h-.009l-.008-.038.392-.09.035.117-.038.009a.2.2 0 0 0-.033-.045c-.009-.008-.02-.014-.032-.017s-.029-.003-.043 0l-.09.02.036.159.042-.01c.015-.002.029-.009.039-.02s.005-.033 0-.049l.038-.009.037.156-.039.008v-.006c-.002-.012-.008-.024-.016-.033s-.023-.013-.048-.007l-.043.01.026.114c.003.014.007.028.014.041a.03.03 0 0 0 .023.012c.018.003.035.003.053 0s.043-.014.062-.026c.014-.014.024-.031.03-.05s.009-.044.009-.066l.038-.01.033.153zm.877-.222a1.09 1.09 0 0 1-.1-.1.73.73 0 0 0-.054-.051c-.008-.006-.017-.01-.026-.012-.017.002-.034.006-.05.011l.031.108c.002.016.01.03.022.04a.06.06 0 0 0 .048 0h.007l.011.038-.247.068-.008-.038h.008c.023-.006.036-.014.041-.025s.005-.031 0-.046l-.076-.271c-.002-.016-.01-.032-.023-.042s-.032-.007-.047 0h-.014l-.011-.037.181-.051.042-.011a.73.73 0 0 1 .09-.021c.02-.004.041-.004.061 0s.041.015.056.03.024.033.03.052c.015.054-.011.112-.061.137.037.02.071.046.1.076.024.023.051.044.08.061.013.005.027.005.04 0l.009.038zm.222-.066l-.009-.029.128-.464-.074.023a.23.23 0 0 0-.09.044.1.1 0 0 0-.017.079l-.037.014-.032-.124.379-.123.008.031-.128.464.1-.035a.2.2 0 0 0 .061-.027c.013-.011.023-.026.028-.042a.22.22 0 0 0 .009-.066l.038-.012.037.136zm.71-.244l-.018-.035c.013-.004.025-.011.035-.019 0-.019-.005-.029-.013-.036l-.007-.009-.027-.027-.135.05v.026c-.002.012-.002.023 0 .035s.009.017.019.02.026-.003.038-.008l.014.036-.145.055-.014-.035c.027-.012.042-.045.042-.1l.006-.394.04-.014.271.289c.015.022.036.039.06.049.012.003.024.003.036 0l.014.036zm-7.645-7.298a2.52 2.52 0 0 1-.265-.157l-.247.157zm1.201-.108l-.211.1-.031.013h2.136l-.03-.013-.211-.1-.027-.013c-.091-.036-.183-.066-.278-.09h-1.045c-.095.024-.187.054-.278.09-.006 0-.014 0-.024.013m3.21-.047h-.005a1.73 1.73 0 0 1-.22.151h.452l-.211-.147-.015-.008m-4.957 4.272v-1.106a1.37 1.37 0 0 0 0 1.106m2.572-1.855l-2.048-.657h1.6z"/><path d="M13.608 8.969h-2.722 0a.1.1 0 0 0 .03.071l.11.143h2.519zm-.11.361h-2.382l.117.218h2.2zm-.106.362h-2.1c.029.072.053.145.075.22h1.949zm-.111.372h-1.878a1.63 1.63 0 0 1 .033.22h1.775zm-1.199.727h-.646a1.62 1.62 0 0 1-.045.219h.991zm-.2-.144l-.305-.22h-.13v.02c.008.066.01.133.005.2z"/><path d="M13.627 8.972l-.01-.032v2.142l2.047-.658h-1.6l-.042-.141h1.8a2.07 2.07 0 0 1 .039-.22h-1.904l-.045-.146h1.992l.081-.22h-2.141l-.044-.145h2.251l.119-.219h-2.44l-.045-.145h2.575a2.1 2.1 0 0 1 .145-.192c.007-.008.013-.018.016-.028zm.482 3.278v1.64c.069-.045.142-.083.219-.114v-1.357zm-.371-.283v2.373l.081-.134.012-.019a.81.81 0 0 1 .126-.172v-1.881zm-.368.09v1.906a.83.83 0 0 1 .181.22l.009.017.032.051V11.89zm-.361.279v1.422a1.24 1.24 0 0 1 .219.1v-1.691zm1.465 1.388c.072-.021.145-.038.219-.05v-.985l-.219-.167zm-1.826-.056l.219.045v-1.265l-.219.166z"/><path d="M13.618 11.08l-.748.271-.28-.2h-1.239l-.082.22-.079.167v1.621a1.14 1.14 0 0 0 .217.2v-1.988h.146v2.078a1.47 1.47 0 0 0 .219.1v-2.175h.144v2.219a1.8 1.8 0 0 0 .22.039v-2.259h.146v2.271h.09l.126.005v-.927l-.127.1zm-1.117.294h.145v.642l-.145.428z"/><path d="M15.979 11.374h0l-.083-.22h-1.252l-.279.2-.542-.2-.2-.074 1.219 1.722v.853l.169-.008h.05v-2.271h.146v2.259a1.8 1.8 0 0 0 .219-.033v-2.231h.145v2.191a1.37 1.37 0 0 0 .22-.09v-2.1h.145v2.021a1.37 1.37 0 0 0 .2-.165l.016-.024v-1.5a3.27 3.27 0 0 1-.173-.33m-1.143 1.37l-.145-.426v-.946h.145zm.009-1.734h1.01c-.018-.072-.032-.145-.042-.219h-.66z"/><path d="M15.659 10.427l-.305.22h.452c-.001-.051.002-.103.009-.154v-.067zm1.197-4.316a1.01 1.01 0 0 0 .181-.009c.455-.124.724-.594.6-1.049l-.006-.021c-.024.042-.044.091-.067.138-.042.09-.1.14-.112.134.134-.237.159-.505.067-.743a.78.78 0 0 0-.263-.361 1.34 1.34 0 0 0-1.406.009 1.29 1.29 0 0 0-.488-.3 1.32 1.32 0 0 1-.482.632.7.7 0 0 1-.2.106s-.048-.009-.006-.047a.99.99 0 0 0 .548-.848v-.006a1.2 1.2 0 0 0-.266-.723 1.4 1.4 0 0 0-1.638-.069c-.108.118-.182.264-.213.422.053-.152.178-.269.333-.312.181-.056.528-.017.58.192-.308-.315-.867-.082-.944.452-.007.035-.026.038-.026.038-.017 0-.037 0-.029-.243a1.48 1.48 0 0 1 .12-.49 1.19 1.19 0 0 0-1.459.838 1.17 1.17 0 0 0-.038.4.71.71 0 0 0 .193.43c.025.029.006.041.006.041-.02.011-.107-.047-.157-.116a.99.99 0 0 1-.157-.337 2.03 2.03 0 0 0-.944-.135 1.24 1.24 0 0 0-.7.4 1.72 1.72 0 0 0-.156.248c-.267.531-.095 1.178.4 1.506.337.161.715.217 1.084.162a.82.82 0 0 0 .311-.129l.04-.029.019-.014a.76.76 0 0 0 .244-.632c.005-.014.009-.016.013-.016.017 0 .041.074.04.169a1.05 1.05 0 0 1-.07.344v.053c.007.039.022.077.046.109a.4.4 0 0 0 .411.052h.009c-.066.087-.172.134-.281.124a.51.51 0 0 1-.111-.012c.166.2.421.302.679.271-.036.041-.095.056-.154.054-.144.001-.286-.03-.417-.09a1.19 1.19 0 0 0 .791.378c.012.048-.31.01-.4-.022.189.742.586.658.595.707-.058.021-.106.065-.132.121s-.029.121-.007.179a.25.25 0 0 0 .022.043 2.2 2.2 0 0 1 1.682.008.2.2 0 0 0 .024-.193c-.065-.181-.632-.329-1.175-.173-.025.01-.048.023-.07.038h-.007c.029-.032.053-.047.078-.06.311-.141.665-.155.986-.038.139.055.296-.013.352-.152a.27.27 0 0 0 .009-.173.27.27 0 0 0 .3-.233c.001-.009.001-.019 0-.028-.029.016-.059.03-.09.042a.18.18 0 0 1-.124.024v-.009h.005l.071-.035a.83.83 0 0 0 .434-.643c-.048.075-.131.119-.22.117-.05 0-.079-.006-.079-.014.045-.016.08-.031.109-.053a.86.86 0 0 0 .259-.343c-.178-.199-.306-.436-.375-.694-.039-.122-.144-.211-.271-.23H14.7a.41.41 0 0 0-.048.009h-.009c.148-.124.312.01.409.065.015-.271.115-.345.123-.342a1.15 1.15 0 0 0 .48 1.284 1.5 1.5 0 0 0 1.58-.16 1.02 1.02 0 0 1-.256.041c-.1 0-.169-.02-.17-.038s.024-.02.029-.019m-6.393-.033c.252-.063.473-.2.408-.436-.022-.076-.092-.129-.172-.13-.132.003-.251.08-.307.2-.005-.099.035-.194.109-.26a.33.33 0 0 1 .27-.08c.138.021.254.116.3.248.069.351-.251.5-.611.464zm.895-.249c.106-.29.16-.73-.3-.844a.99.99 0 0 0-.845.327c.139-.381.551-.587.939-.47-.1-.271-.452-.39-.862-.163a1.37 1.37 0 0 0-.239.181.72.72 0 0 1 .441-.432.78.78 0 0 1 .79.167.88.88 0 0 1 .075 1.233zm2.349 1.508c-.209.007-.234-.143-.271-.3.09.074.22.173.211.005-.076-.068-.548-.19-.423-.395.078-.111.329.339.4.188.042-.3-.9-.4-.872-.658 0-.14.743.361.848.349-.01-.161-1.1-.6-1.432-1.2-.024-.042-.037-.081-.029-.09h.01a2.56 2.56 0 0 0 1.405.94c.221.07.333.8.149 1.16zm.247.181c-.07-.021-.03-.146-.03-.2a3.2 3.2 0 0 0-.09-.874 5.19 5.19 0 0 0-.417-1.066 3.24 3.24 0 0 1 .582 1.265 1.56 1.56 0 0 1-.048.88zm.341-1.863c.2.082-.1.483-.125.558.046-.022.207-.194.271-.142.1.086-.211.5-.294.527-.445-.576.122-.745.144-.94zm-.053 1.693c-.061-.028-.064-.146-.055-.2.023-.147.193-.214.271-.293-.005.189-.084.368-.219.5zm-.055-.411c-.085-.15.143-.339.194-.487.272-.039-.076.448-.2.488zm.25-3.957a.6.6 0 0 1 .473.446c.014.229-.114.3-.136.286-.007 0-.01-.018-.007-.026a.57.57 0 0 0-.08-.535.99.99 0 0 0-.252-.168zm2.345 2.258h-.009a.47.47 0 0 1 .005-.109.74.74 0 0 0-.013-.264c-.1-.446-.472-.6-.736-.34.189-.321.579-.464.93-.339a.63.63 0 0 1 .368.376c.064.144.061.31-.008.452h-.01v-.01a.79.79 0 0 0-.069-.407.4.4 0 0 0-.211-.229 1.4 1.4 0 0 1 .141.239.43.43 0 0 1 .042.187c.005.186-.06.368-.181.51h-.011v-.01c.101-.201.11-.435.024-.643a.5.5 0 0 0-.029-.059.47.47 0 0 0-.4-.286.68.68 0 0 1 .224.282.6.6 0 0 1-.062.658z"/><path d="M22.99 10.857a13.06 13.06 0 0 0-.4-2.891c-.158-.542-.464-1.641-1.175-1.793-.133-.02-.268.014-.376.094a.51.51 0 0 0-.2.332.6.6 0 0 0-.005.095c0 .24.173.361.1.6-.096.156-.171.324-.222.5-.042.173.111.243.061.427-.215-.032-.331.148-.649.083a1.04 1.04 0 0 1-.59.06c.333-.017.623-.122.682-.263.076-.225.025-.474-.133-.652-.283.137-.599.192-.911.157-.524-.032-.655.067-.729.385a.22.22 0 0 1-.026-.151c.02-.173.194-.282.407-.3a.39.39 0 0 0 .05-.219.89.89 0 0 0-.259.009.87.87 0 0 0-.681.43.4.4 0 0 0-.018.13.57.57 0 0 0 .018.111l.026.08c.08.172.277.271.7.288.007 0 .019.006.018.014-.061.025-.129.032-.194.022a.84.84 0 0 1-.564-.2l-.032.036a.8.8 0 0 1-.473.223.63.63 0 0 1-.475-.216c-.253-.34.074-.928.07-1.146-.015-.586-.813-.322-1.1-.169a2.87 2.87 0 0 0-.857.766 2.61 2.61 0 0 0-.338.508 1.84 1.84 0 0 0 .632.181h.013c.027.002.054.002.081 0 .184.006.365-.051.513-.161a.3.3 0 0 1 .185-.069c.075 0 .147.03.2.083l.708.542a.19.19 0 0 1 .079.127c.007.065-.015.13-.062.176-.187.222-.34.472-.452.74a1.8 1.8 0 0 0-.066.181c-.061.214-.1.555.194.66 0 0 .33.086.3-.459 0 0 .052.35.309.338.108 0 .206-.113.188-.349a3 3 0 0 1 .023-.768c-.001-.011.001-.021.007-.03a.67.67 0 0 1 .023.141c-.035.858.315 1.686.954 2.259a1.92 1.92 0 0 1-.741-.752.67.67 0 0 0-.305.8.72.72 0 0 0 .257.361c.007.006.011.014.012.023 0 .022-.057.062-.151-.033a.6.6 0 0 1-.043-.052 1.02 1.02 0 0 1-.085-.158c-.119-.1-.228-.216-.337-.327-.084-.169-.037-.675-.532-.676h-.046c-.029.001-.057.005-.085.012h-.018a1.87 1.87 0 0 1-.09-.767 2.76 2.76 0 0 1 .6-1.229c.023-.022.036-.052.036-.084-.003-.018-.013-.033-.027-.044-.171-.114-.662-.508-.723-.553v-.005a.18.18 0 0 0-.12-.052c-.04.001-.078.016-.108.041a.94.94 0 0 1-.589.19c-.03 0-.06-.002-.09-.005h-.008c-.249-.027-.491-.099-.713-.214-.593-.285-1.283-.285-1.876 0-.222.115-.464.187-.713.214-.014 0-.048.005-.1.005a.94.94 0 0 1-.589-.188.19.19 0 0 0-.107-.04c-.044.002-.086.021-.118.052l-.005.005-.723.553c-.014.011-.023.026-.026.044a.11.11 0 0 0 .034.084 2.74 2.74 0 0 1 .606 1.229c.01.092.01.185 0 .277l-.111-.339a.55.55 0 0 0-.072-.186.76.76 0 0 0-.283-.251q-.138-.056-.271-.125a.97.97 0 0 1-.355-.354 1.12 1.12 0 0 0-.175-.573c.048-.022.248.122.264.476.233-.288.383-.633.436-1 .181-.244.677-.148.866-.115a.46.46 0 0 1 .169.054c.052.039.066.123.139.154a.56.56 0 0 0 .263 0 .5.5 0 0 1 .07.126h.078a1.96 1.96 0 0 0 .669-.2l-.002-.013a.36.36 0 0 0 .042-.016.63.63 0 0 0-.417-.194c-.185-.03-.288-.186-.464-.224-.083-.02-.169-.024-.254-.014a4.6 4.6 0 0 1-1.037-.124c-.348-.024-.361.213-.486.409a1.17 1.17 0 0 1-.162.216c-.1.09-.208.1-.323.187l-.017-.012a1.32 1.32 0 0 0-.163-.452v-.007c-.009-.014-.016-.029-.025-.044-.173-.318-.475-.546-.828-.625a.47.47 0 0 1-.146-.079c-.017-.01-.029-.026-.034-.045s-.002-.039.009-.055c.006-.01.015-.019.025-.025.12-.069.327-.045.464-.108.334-.156.218-.44.085-.464a3.03 3.03 0 0 1-.534-.146c-.08-.052-.13-.193-.262-.239-.089-.028-.184-.033-.276-.016-.081.012-.135.071-.2.061.093-.114.232-.18.379-.181-.148-.04-.1-.279-.233-.333-.085-.002-.168.021-.24.066-.009-.075-.052-.329-.192-.41-.112-.065-.153.036-.147.1s.173.129.2.389l-.09.06a.52.52 0 0 0-.181-.335c-.113-.066-.155.033-.148.1s.151.119.194.34l-.111.1c-.227-.061-.276-.22-.332-.232s-.169.019-.115.138a.52.52 0 0 0 .325.216l-.07.079c-.263-.052-.317-.229-.376-.24s-.167.018-.114.136c.07.152.329.22.395.234a.27.27 0 0 0-.054.181c-.2-.023-.563.086-.5.325.067.049.309-.148.529-.037a.8.8 0 0 0 .433.276.59.59 0 0 1 .131.288 2.4 2.4 0 0 0 .315.524l.386.556a.33.33 0 0 1 .024.164c-.236.255-.498.485-.781.687-.186.173-1.937 1.506-2.157 2.086-.054.152-.077.312-.069.473a.35.35 0 0 1-.348-.039c-.116-.136.119-.267.062-.452-.037-.07-.121-.1-.194-.07-.13.046-.156.307-.09.464.018.045.09.1.035.136s-.107-.041-.107-.133c-.045.036-.066.095-.053.152.033.128.189.13.24.164-.005.056-.09.082-.151.03-.1.142.012.2.035.2.1.019.218-.077.286-.085.03.073-.022.1-.132.126.175.211.332-.153.527-.109.061.013.61.528.516.92a.33.33 0 0 1-.038.09c-.123.151-.323.271-.463.41-.289.181.271 1.335.229 1.925-.036.231.2.188.332.564a.41.41 0 0 0-.351.143c-.008.01-.016.02-.022.031-.026.043-.039.093-.038.143 0 .159.129.288.288.288s.288-.129.288-.288c.002-.014.002-.029 0-.043a.56.56 0 0 1 .233.051l.253.138a2.59 2.59 0 0 1-2.349.314s-.662-.211-.476-.8a.33.33 0 0 1 .122-.156c.033.151.168.259.323.257a.33.33 0 0 0 .238-.559c-.013-.014-.029-.027-.045-.038h0-.005a.56.56 0 0 0-.477-.051.64.64 0 0 0-.434.791.69.69 0 0 0 .03.082s-.431-.1-.594.1c-.036.047-.054.105-.051.164v.006c.005.05.02.098.044.141.048.066.124.106.205.107a.25.25 0 0 0 .2-.09c.017-.023.06-.046.149.027a1.9 1.9 0 0 0 1.473.576s.024.452.332.535a.38.38 0 0 0 .044.006c.071-.014.123-.077.123-.15s-.051-.136-.123-.15h-.014a.69.69 0 0 1-.017-.244 3.68 3.68 0 0 0 1.606-.652 4 4 0 0 0 .736.141s.042.1-.155.121c0 0-.253 0-.246.076 0 0-.016.09.181.09 0 0-.026.09.135.181 0 0 .1.054.048.122 0 0-.192.1-.135.226 0 0 .052.154.319.116 0 0 .09 0 .017.075 0 0-.134.142.09.258.106.055.235.015.292-.09 0 0 .024-.071.134-.018 0 0 .568.259.865-.166 0 0 .019-.065.1.046a1.5 1.5 0 0 0 1.1.381.3.3 0 0 0 .563-.09 1.61 1.61 0 0 0 .826-.279l.283-.154a.42.42 0 0 0 .402.406.42.42 0 0 0 .433-.373.42.42 0 0 0-.342-.458c-.235-.041-.477.016-.669.158a1.77 1.77 0 0 1-.389.218l.131-.75-.181-.022c-.044.372-.129.8-.279.821l-.213.044a.24.24 0 0 0-.04-.075c-.052-.072-.141-.107-.228-.09l-.021.005c-.098.025-.17.108-.181.209-.203.046-.415.02-.6-.075 0 0 .351-.122.392-.247 0 0 .1-.2-.241-.4 0 0-.259-.152-.331.012 0 0-.024.072.09.173 0 0 .125.133-.115.111-.078-.006-.154-.033-.217-.08a4.07 4.07 0 0 1 .146-.751l-.271-.072a3.23 3.23 0 0 0-.1.317s-.014.26-.11.327a.73.73 0 0 1-.193-.763l-.315-.1c.006.408.128.805.35 1.147 0 0-.271.367-.564.175 0 0-.4-.26-.146-.492 0 0 .176-.146.252.036a.17.17 0 0 0-.163.17c0 .091.073.166.164.168s.168-.068.173-.159c.02-.139-.032-.279-.138-.371s-.247-.132-.383-.1a1.33 1.33 0 0 0 .246-.542c.001-.032.007-.064.017-.095l-.2-.074c-.016.244-.09.69-.421.568l.354-.595-.4-.164-.036-.015a.6.6 0 0 1-.085.5s-.166.155-.452-.069l.5-.452a.96.96 0 0 0-.318-.069h-.1l-.021.014c-.133.098-.275.184-.423.257-.034.019-.077.01-.1-.021a.66.66 0 0 1-.07-.752s.141-.344.446-.271c.066.008.12.055.137.119 0 0-.293.011-.258.216 0 0 0 .214.271.2 0 0 .366-.036.279-.48 0 0-.062-.271-.271-.271 0 0 .117-.145.033-.2 0 0-.09-.084-.283.054 0 0-.051.1-.289.045-.086-.037-.186-.015-.247.056 0 0-.041.016-.041.187 0 0 .018.067-.09.244a.87.87 0 0 0-.07.314.53.53 0 0 0-.243-.113c-.12-.126-.13-.71-.256-.994-.028-.066.057-.361.059-.68a1.71 1.71 0 0 0 1.316-1.178 2.22 2.22 0 0 0-.068-1.117c0-.016.015-.016.023 0a1.51 1.51 0 0 1 .1.23 2.11 2.11 0 0 0 .92-.082l.033-.013.043-.017.1-.049.036-.02c.46-.257.831-.647 1.066-1.119a.83.83 0 0 1-.441-.238c.227.019.4.114.626.115.334 0 .558-.181.926-.14 0 .02.05.174.286.271a1.67 1.67 0 0 0 .086.557c.007.024.018.048.032.069 0 0-.276.213-.205.393l.056.138a.14.14 0 0 1-.041-.006c-.04-.018-.09.054-.15.15-.032.051-.181.353-.068.379.022.004.045.007.068.008-.084.379-.011.775.2 1.1v.005c.345.468.908.725 1.488.679h.016c.107 0 1.049.019 1.387.646.019.037.09.143.175.143s.157-.106.181-.141c.338-.633 1.28-.648 1.387-.648h.015a1.7 1.7 0 0 0 1.49-.679v-.005c.12-.173.195-.372.22-.581.211-.116.2-.59.2-.675a.77.77 0 0 0 .445.382c-.042.225-.028.594.212.643.073.007.135-.1.116-.185.209.593.036.959.192 1 .2 0 .208-.351.227-.361a.6.6 0 0 1 .086.3c0 .181-.023.367.06.4.278.046.146-.764.361-.683-.052.361 0 .562.149.621-.005.163-.023.323-.09.323-.4.09-.762-.226-1.109-.131a.43.43 0 0 1-.036-.024c-.329-.184-.719-.226-1.08-.118-.181-.165-.248.083-.3.054-.334-.189-.52.132-.606.146s-.22-.168-.374.21c-.07.167-.444.238-.473.247-.15.018-.181-.086-.181-.086-.012-.037-.027-.073-.044-.108-.013-.028-.032-.053-.054-.074-.04-.039-.096-.057-.151-.05a.21.21 0 0 0-.2.22c.002.043.017.083.043.117.012.01.045-.038.09-.035.081.002.147.068.149.149.011.17-.248.341-.248.341-.151.134-.339-.052-.339-.052a.41.41 0 0 0-.181-.09c-.02.071-.085.121-.159.121s-.139-.049-.159-.121c-.067.015-.129.046-.181.09 0 0-.187.187-.338.052 0 0-.258-.17-.248-.341.002-.081.068-.147.149-.149.049 0 .082.045.09.035a.22.22 0 0 0 .043-.128c0-.112-.088-.205-.2-.211-.055-.007-.111.011-.151.05a.25.25 0 0 0-.055.074c-.018.034-.032.071-.043.108-.032.068-.108.104-.181.086-.031-.009-.4-.08-.472-.247-.155-.377-.3-.2-.376-.21s-.271-.336-.606-.146c-.052.029-.12-.22-.3-.054a1.45 1.45 0 0 0-.861.019c-.031-.061-.192-.09-.238-.109-.093-.038-.18-.087-.262-.145a1.83 1.83 0 0 0-.542-.046.65.65 0 0 1-.208-.076 2.04 2.04 0 0 1-.588-.481c-.021-.032-.076-.1-.085-.115a.87.87 0 0 1-.147-.28 1.97 1.97 0 0 1 .078-.8l.027-.251a1.55 1.55 0 0 1-.8-.034 1.98 1.98 0 0 1 .068.806c.107.082.181.198.211.329.014.133-.048.271.03.379a2.21 2.21 0 0 0 .527.41q.417.327.866.611c.1.02.166-.055.256-.04a.23.23 0 0 1 .079.049.81.81 0 0 0 .148.124l-.691.4s-.323.181-.172.181c0 0 .228-.007.246.042l-.241.1q.51.18 1.043.328a2.51 2.51 0 0 1 .8-.567.6.6 0 0 0 .542-.279c.041-.09.211.17.567-.026.033-.018.086.078.188.1.033.009-.145.035-.109.192.005.02-.289 0-.388.166a2.68 2.68 0 0 0-1.214.506l.317.073a1.01 1.01 0 0 1 .667-.22c.233.034.423.202.486.429q.323.045.649.079h-.006c.061-.026.361-.173.225-.351 0 0-.071-.09-.2.029 0 0-.08.071-.113-.042-.007-.041-.021-.08-.042-.116 0 0-.061-.09.057-.047.069.019.14.025.211.019a.2.2 0 0 0 .191-.2c.007-.114-.078-.212-.192-.22 0 0-.022 0-.023.016.017.014.027.035.027.057 0 .042-.033.084-.072.074-.124-.034-.09-.271.08-.281a.41.41 0 0 1 .271.156s.286.427.548.517c.018.006-.048.154.12.206.019 0 0 .133.166.12a.75.75 0 0 1 .079.148l.452.006.452-.006a.7.7 0 0 1 .078-.148c.171.013.148-.116.168-.12.167-.052.1-.2.12-.206.262-.09.547-.517.547-.517a.41.41 0 0 1 .271-.156c.169.007.205.247.08.281-.039.009-.073-.033-.073-.074.001-.022.011-.043.029-.057 0-.012-.021-.016-.024-.016-.114.008-.199.106-.192.22a.2.2 0 0 0 .191.2.6.6 0 0 0 .211-.019c.117-.042.058.047.058.047-.021.036-.035.075-.041.116-.033.113-.114.042-.114.042-.125-.118-.2-.029-.2-.029-.135.181.164.324.225.351h-.007l.649-.079a.6.6 0 0 1 .487-.429 1.01 1.01 0 0 1 .669.22l.316-.073a2.67 2.67 0 0 0-1.214-.506c-.1-.164-.394-.146-.389-.166.038-.156-.141-.181-.109-.192.1-.027.156-.123.19-.1.356.2.527-.066.568.026.132.3.537.279.537.279.301.135.573.328.8.567l.951-.3v-.011c-.005-.018-.012-.035-.019-.052a.89.89 0 0 0-.052-.098 2.57 2.57 0 0 0-.241-.317l-.014-.014s.234-.361.381-.114c.012.031-.014.117-.161.117a1.95 1.95 0 0 1 .214.452l.15-.052a.15.15 0 0 0 .042-.009c-.09-.181-.228-.282-.189-.342.035-.014.163.05.235-.058a1.45 1.45 0 0 0 .053-.3.57.57 0 0 0 .232.055c.241-.006.331-.37.265-.489.036-.023.181-.139.191-.108.075.172.468.356.433-.032.063.188.109.4.329.385.157-.037.054-.308.111-.308.047.079.114.389.348.313a.18.18 0 0 0 .128-.181c.013-.3-.842-1.858-.917-2.53l-.041-.015c-.082-.042-.09-.181-.077-.271-.1-.037-.263-.126-.289-.412 0-.255.111-.382.136-.382.009 0 .012.016.009.025-.066.2-.113.441.034.575a.29.29 0 0 0 .149.058.24.24 0 0 1 .117-.127c.008 0 .006.014.005.02a.4.4 0 0 0-.005.417c.042.041.097.065.156.069.237-.085.361-.542.412-.68.157.033-.258.948.061 1.145.131-.011.206-.163.254-.3.1.271-.337.837-.02.965.2.049.262-.452.271-.385.056.759-.342 1.125-.09 1.243.214.1.289-.518.288-.44-.007.809-.414 1.035-.24 1.175.2.08.343-.408.341-.293-.019.723-.38.916-.219 1.145.186.264.534-.473.551-.334.021.169-.394 1.007-.156 1.066.2.049.271-.238.289-.3a15.35 15.35 0 0 0 .614-4.8m-6.194-3.818c-.011.007-.025.007-.036 0a.86.86 0 0 0-.7.041c-.117.074-.224.162-.319.262a1.05 1.05 0 0 1 .752-.483c.293.006.324.155.3.18m1.052 1.348a.56.56 0 0 1-.317.294.64.64 0 0 1-.561-.192c.148.053.302.087.458.1.155-.027.298-.101.409-.212.011-.014.022 0 .011.016zm-11.711 7.56h0a1.42 1.42 0 0 1 .117.09c.011.01.02.021.028.033-.02.045-.065.042-.123.018h-.013A.95.95 0 0 1 6 16.006c-.044.066.039.135.08.19-.011.021-.032.034-.056.035-.03.004-.061 0-.09-.011h-.005c-.082-.039-.1-.159-.1-.225a.28.28 0 0 0-.141-.22c.163-.113.41.149.435.17zm1.489-9.006c.244.09.265-.22.325-.147.085.142-.147.36-.324.147zm.307-.252c-.1-.008-.173-.072-.263 0a.25.25 0 0 0-.108.224.09.09 0 0 1-.092.089c-.02 0-.039-.007-.055-.02-.09-.2.237-.483.317-.509.185-.068.323.047.527.077.117.017.243 0 .339.007.219.019.161.181.124.2-.181.052-.286-.09-.44-.11-.112-.012-.234.052-.347.042zm.834 1.29c-.264-.09-.567-.136-.68-.349a2.73 2.73 0 0 1 1 .171l.029.019a.93.93 0 0 1 .361.506 2.92 2.92 0 0 0-.713-.346zm1.971 2.281c-.075.017-.09-.314-.489-.236A.59.59 0 0 1 9.722 10c.571-.319 1.047.005 1.006.259zm5.879.851a.41.41 0 0 1 .081-.006h0a.3.3 0 0 1 .085.012.44.44 0 0 1 .1.211.7.7 0 0 0 .106.238c.054.052.033.158-.1.142h-.008c-.187-.067-.289-.268-.232-.458a.3.3 0 0 0-.1 0c-.017.003-.034.008-.05.014h-.013c-.01.004-.019.009-.027.015l-.022.012c-.033.029-.046.079-.09.081.005-.082.05-.157.12-.2a.42.42 0 0 1 .144-.063zm-5.8.76c-.005.01-.009.021-.012.032q-.011.027-.024.054l-.013.023-.02.034-.014.021-.034.044-.012.01c-.01.011-.02.021-.032.03-.029.022-.045.031-.061.039h0a.22.22 0 0 1-.049.016h-.014a.3.3 0 0 1-.06 0c-.007-.012-.011-.027-.01-.041 0-.061.063-.114.09-.181s.022-.1.056-.152c.063-.007.114.015.133-.042a.23.23 0 0 1 0-.326c.008-.008.016-.015.025-.022.171-.175 0-.542.031-.588a.54.54 0 0 1 .1.319v.347a.16.16 0 0 1 0 .031c.001.022-.001.044-.006.065s0 .025-.006.04l-.008.042c.001.011-.001.023-.006.033s-.008.025-.01.038a.58.58 0 0 1-.015.06l-.011.033a.28.28 0 0 1-.013.039zm5.526 1.255a1.5 1.5 0 0 1-1.331.616c-.084 0-.834.014-1.091.492l-.014.022-.167.288c-.008.015-.024.025-.042.025s-.034-.009-.042-.025c-.042-.084-.137-.235-.167-.288-.006-.007-.01-.014-.014-.022-.258-.477-1.007-.492-1.092-.492-.521.042-1.027-.192-1.332-.617-.267-.45-.276-1.008-.023-1.466a1.99 1.99 0 0 0 .334-1.2 2.22 2.22 0 0 0-.511-1.345c-.037-.039-.056-.092-.052-.146a.15.15 0 0 1 .077-.113l.42-.271.044-.028a.07.07 0 0 1 .033-.011c.028 0 .052.019.09.051a.84.84 0 0 0 .556.2 1.07 1.07 0 0 0 .162-.013c.142-.035.28-.086.41-.153.079-.042.174-.084.22-.1l.021-.009c.548-.246 1.175-.246 1.723 0l.023.009.221.1c.13.067.268.119.411.153a.97.97 0 0 0 .162.013.83.83 0 0 0 .554-.2c.043-.033.068-.051.1-.051.015.001.029.006.04.016l.044.027.423.271c.037.024.06.063.065.106.005.054-.014.107-.052.146a2.22 2.22 0 0 0-.511 1.337 2 2 0 0 0 .335 1.212c.25.46.242 1.017-.023 1.469zm.663-.565h0c-.007.012-.015.021-.023.032l-.025.023-.026.014a.1.1 0 0 1-.027.007h-.046c-.009-.002-.017-.004-.025-.008l-.041-.02-.017-.009-.033-.026c-.014-.011-.075-.111.019-.129.011.013.023.024.036.035l.01.006c.007.006.015.01.023.013h.008c.014.006.031 0 .039-.013v-.007l.01-.019v-.01a.2.2 0 0 1 .009-.035v-.066c.001-.009.001-.019 0-.028a1.63 1.63 0 0 1 .05-.467c.007-.012.02-.021.034-.023s.018.002.025.007l.008.007.009.013v.014c.001.007.001.014 0 .021v.258a.58.58 0 0 0 .009.118.49.49 0 0 1-.036.3zm1.73.337a.92.92 0 0 1-.783-.4 1.56 1.56 0 0 0 .335.233.79.79 0 0 0 .7-.09c.011-.007.025-.007.036 0 .025.029 0 .2-.289.258zm-9.018 1.447c.002.007.002.015 0 .022l-.01.009c-.039.02-.068.025-.096.024a.9.9 0 0 1-.155-.016c-.005.034.013.067.043.083.012.009.026.017.04.023l.066.033c0 .053-.09.086-.13.086-.09 0-.155-.1-.185-.164-.008-.007-.017-.013-.026-.019l-.022-.014c-.1-.044-.209-.067-.319-.066.022-.212.6-.067.617-.063a.7.7 0 0 1 .185.047zm8.8.505h0c-.004.01-.007.021-.009.032a1.04 1.04 0 0 1-.348-.166c-.064-.046-.144-.064-.221-.049-.09.042-.136.138-.191.185-.006-.018-.011-.036-.015-.054v-.069a.24.24 0 0 1 0-.036c.01-.032.018-.046.027-.059.004-.008.009-.016.015-.023 0-.005.01-.008.015-.014a.1.1 0 0 1 .029-.019l.012-.007c.056-.028.119-.039.181-.033a.42.42 0 0 1 .246.095.61.61 0 0 0 .333.09.8.8 0 0 0-.072.131zm2.137-6.4a.97.97 0 0 1-.322.158.44.44 0 0 1-.473-.144c.149-.048.277.054.481.03a1.25 1.25 0 0 0 .192-.036c.063-.017.1-.079.169-.079.023.03-.023.057-.046.078zm1.911 5.494a4.18 4.18 0 0 1-.157.67c.427-3.867.192-4.824.121-4.81s-.131.477-.345.338.481-.988.206-1.458c-.063-.076-.121.107-.232.074-.284-.09.156-.829.074-.9-.062-.054-.276-.1-.284-.373 0-.123.083-.223-.018-.327-.08-.077-.064.072-.148.035-.133-.142-.011-.3-.077-.408-.037-.027-.128.09-.2.029s.043-.188-.052-.233c-.175.025-.297.186-.276.361.019.107.145.181.136.3s-.136.228-.158.282c-.181.417.126.5.082.65-.019.07-.152.112-.237.078-.112-.046-.137-.419-.1-.573.042-.174.285-.388.284-.483s-.117-.229-.129-.373a.34.34 0 0 1 .276-.4.32.32 0 0 1 .1 0c.136.047.251.139.328.26.037.042.086.079.115.114a4.09 4.09 0 0 1 .589 1.348 13.47 13.47 0 0 1 .106 5.809zm12.904-6.77c-.543.275-1.142.422-1.751.431-1.446 0-2.182-1-2.182-2.541a2.14 2.14 0 0 1 2.246-2.447 2.8 2.8 0 0 1 1.593.424l-.395.717a2.15 2.15 0 0 0-1.184-.307c-.876 0-1.27.639-1.27 1.6 0 1.141.424 1.751 1.256 1.751a1.93 1.93 0 0 0 .818-.151v-.9h-.66l-.057-.7h1.586zm3.927-1.408c0 1.2-.6 1.837-1.651 1.837s-1.651-.633-1.651-1.837a1.66 1.66 0 1 1 3.3 0m-.962 0c0-.847-.251-1.141-.689-1.141s-.681.3-.681 1.141c0 .819.222 1.148.681 1.148s.685-.308.685-1.148zm2.536-1.392a1.24 1.24 0 0 1 .933-.43c.825 0 1.421.588 1.421 1.822 0 1.213-.717 1.837-1.536 1.837-.404.023-.79-.166-1.019-.5l-.173.424h-.5V2.572h.937v1.227zm.063 2.18c.147.211.382.344.639.361.409 0 .71-.3.71-1.148s-.266-1.134-.7-1.134a.99.99 0 0 0-.653.28zm3.293.978V4.687l-.409-.09V4.01h1.339v3.517zm-.029-4.952h.947v.854h-.947zM46.9 6.024a.8.8 0 0 0 .716.872.77.77 0 0 0 .188 0 2.36 2.36 0 0 0 1.034-.295l.181.66c-.408.22-.863.338-1.327.344a1.63 1.63 0 0 1-1.184-.402c-.326-.286-.525-.689-.554-1.121a1.58 1.58 0 0 1 .009-.314c0-1.084.524-1.822 1.651-1.822 1.063 0 1.478.79 1.478 1.672v.409zm.66-1.392c-.466 0-.66.424-.66.839h1.285c0-.454-.138-.84-.625-.84zm4.235.163c-.143-.04-.29-.06-.438-.058a1.01 1.01 0 0 0-.632.237v2.555h-.933V4.016h.653l.1.473h.022c.153-.326.479-.536.839-.542a1.6 1.6 0 0 1 .409.051zm2.749 2.734V5.441c0-.531-.2-.783-.632-.783a1.14 1.14 0 0 0-.617.215v2.656h-.941V4.012H53l.144.4a1.46 1.46 0 0 1 1.112-.473c.89 0 1.241.524 1.241 1.414v2.175zm4.882-1.766c0 1.2-.6 1.837-1.651 1.837s-1.651-.633-1.651-1.837a1.66 1.66 0 1 1 3.3 0m-.961 0c0-.847-.251-1.141-.689-1.141s-.682.3-.682 1.141c0 .819.222 1.148.682 1.148s.689-.308.689-1.148m-24.561 4.562a2.17 2.17 0 0 1-.09-.646V8.616h.933v4.951h-.752l-.108-.388a1.14 1.14 0 0 1-.933.459c-.8 0-1.436-.574-1.436-1.831 0-1.163.66-1.83 1.514-1.83a1.14 1.14 0 0 1 .872.346m-.09.531a1.25 1.25 0 0 0-.639-.173c-.445 0-.723.3-.723 1.12 0 .839.266 1.156.711 1.156.249-.008.485-.116.653-.3z"/><path d="M36.404 12.061a.8.8 0 0 0 .716.872.77.77 0 0 0 .188 0 2.35 2.35 0 0 0 1.034-.295l.181.661a2.89 2.89 0 0 1-1.327.344c-.487.032-.963-.155-1.298-.511a1.63 1.63 0 0 1-.43-1.326c0-1.084.524-1.822 1.651-1.822 1.063 0 1.478.789 1.478 1.672v.409zm.66-1.392c-.466 0-.66.424-.66.839h1.285c0-.452-.136-.839-.624-.839zm5.808 2.972c-1.363 0-2.1-.9-2.1-2.519 0-1.507.723-2.469 2.1-2.469.578-.024 1.151.118 1.651.409l-.361.761a2.03 2.03 0 0 0-1.192-.337c-.8 0-1.205.567-1.205 1.626 0 1.12.4 1.694 1.192 1.694a2.24 2.24 0 0 0 1.278-.445l.3.761c-.487.341-1.068.523-1.663.519m2.298-.073V8.616h.94v1.3a1.54 1.54 0 0 1-.09.542 1.25 1.25 0 0 1 1.012-.481c1 0 1.285.524 1.285 1.414v2.178h-.955v-2.1c0-.5-.2-.775-.624-.775a1.09 1.09 0 0 0-.624.215v2.656zm4.192 0v-2.841l-.409-.09v-.588h1.342v3.52zm-.029-4.952h.948v.854h-.95zm1.824 4.02V8.617h.925v3.968c0 .295.181.338.567.338v.661a2.92 2.92 0 0 1-.517.057c-.717 0-.976-.38-.976-1m2.905-.58a.8.8 0 0 0 .716.872.77.77 0 0 0 .188 0c.362-.017.716-.118 1.033-.295l.181.661a2.89 2.89 0 0 1-1.327.344 1.63 1.63 0 0 1-1.184-.402c-.326-.286-.525-.689-.554-1.121a1.58 1.58 0 0 1 .009-.314c0-1.084.524-1.822 1.651-1.822 1.063 0 1.478.789 1.478 1.672v.409zm.66-1.392c-.466 0-.66.424-.66.839h1.285c0-.452-.136-.839-.623-.839zM34.777 56.551h-1.01l-.441-2.036-.552 2.036h-.96l-.568-2.7h.794l.32 2.152h.023l.568-2.152h.849l.508 2.152h.016l.4-2.152h.7zm4.26 0h-1.01l-.441-2.036-.552 2.036h-.962l-.568-2.7h.794l.32 2.152h.023l.567-2.155h.851L38.567 56h.017l.4-2.152h.7zm4.259 0h-1.009l-.441-2.036-.552 2.036h-.96l-.568-2.7h.8l.32 2.152h.023l.568-2.152h.85l.508 2.152h.016l.4-2.152h.7zm.928-.776h.728v.778h-.728zm3.746-1.927l-.011.536a1.98 1.98 0 0 1-.508-.09.73.73 0 0 1 .271.425 1.02 1.02 0 0 1-1.11.927h-.005a1.64 1.64 0 0 1-.348-.05c-.083.028-.133.077-.133.148 0 .293 1.717-.05 1.717.966 0 .633-.607.982-1.286.982-.568 0-1.142-.248-1.142-.745 0-.348.276-.529.717-.6-.336-.039-.673-.144-.673-.458 0-.226.21-.392.513-.414a.83.83 0 0 1-.485-.761.99.99 0 0 1 .336-.682 1 1 0 0 1 .72-.245l.059.005 1.367.051m-1.474 2.549a.4.4 0 0 0-.414.378v.02c0 .238.215.408.508.408.325 0 .542-.165.542-.447 0-.237-.211-.325-.635-.359zm.585-1.689c0-.32-.271-.4-.48-.4s-.486.083-.486.4c0 .342.259.425.486.425s.481-.082.481-.425zm3.787.494c0 .922-.464 1.412-1.265 1.412s-1.265-.485-1.265-1.412c-.05-.457.15-.905.522-1.173s.861-.316 1.278-.123.699.594.737 1.052a1.23 1.23 0 0 1 0 .245zm-.739 0c0-.651-.193-.877-.529-.877s-.524.232-.524.877.171.883.524.883.529-.24.529-.883m1.947-1.072c.18-.209.441-.329.717-.331.632 0 1.092.452 1.092 1.4 0 .932-.552 1.412-1.181 1.412a.89.89 0 0 1-.783-.38l-.133.326h-.386v-3.809h.723v.943zm.05 1.677a.65.65 0 0 0 .492.276c.314 0 .542-.231.542-.883s-.2-.872-.535-.872c-.187.008-.365.084-.5.215zm2.218-.027h.728v.778h-.728zm3.445.597a2.08 2.08 0 0 1-.927.238c-.806 0-1.291-.458-1.291-1.407a1.24 1.24 0 0 1 1.063-1.4 1.27 1.27 0 0 1 .222-.01 1.82 1.82 0 0 1 .927.22l-.188.492a1.35 1.35 0 0 0-.679-.165c-.376 0-.613.254-.613.861s.226.861.618.861a1.59 1.59 0 0 0 .734-.2zm.489-.537v-3.091h.712v3.052c0 .226.137.259.436.259v.508c-.132.026-.266.041-.4.043-.552 0-.751-.291-.751-.771"/></g></svg>