<svg xmlns="http://www.w3.org/2000/svg" width="53.359" height="53.359" viewBox="0 0 53.359 53.359">
  <g id="Grupo_13699" data-name="Grupo 13699" transform="translate(-4250.069 -5747.07)">
    <path id="Trazado_39706" data-name="Trazado 39706" d="M29.768,81.181l33.9.02a9.73,9.73,0,0,1,9.686,9.727v33.906a9.748,9.748,0,0,1-9.726,9.707l-33.923-.02A9.758,9.758,0,0,1,20,124.794l.04-33.9a9.722,9.722,0,0,1,9.73-9.71" transform="translate(4230.071 5665.889)" fill="#c8c8c8" fill-rule="evenodd"/>
    <path id="Trazado_39707" data-name="Trazado 39707" d="M66.373,108.116H62.506l-1.594,3.03h2.711Zm2.571,4.923H65.177v8.132c0,2.492-1.674,3.209-2.909,3.209-1.175,0-2.472-.439-2.452-2.611v-8.73H56.048l-.02,9.268c0,3.587,2.054,5.182,4.879,5.182a4.7,4.7,0,0,0,4.365-2.349h.04v1.973H68.94V113.039ZM53.1,116.766c0-3.488-3.667-4.106-5.7-4.106-2.93,0-5.98.618-6.438,4.923h3.648a2.04,2.04,0,0,1,2.1-1.973,1.9,1.9,0,0,1,.228.02c.977,0,2.492.08,2.492,1.635,0,.8-.737,1.036-1.335,1.116l-3.388.5c-2.412.339-4.205,1.754-4.205,4.505,0,2.909,2.233,4.106,4.365,4.106a5.856,5.856,0,0,0,4.644-2.033,6.077,6.077,0,0,0,.361,1.654l3.253-.02c0-1.555-.02-2.691-.02-2.711v-7.613Zm-16.062-8.65H33.267v4.9H31.314v2.651h1.934v8.55c0,1.813.578,3.049,3.846,3.049h.5c.6,0,1.2-.041,1.774-.06V124.4c-.259.02-.542.06-.777.06-1.536,0-1.575-.319-1.575-1.157l.02-7.633h2.349v-2.65H37.034Zm-7.454-.02H25.514l-.02,18.994H29.56Z" transform="translate(4229.541 5663.292)" fill="#f0f0f0" fill-rule="evenodd"/>
    <path id="Trazado_39708" data-name="Trazado 39708" d="M51.438,123.365v-1.813a5.4,5.4,0,0,1-2.571.757c-1.415.239-2.571.6-2.571,2.132a1.654,1.654,0,0,0,1.609,1.7c.048,0,.1,0,.145,0,1.674,0,3.388-1.056,3.388-2.77Z" transform="translate(4227.535 5661.995)" fill="#c8c8c8" fill-rule="evenodd"/>
  </g>
</svg>
