<svg xmlns="http://www.w3.org/2000/svg" width="53.359" height="53.359" fill-rule="evenodd" xmlns:v="https://vecta.io/nano"><path d="M9.77 0l33.9.02a9.73 9.73 0 0 1 9.686 9.727v33.906a9.75 9.75 0 0 1-9.726 9.707l-33.923-.02a9.76 9.76 0 0 1-9.705-9.727l.04-33.9C.049 4.345 4.404-.001 9.772.003" fill="#c8c8c8"/><path d="M45.845 24.338h-3.867l-1.594 3.03h2.711zm2.571 4.923h-3.767v8.132c0 2.492-1.674 3.209-2.909 3.209-1.175 0-2.472-.439-2.452-2.611v-8.73H35.52l-.02 9.268c0 3.587 2.054 5.182 4.879 5.182a4.7 4.7 0 0 0 4.365-2.349h.04v1.973h3.628V29.261zm-15.844 3.727c0-3.488-3.667-4.106-5.7-4.106-2.93 0-5.98.618-6.438 4.923h3.648a2.04 2.04 0 0 1 2.1-1.973 1.9 1.9 0 0 1 .228.02c.977 0 2.492.08 2.492 1.635 0 .8-.737 1.036-1.335 1.116l-3.388.5c-2.412.339-4.205 1.754-4.205 4.505 0 2.909 2.233 4.106 4.365 4.106 1.776.062 3.485-.686 4.644-2.033.043.565.164 1.122.361 1.654l3.253-.02-.02-2.711v-7.613zm-16.062-8.65h-3.771v4.9h-1.953v2.651h1.934v8.55c0 1.813.578 3.049 3.846 3.049h.5l1.774-.06v-2.806l-.777.06c-1.536 0-1.575-.319-1.575-1.157l.02-7.633h2.349v-2.65h-2.351zm-7.454-.02h-4.07l-.02 18.994h4.066z" fill="#f0f0f0"/><path d="M28.904 38.29v-1.813a5.4 5.4 0 0 1-2.571.757c-1.415.239-2.571.6-2.571 2.132-.012.439.15.865.452 1.184s.718.505 1.157.516h.145c1.674 0 3.388-1.056 3.388-2.77z" fill="#c8c8c8"/></svg>