<svg xmlns="http://www.w3.org/2000/svg" width="124.613" height="29.097" xmlns:v="https://vecta.io/nano"><path d="M.021 17.18v11.689h3.053l-.145-6.085 3.282 6.085H9.16V17.18H6.088l.145 6.085-3.282-6.085zm14.746 9.238c-.789 0-1.475-.249-1.475-1.579v-7.664h-3.053v7.894c0 3.24 2.45 4.029 4.528 4.029 2.1 0 4.528-.789 4.528-4.029v-7.892h-3.053v7.664c0 1.329-.686 1.579-1.475 1.579m13.043-4.9h-4.361v-1.641h4.8v-2.7h-7.851v11.69h7.851v-2.7h-4.8v-1.973h4.361zm7.68 7.414l3.157-11.755H35.37l-1.641 8.042-1.641-8.042h-3.281l3.157 11.755zm3.365-5.919c0 3.7.872 6.085 4.735 6.085s4.735-2.409 4.735-6.085c0-3.7-.872-6.085-4.735-6.085s-4.735 2.409-4.735 6.085m6.376 0c0 2.6-.416 3.386-1.641 3.386s-1.641-.789-1.641-3.386.416-3.386 1.641-3.386c1.225.021 1.641.789 1.641 3.386" fill="#b8b8b8"/><path d="M52.67 24.886h1.1c3.261 0 4.382-1.849 4.382-3.9 0-2.015-1.121-3.9-4.382-3.9h-4.156v11.693h3.053zm0-5.11h1.121a1.12 1.12 0 0 1 1.127 1.112l-.005.113a1.1 1.1 0 0 1-.97 1.219 1.2 1.2 0 0 1-.151.006h-1.121zm10.655 6.563c-.789 0-1.475-.249-1.475-1.578v-7.664h-3.053v7.889c0 3.24 2.45 4.029 4.528 4.029 2.1 0 4.528-.789 4.528-4.029v-7.892h-3.056v7.664c0 1.329-.686 1.578-1.475 1.578m9.533 2.45c4.091 0 5.089-2.53 5.089-5.836s-.976-5.836-5.089-5.836h-3.987v11.693h3.986zm-.934-9.014h.955c1.516 0 1.932 1.1 1.932 3.178 0 2.1-.416 3.178-1.932 3.178h-.955zm12.107 6.895l.436 2.119h3.219l-2.866-11.755h-4.029l-2.866 11.755h3.219l.436-2.119zm-.457-2.326h-1.536l.768-4.465zm13.644 4.445V17.097h-3.053v4.337h-2.8v-4.337h-3.053V28.79h3.053v-4.652h2.8v4.652zm5.545-2.45c-.789 0-1.475-.249-1.475-1.578v-7.664h-3.049v7.892c0 3.24 2.45 4.029 4.528 4.029 2.1 0 4.528-.789 4.528-4.029v-7.892h-3.053v7.664c0 1.329-.686 1.578-1.475 1.578m12.98-4.9h-4.361v-1.641h4.8v-2.7h-7.851v11.7h7.851v-2.7h-4.8v-1.973h4.361zm4.465-4.337h-3.055v11.693h7.454v-2.7h-4.4zM15.39 10.742c-.092-.002-.181.033-.247.096s-.104.151-.106.243v1.448c-.002.092.033.181.096.247s.151.104.243.106h1.447c.092.002.181-.033.247-.096s.104-.151.106-.243v-1.448c.002-.092-.033-.181-.096-.247s-.151-.104-.243-.106H15.39zM37.966 9.33c-.092-.002-.181.033-.247.096s-.104.151-.106.243v1.447c-.002.092.033.181.096.247s.151.104.243.106h1.447c.092.002.181-.033.247-.096s.104-.151.106-.243V9.68c.002-.092-.033-.181-.096-.247s-.151-.104-.243-.106h-1.447zm-15.037 1.412c-.092-.002-.181.033-.247.096s-.104.151-.106.243v1.448c-.002.092.033.181.096.247s.151.104.243.106h1.447c.092.002.181-.033.247-.096s.104-.151.106-.243v-1.448c.002-.092-.033-.181-.096-.247s-.151-.104-.243-.106h-1.447zm-22.578 0c-.092-.002-.181.033-.247.096s-.104.151-.106.243v1.448c-.002.092.033.181.096.247s.151.104.243.106h1.447c.092.002.181-.033.247-.096s.104-.151.106-.243v-1.448c.002-.092-.033-.181-.096-.247s-.151-.104-.243-.106H.351zm45.133-2.14c-.092-.002-.181.033-.247.096s-.104.151-.106.243v1.447c-.002.092.033.181.096.247s.151.104.243.106h1.447c.092.002.181-.033.247-.096s.104-.151.106-.243V8.957c.002-.092-.033-.181-.096-.247s-.151-.104-.243-.106h-1.447zm-15.036 1.433c-.092-.002-.181.033-.247.096s-.104.151-.106.243v1.447c-.002.092.033.181.096.247s.151.104.243.106h1.447c.092.002.181-.033.247-.096s.104-.151.106-.243v-1.447c.002-.092-.033-.181-.096-.247s-.151-.104-.243-.106h-1.447zm-22.577.707c-.092-.002-.181.033-.247.096s-.104.151-.106.243v1.448c-.002.092.033.181.096.247s.151.104.243.106h1.447c.092.002.181-.033.247-.096s.104-.151.106-.243v-1.448c.002-.092-.033-.181-.096-.247s-.151-.104-.243-.106H7.871zm71.613-3.241a3.21 3.21 0 0 1-3.214 3.198 3.21 3.21 0 0 1-3.203-3.209 3.21 3.21 0 0 1 3.203-3.209 3.21 3.21 0 0 1 3.214 3.198v.022" fill="#c4c4c4"/><path d="M85.131 4.968l5.047 4.548a4.63 4.63 0 0 0 4.59.994L124.447.52c.271-.083.187-.542-.083-.52l-38.8 3.49c-.328.046-.599.28-.693.597s.006.661.257.878" fill="#b8b8b8"/><path d="M55.765 6.442h-1.89c-.661.003-1.197.539-1.2 1.2v1.911c.003.661.539 1.197 1.2 1.2h1.911c.661-.003 1.197-.539 1.2-1.2V7.642a1.24 1.24 0 0 0-1.225-1.2m10.16-1.08h-1.807c-.474 0-.928.188-1.263.523s-.523.789-.523 1.263v1.807c0 .474.188.928.523 1.263s.789.523 1.263.523h1.807c.474 0 .928-.188 1.263-.523s.523-.789.523-1.263V7.148a1.8 1.8 0 0 0-1.786-1.786" fill="#c4c4c4"/></svg>