<svg xmlns="http://www.w3.org/2000/svg" width="124.613" height="29.097" viewBox="0 0 124.613 29.097">
  <g id="Grupo_13700" data-name="Grupo 13700" transform="translate(-4385.376 -5914.626)">
    <path id="Trazado_39733" data-name="Trazado 39733" d="M169.772,285.611V297.3h3.053l-.145-6.085,3.282,6.085h2.949V285.611h-3.072l.145,6.085-3.282-6.085Zm14.746,9.238c-.789,0-1.475-.249-1.475-1.579v-7.664H179.99V293.5c0,3.24,2.45,4.029,4.528,4.029,2.1,0,4.528-.789,4.528-4.029v-7.892h-3.053v7.664c0,1.329-.686,1.579-1.475,1.579m13.043-4.9H193.2v-1.641H198v-2.7h-7.851V297.3H198v-2.7h-4.8v-1.973h4.361Zm7.68,7.414,3.157-11.755h-3.277l-1.641,8.042-1.641-8.042h-3.281l3.157,11.755Zm3.365-5.919c0,3.7.872,6.085,4.735,6.085s4.735-2.409,4.735-6.085c0-3.7-.872-6.085-4.735-6.085s-4.735,2.409-4.735,6.085m6.376,0c0,2.6-.416,3.386-1.641,3.386s-1.641-.789-1.641-3.386.416-3.386,1.641-3.386c1.225.021,1.641.789,1.641,3.386" transform="translate(4215.625 5646.195)" fill="#b8b8b8"/>
    <path id="Trazado_39734" data-name="Trazado 39734" d="M227.716,293.328h1.1c3.261,0,4.382-1.849,4.382-3.9,0-2.015-1.121-3.9-4.382-3.9h-4.156v11.693h3.053Zm0-5.11h1.121a1.12,1.12,0,0,1,1.127,1.112c0,.038,0,.076-.005.113a1.1,1.1,0,0,1-.97,1.219,1.2,1.2,0,0,1-.151.006h-1.121Zm10.655,6.563c-.789,0-1.475-.249-1.475-1.578v-7.664h-3.053v7.889c0,3.24,2.45,4.029,4.528,4.029,2.1,0,4.528-.789,4.528-4.029v-7.892h-3.056V293.2c0,1.329-.686,1.578-1.475,1.578m9.533,2.45c4.091,0,5.089-2.53,5.089-5.836s-.976-5.836-5.089-5.836h-3.987v11.693H247.9Zm-.934-9.014h.955c1.516,0,1.932,1.1,1.932,3.178,0,2.1-.416,3.178-1.932,3.178h-.955Zm12.107,6.895.436,2.119h3.219l-2.866-11.755h-4.029l-2.866,11.755h3.219l.436-2.119Zm-.457-2.326h-1.536l.768-4.465Zm13.644,4.445V285.539h-3.053v4.337h-2.8v-4.337h-3.053v11.693h3.053v-4.652h2.8v4.652Zm5.545-2.45c-.789,0-1.475-.249-1.475-1.578v-7.664h-3.049v7.892c0,3.24,2.45,4.029,4.528,4.029,2.1,0,4.528-.789,4.528-4.029v-7.892h-3.053V293.2c0,1.329-.686,1.578-1.475,1.578m12.98-4.9h-4.361v-1.641h4.8v-2.7h-7.851v11.7h7.851v-2.7h-4.8v-1.973h4.361Zm4.465-4.337H292.2v11.693h7.454v-2.7h-4.4Z" transform="translate(4210.33 5646.184)" fill="#c4c4c4"/>
    <path id="Trazado_39735" data-name="Trazado 39735" d="M186.744,278.513a.346.346,0,0,0-.353.339V280.3a.346.346,0,0,0,.339.353h1.447a.346.346,0,0,0,.353-.339v-1.448a.346.346,0,0,0-.339-.353h-1.447Z" transform="translate(4214.022 5646.855)" fill="#c4c4c4"/>
    <path id="Trazado_39736" data-name="Trazado 39736" d="M211.73,276.95a.346.346,0,0,0-.353.339v1.447a.346.346,0,0,0,.339.353h1.447a.346.346,0,0,0,.353-.339V277.3a.346.346,0,0,0-.339-.353H211.73Z" transform="translate(4211.612 5647.006)" fill="#c4c4c4"/>
    <path id="Trazado_39737" data-name="Trazado 39737" d="M195.088,278.513a.346.346,0,0,0-.353.339V280.3a.346.346,0,0,0,.339.353h1.447a.346.346,0,0,0,.353-.339v-1.448a.346.346,0,0,0-.339-.353h-1.447Z" transform="translate(4213.217 5646.855)" fill="#c4c4c4"/>
    <path id="Trazado_39738" data-name="Trazado 39738" d="M170.1,278.513a.346.346,0,0,0-.353.339V280.3a.346.346,0,0,0,.339.353h1.447a.346.346,0,0,0,.353-.339v-1.448a.346.346,0,0,0-.339-.353H170.1Z" transform="translate(4215.627 5646.855)" fill="#c4c4c4"/>
    <path id="Trazado_39739" data-name="Trazado 39739" d="M220.051,276.145a.346.346,0,0,0-.353.339v1.447a.346.346,0,0,0,.339.353h1.447a.346.346,0,0,0,.353-.339V276.5a.346.346,0,0,0-.339-.353h-1.447Z" transform="translate(4210.809 5647.083)" fill="#c4c4c4"/>
    <path id="Trazado_39740" data-name="Trazado 39740" d="M203.409,277.731a.346.346,0,0,0-.353.339v1.447a.346.346,0,0,0,.339.353h1.447a.346.346,0,0,0,.353-.339v-1.447a.346.346,0,0,0-.339-.353h-1.447Z" transform="translate(4212.415 5646.93)" fill="#c4c4c4"/>
    <path id="Trazado_39741" data-name="Trazado 39741" d="M178.423,278.513a.346.346,0,0,0-.353.339V280.3a.346.346,0,0,0,.339.353h1.447a.346.346,0,0,0,.353-.339v-1.448a.346.346,0,0,0-.339-.353h-1.447Z" transform="translate(4214.824 5646.855)" fill="#c4c4c4"/>
    <path id="Trazado_39742" data-name="Trazado 39742" d="M257.03,274.583a3.209,3.209,0,1,1,0-.022v.022" transform="translate(4207.83 5647.544)" fill="#c4c4c4"/>
    <path id="Trazado_39743" data-name="Trazado 39743" d="M263.937,271.592l5.047,4.548a4.63,4.63,0,0,0,4.59.994l29.679-9.99c.271-.083.187-.542-.083-.52l-38.8,3.49a.845.845,0,0,0-.436,1.475" transform="translate(4206.57 5648.002)" fill="#b8b8b8"/>
    <path id="Trazado_39744" data-name="Trazado 39744" d="M231.137,273.754h-1.89a1.206,1.206,0,0,0-1.2,1.2v1.911a1.206,1.206,0,0,0,1.2,1.2h1.911a1.206,1.206,0,0,0,1.2-1.2v-1.911a1.237,1.237,0,0,0-1.225-1.2" transform="translate(4210.004 5647.314)" fill="#c4c4c4"/>
    <path id="Trazado_39745" data-name="Trazado 39745" d="M242.323,272.559h-1.807a1.786,1.786,0,0,0-1.786,1.786v1.807a1.786,1.786,0,0,0,1.786,1.786h1.807a1.786,1.786,0,0,0,1.786-1.786v-1.807a1.8,1.8,0,0,0-1.786-1.786" transform="translate(4208.974 5647.429)" fill="#c4c4c4"/>
  </g>
</svg>
