<svg xmlns="http://www.w3.org/2000/svg" width="124.616" height="25.657" viewBox="0 0 124.616 25.657">
  <g id="Grupo_13695" data-name="Grupo 13695" transform="translate(-4385.376 -5765.464)">
    <path id="Trazado_39746" data-name="Trazado 39746" d="M278.547,129.558H254.9a.194.194,0,0,1-.191-.2h0v-3.129a.2.2,0,0,1,.2-.2h23.641Z" transform="translate(4207.432 5661.563)" fill="#bcbcbc" fill-rule="evenodd"/>
    <rect id="Rectángulo_2049" data-name="Rectángulo 2049" width="7.263" height="3.528" transform="translate(4485.979 5787.593)" fill="#dfdfdf"/>
    <path id="Trazado_39747" data-name="Trazado 39747" d="M305.609,129.558H289.13V126.03h16.46a.22.22,0,0,1,.217.224v3.1a.2.2,0,0,1-.2.2" transform="translate(4204.112 5661.563)" fill="#d2d2d2" fill-rule="evenodd"/>
    <path id="Trazado_39748" data-name="Trazado 39748" d="M306.6,116.068c-.005,2.392-2.053,4.58-5.554,4.571a6.605,6.605,0,0,1-2.761-.605,5.745,5.745,0,0,1-1.029-.6l.976-1.792a6.1,6.1,0,0,0,.8.4,5.162,5.162,0,0,0,2.022.4,2.894,2.894,0,0,0,2.491-1.091,2.712,2.712,0,0,0,.529-1.094v-.2c-.233.04-.467.079-.7.1a11.109,11.109,0,0,1-1.439.1c-3.307-.009-5.15-1.906-5.145-4.5l.012-5.283,2.53.006-.013,5.282a2.343,2.343,0,0,0,2.62,2.3,7.9,7.9,0,0,0,1.479-.156,6.365,6.365,0,0,0,.661-.138l.016-7.275,2.53.005Z" transform="translate(4203.374 5663.449)" fill="#c9c9c9" fill-rule="evenodd"/>
    <path id="Trazado_39749" data-name="Trazado 39749" d="M291.883,110.509A2.446,2.446,0,0,0,287,110.5Zm1.454,2.1L287,112.59a2.989,2.989,0,0,0,3.127,2,4.187,4.187,0,0,0,1.849-.394,4.5,4.5,0,0,0,.682-.4l.968,1.8a6.258,6.258,0,0,1-3.7,1.185,5.267,5.267,0,0,1-5.629-5.4,5.159,5.159,0,0,1,10.31-.406c.005.144.005.287,0,.431Z" transform="translate(4204.579 5663.492)" fill="#c9c9c9" fill-rule="evenodd"/>
    <path id="Trazado_39750" data-name="Trazado 39750" d="M282.567,115.978l-2.53-.006.026-11.86H278.6l.006-2.094,3.987.01Z" transform="translate(4205.127 5663.879)" fill="#c9c9c9" fill-rule="evenodd"/>
    <path id="Trazado_39751" data-name="Trazado 39751" d="M270.314,108.3c-.214.059-.409.1-.6.157l-.013,5.783a5.272,5.272,0,0,0,.6.141,4.818,4.818,0,0,0,1.244.163,3.2,3.2,0,0,0,.364-6.373,2.839,2.839,0,0,0-.351-.005,7.2,7.2,0,0,0-1.245.136Zm-.633,11.818-2.53-.006.03-13.256a13.252,13.252,0,0,1,1.344-.452,11.646,11.646,0,0,1,3.035-.431,5.393,5.393,0,1,1,.721,10.762,5.3,5.3,0,0,1-.738,0,7.29,7.29,0,0,1-1.244-.143c-.214-.061-.408-.1-.6-.161Z" transform="translate(4206.232 5663.498)" fill="#c9c9c9" fill-rule="evenodd"/>
    <path id="Trazado_39752" data-name="Trazado 39752" d="M262.317,105.922l2.53.006-.022,9.966-2.53-.006Zm1.275-4.382a1.536,1.536,0,0,1,1.553,1.5,1.558,1.558,0,0,1-3.113-.008,1.536,1.536,0,0,1,1.56-1.491" transform="translate(4206.726 5663.925)" fill="#c9c9c9" fill-rule="evenodd"/>
    <path id="Trazado_39753" data-name="Trazado 39753" d="M256.656,108.269c-.174.06-.35.1-.506.158l-.017,7.874-2.53-.005.022-9.469a9.769,9.769,0,0,1,3.988-.884,6.915,6.915,0,0,1,2.349.4,8.8,8.8,0,0,1,.96.4l-.686,1.988a6.773,6.773,0,0,0-.66-.3,5.374,5.374,0,0,0-1.772-.3,5.707,5.707,0,0,0-1.148.136" transform="translate(4207.539 5663.5)" fill="#c9c9c9" fill-rule="evenodd"/>
    <path id="Trazado_39754" data-name="Trazado 39754" d="M241.659,116.663a6.587,6.587,0,0,1-2.857-.7,6.357,6.357,0,0,1-1.127-.7l.976-1.792a5.372,5.372,0,0,0,3.012,1c1.77,0,2.336-.613,2.337-1.191,0-1.494-5.835-.513-5.826-4.1.005-1.675,1.583-3.286,4.385-3.279a5.839,5.839,0,0,1,3.79,1.307L245.371,109a4.453,4.453,0,0,0-.8-.46,4.779,4.779,0,0,0-2.022-.444c-1.265,0-1.752.474-1.754,1.092,0,1.494,5.836.513,5.827,4.1,0,1.7-1.662,3.385-4.97,3.377" transform="translate(4209.075 5663.504)" fill="#c9c9c9" fill-rule="evenodd"/>
    <path id="Trazado_39755" data-name="Trazado 39755" d="M230.761,108.116a2.944,2.944,0,0,0-2.838,3.048c0,.053.005.107.01.16a2.844,2.844,0,1,0,5.641.014,2.946,2.946,0,0,0-2.654-3.211c-.052-.005-.106-.009-.159-.011m0-2.21a5.35,5.35,0,0,1,5.437,5.261c0,.06,0,.118,0,.177a5.447,5.447,0,1,1-10.894-.027,5.37,5.37,0,0,1,5.327-5.412h.13" transform="translate(4210.269 5663.504)" fill="#c9c9c9" fill-rule="evenodd"/>
    <path id="Trazado_39756" data-name="Trazado 39756" d="M220.7,108.231c-.175.06-.35.1-.506.16l-.018,7.936-2.53-.006.021-9.544a9.611,9.611,0,0,1,3.992-.894,6.852,6.852,0,0,1,2.349.407,8.665,8.665,0,0,1,.953.4l-.683,2.008a6.911,6.911,0,0,0-.66-.3,5.365,5.365,0,0,0-1.769-.306,5.708,5.708,0,0,0-1.148.138" transform="translate(4211.007 5663.506)" fill="#c9c9c9" fill-rule="evenodd"/>
    <path id="Trazado_39757" data-name="Trazado 39757" d="M214.664,115.853a11.857,11.857,0,0,1-1.5.438,12.227,12.227,0,0,1-3.172.452c-3.307-.008-5.15-1.922-5.145-4.534l.014-5.924,2.53.006-.013,5.927a2.349,2.349,0,0,0,2.366,2.332,2.164,2.164,0,0,0,.254-.015,7.822,7.822,0,0,0,1.479-.157,6.319,6.319,0,0,0,.661-.139l.018-7.936,2.53.006Z" transform="translate(4212.242 5663.467)" fill="#c9c9c9" fill-rule="evenodd"/>
    <path id="Trazado_39758" data-name="Trazado 39758" d="M194.345,110.938A2.846,2.846,0,0,0,197,113.966a2.815,2.815,0,0,0,.454-.006,5.571,5.571,0,0,0,1.246-.158,5.293,5.293,0,0,0,.6-.139l.012-5.325c-.194-.061-.389-.1-.6-.163a5.887,5.887,0,0,0-1.245-.144,2.83,2.83,0,0,0-3.1,2.527,2.945,2.945,0,0,0-.014.379Zm7.48,4.641c-.007,2.913-1.956,4.917-5.457,4.909a6.535,6.535,0,0,1-2.761-.61,5.686,5.686,0,0,1-1.03-.6l.977-1.807a5.313,5.313,0,0,0,.738.4,4.5,4.5,0,0,0,1.886.407,3.083,3.083,0,0,0,2.59-1.139,3.147,3.147,0,0,0,.527-1.164v-.1a5.081,5.081,0,0,1-.6.139,4.749,4.749,0,0,1-1.245.158c-3.5-.009-5.734-2.325-5.728-5.241.008-2.81,2.25-5.115,5.752-5.106a12.217,12.217,0,0,1,3.033.452,13.226,13.226,0,0,1,1.342.465Z" transform="translate(4213.508 5663.512)" fill="#c9c9c9" fill-rule="evenodd"/>
    <path id="Trazado_39759" data-name="Trazado 39759" d="M187.573,110.318a2.443,2.443,0,0,0-4.878-.012Zm1.455,2.113-6.341-.016a2.99,2.99,0,0,0,3.127,2.018,4.159,4.159,0,0,0,1.848-.4,4.519,4.519,0,0,0,.682-.4l.968,1.807a6.23,6.23,0,0,1-3.7,1.2,5.285,5.285,0,0,1-5.629-5.438,5.161,5.161,0,1,1,10.309.026Z" transform="translate(4214.64 5663.515)" fill="#c9c9c9" fill-rule="evenodd"/>
    <path id="Trazado_39760" data-name="Trazado 39760" d="M173.734,116.609a6.541,6.541,0,0,1-2.858-.71,6.368,6.368,0,0,1-1.127-.7l.977-1.807a5.273,5.273,0,0,0,3.012,1.016c1.771,0,2.337-.62,2.337-1.2,0-1.506-5.833-.517-5.825-4.133,0-1.688,1.578-3.311,4.379-3.3a5.8,5.8,0,0,1,3.795,1.316l-.977,1.807a4.432,4.432,0,0,0-.8-.464,4.754,4.754,0,0,0-2.022-.452c-1.265,0-1.751.478-1.754,1.1,0,1.507,5.835.517,5.827,4.134,0,1.708-1.662,3.412-4.969,3.4" transform="translate(4215.627 5663.517)" fill="#c9c9c9" fill-rule="evenodd"/>
  </g>
</svg>
