<svg xmlns="http://www.w3.org/2000/svg" width="58.587" height="58.607" viewBox="0 0 58.587 58.607">
  <g id="Grupo_13701" data-name="Grupo 13701" transform="translate(-4248.266 -5902.647)">
    <path id="Trazado_39700" data-name="Trazado 39700" d="M76.541,282.646A29.259,29.259,0,0,1,47.208,311.83h0a28.9,28.9,0,0,1-29.024-28.779c0-.1,0-.2,0-.3a29.18,29.18,0,1,1,58.358-.414c0,.1,0,.2,0,.305" transform="translate(4230.247 5649.28)" fill="#fff"/>
    <path id="Trazado_39701" data-name="Trazado 39701" d="M52.352,292.665a93.618,93.618,0,0,1,21.678,1.861,29.293,29.293,0,1,0-51.358,3.9,92,92,0,0,1,29.681-5.757" transform="translate(4230.264 5649.278)" fill="#ccc"/>
    <path id="Trazado_39702" data-name="Trazado 39702" d="M30.136,310.067a29.321,29.321,0,0,0,44.63-10.227,70.39,70.39,0,0,0-44.63,10.227" transform="translate(4229.093 5644.836)" fill="#c3c3c3"/>
    <path id="Trazado_39703" data-name="Trazado 39703" d="M52.458,287.756a2.079,2.079,0,0,1-1.626-.427A7.917,7.917,0,0,0,52.165,286a3.462,3.462,0,0,0,.288-.361,7.371,7.371,0,0,0,1.279-4.238,7.164,7.164,0,0,0-1.021-3.785,7.248,7.248,0,0,0-2.8-2.654,8.721,8.721,0,0,0-7.983,0,7.248,7.248,0,0,0-2.8,2.654A7.164,7.164,0,0,0,38.1,281.4a7.313,7.313,0,0,0,3.672,6.449,7.991,7.991,0,0,0,3.857,1.059l.017-.007c.09,0,.181.01.271.01a8.921,8.921,0,0,0,2.065-.234,5.4,5.4,0,0,0,2.154,1.541,4.243,4.243,0,0,0,2.582.156,3.969,3.969,0,0,0,1.842-1.018c.049-.051-1.3-2.1-1.3-2.1a1.183,1.183,0,0,1-.8.5m-8.486-2.36a4.377,4.377,0,0,1-1.454-1.651,5.2,5.2,0,0,1-.01-4.623,4.174,4.174,0,0,1,1.454-1.64,3.592,3.592,0,0,1,1.988-.595,3.491,3.491,0,0,1,1.97.595,4.1,4.1,0,0,1,1.413,1.64,5.446,5.446,0,0,1,0,4.623,4.5,4.5,0,0,1-.643.968c-.11-.174-.224-.349-.356-.52a3.759,3.759,0,0,0-1.807-1.416l-1.911,1.966a2.867,2.867,0,0,1,1.311.883,4.051,4.051,0,0,1,.271.361c-.083.005-.164.017-.248.017a3.492,3.492,0,0,1-1.98-.605" transform="translate(4228.325 5647.291)" fill="#fff"/>
    <path id="Trazado_39704" data-name="Trazado 39704" d="M33.739,280.7a19.964,19.964,0,0,0-2.486-.864q-1.011-.309-1.526-.5a2.654,2.654,0,0,1-.866-.514,1.025,1.025,0,0,1-.351-.792.835.835,0,0,1,.4-.751,2.028,2.028,0,0,1,1.1-.258,7.3,7.3,0,0,1,2.2.432c.874.288,2.093.813,2.327,1.423l1.56-3.315a10.189,10.189,0,0,0-2.681-1.183,11.06,11.06,0,0,0-3.094-.442,7.888,7.888,0,0,0-3.042.542,4.54,4.54,0,0,0-2.021,1.554,3.965,3.965,0,0,0-.712,2.349,3.5,3.5,0,0,0,.691,2.273,4.329,4.329,0,0,0,1.661,1.276,19.093,19.093,0,0,0,2.454.834q.993.271,1.536.463a2.671,2.671,0,0,1,.9.525,1.067,1.067,0,0,1,.361.822,1.007,1.007,0,0,1-.485.9,2.467,2.467,0,0,1-1.33.308,7.082,7.082,0,0,1-2.65-.617,4.747,4.747,0,0,1-2.44-1.842l-1.614,3.2a9.78,9.78,0,0,0,3.083,1.717,10.734,10.734,0,0,0,3.578.628,8.149,8.149,0,0,0,2.96-.514,4.627,4.627,0,0,0,2.094-1.536,3.977,3.977,0,0,0,.763-2.458,3.677,3.677,0,0,0-.7-2.336,4.347,4.347,0,0,0-1.681-1.326" transform="translate(4229.72 5647.297)" fill="#fff"/>
    <path id="Trazado_39705" data-name="Trazado 39705" d="M73.244,287.574v-3.916h-.01v-8.287a1.837,1.837,0,0,1,.248-1.123H69.13l-.337.687-3.83,7.747-3.842-7.734-.343-.7H56.424a1.808,1.808,0,0,1,.248,1.122v12.2a4.936,4.936,0,0,1-.248,1.094h3.858a4.89,4.89,0,0,1-.249-1.094v-8.042l3.714,7.694H66.18l3.692-7.694.01,4.124v3.916a4.936,4.936,0,0,1-.248,1.094h3.858a4.936,4.936,0,0,1-.248-1.094" transform="translate(4226.558 5647.267)" fill="#fff"/>
  </g>
</svg>
